<svg width="314" height="314" viewBox="0 0 314 314" fill="none" xmlns="http://www.w3.org/2000/svg">
<rect width="314" height="314" rx="20" fill="#2A2A2A"/>
<path d="M22.9038 200.399L41.8081 260.22C45.7513 272.698 57.3276 281.18 70.4137 281.18H228.022C241.973 281.18 254.082 271.563 257.242 257.975L268.746 208.508C270.818 199.598 268.712 190.23 263.027 183.065L158.221 50.9809C155.554 47.6206 152.191 44.8456 148.339 42.9574C110.012 24.1685 85.743 21.0631 53.4887 36.4623C42.7553 41.5868 37.3475 53.4907 38.9333 65.2786L47.0871 125.888C47.9596 132.374 46.6873 138.967 43.4642 144.663L25.4001 176.584C21.2986 183.832 20.3944 192.459 22.9038 200.399Z" fill="#A5ABB0" stroke="black"/>
<g clip-path="url(#clip0)">
<path d="M138.751 82.4326H76.4023V140.504H138.751V82.4326Z" fill="#112B46"/>
<g style="mix-blend-mode:screen">
<g style="mix-blend-mode:screen">
<path d="M138.751 82.4326H76.4023V88.5746H138.751V82.4326Z" fill="#1D262D"/>
</g>
</g>
<path d="M125.304 85.5769C125.304 85.8005 125.237 86.019 125.112 86.2048C124.988 86.3906 124.811 86.5352 124.604 86.6205C124.397 86.7057 124.169 86.7277 123.949 86.6837C123.73 86.6396 123.528 86.5314 123.37 86.3729C123.212 86.2144 123.105 86.0126 123.062 85.7932C123.019 85.5738 123.042 85.3467 123.129 85.1405C123.216 84.9343 123.362 84.7585 123.548 84.6352C123.735 84.5119 123.955 84.4468 124.179 84.448C124.327 84.448 124.474 84.4773 124.611 84.5341C124.748 84.5909 124.872 84.6742 124.976 84.7791C125.081 84.884 125.164 85.0085 125.22 85.1454C125.276 85.2823 125.304 85.429 125.304 85.5769Z" fill="#606BF1"/>
<path d="M129.982 85.5769C129.982 85.8005 129.916 86.019 129.791 86.2048C129.666 86.3906 129.489 86.5352 129.282 86.6205C129.075 86.7057 128.847 86.7277 128.628 86.6837C128.408 86.6396 128.207 86.5314 128.049 86.3729C127.891 86.2144 127.783 86.0126 127.741 85.7932C127.698 85.5738 127.721 85.3467 127.808 85.1405C127.894 84.9343 128.04 84.7585 128.227 84.6352C128.414 84.5119 128.633 84.4468 128.857 84.448C129.006 84.448 129.152 84.4773 129.289 84.5341C129.426 84.5909 129.55 84.6742 129.655 84.7791C129.76 84.884 129.842 85.0085 129.898 85.1454C129.955 85.2823 129.983 85.429 129.982 85.5769Z" fill="#FBD15B"/>
<path d="M134.36 85.6918C134.362 85.9153 134.296 86.1342 134.173 86.3207C134.049 86.5071 133.873 86.6528 133.666 86.7393C133.46 86.8257 133.232 86.8489 133.012 86.8061C132.792 86.7633 132.59 86.6563 132.431 86.4986C132.273 86.341 132.164 86.1399 132.12 85.9207C132.076 85.7016 132.098 85.4743 132.183 85.2676C132.269 85.061 132.414 84.8843 132.6 84.7599C132.786 84.6356 133.005 84.5692 133.229 84.5692C133.528 84.5692 133.815 84.6873 134.027 84.8976C134.239 85.108 134.359 85.3935 134.36 85.6918Z" fill="#FF8578"/>
<path d="M96.3182 94.2828H87.4851V95.0226H96.3182V94.2828Z" fill="#FF8578"/>
<path d="M106.685 94.2828H97.8521V95.0226H106.685V94.2828Z" fill="#FBD15B"/>
<path d="M103.918 98.2754H90.2207V99.0152H103.918V98.2754Z" fill="#606BF1"/>
<path d="M113.141 98.2754H106.18V99.0152H113.141V98.2754Z" fill="#FF8578"/>
<path d="M100.984 102.268H94.9695V103.008H100.984V102.268Z" fill="#FBD15B"/>
<path d="M124.415 102.268H104.461V103.008H124.415V102.268Z" fill="#FBD15B"/>
<path d="M122.447 106.254H99.6418V106.994H122.447V106.254Z" fill="#606BF1"/>
<path d="M100.958 110.247H93.9405V110.987H100.958V110.247Z" fill="#FF8578"/>
<path d="M110.98 110.247H103.962V110.987H110.98V110.247Z" fill="#606BF1"/>
<path d="M97.6923 130.943H87.4851V131.683H97.6923V130.943Z" fill="#FF8578"/>
<path d="M111.479 130.943H101.272V131.683H111.479V130.943Z" fill="#FBD15B"/>
<path d="M124.895 130.943H114.687V131.683H124.895V130.943Z" fill="#FF8578"/>
<path d="M110.175 126.957H90.2207V127.697H110.175V126.957Z" fill="#606BF1"/>
<path d="M133.235 126.957H113.281V127.697H133.235V126.957Z" fill="#FF8578"/>
<path d="M114.77 122.964H94.9695V123.704H114.77V122.964Z" fill="#FF8578"/>
<path d="M122.006 122.964H116.496V123.704H122.006V122.964Z" fill="#FBD15B"/>
<path d="M101.131 118.978H93.6785V119.718H101.131V118.978Z" fill="#FBD15B"/>
<path d="M112.54 118.978H105.087V119.718H112.54V118.978Z" fill="#606BF1"/>
<path d="M124.786 118.978H117.333V119.718H124.786V118.978Z" fill="#FF8578"/>
<path d="M112.763 114.986H102.313V115.725H112.763V114.986Z" fill="#FBD15B"/>
<path d="M98.3698 114.986H87.9197V115.725H98.3698V114.986Z" fill="#606BF1"/>
<path d="M82.6595 93.5748H81.7072V94.5252H82.6595V93.5748Z" fill="#F9FBFC"/>
<path d="M82.6595 128.36H81.7072V126.447H82.6595V128.36ZM82.6595 123.526H81.7072V121.612H82.6595V123.526ZM82.6595 118.691H81.7072V116.778H82.6595V118.691ZM82.6595 113.857H81.7072V111.943H82.6595V113.857ZM82.6595 109.022H81.7072V107.09H82.6595V109.022ZM82.6595 104.188H81.7072V102.274H82.6595V104.188ZM82.6595 99.3596H81.7072V97.4463H82.6595V99.3596Z" fill="#F9FBFC"/>
<path d="M82.6595 131.262H81.7072V132.212H82.6595V131.262Z" fill="#F9FBFC"/>
<path d="M203.51 70.0977H152.167V101.681H203.51V70.0977Z" fill="#FF8578"/>
<path d="M172.109 82.8026L165.998 85.4048L172.109 87.9559L171.322 89.8055L163.998 86.54V84.2822L171.322 80.9976L172.109 82.8026Z" fill="#F9FBFC"/>
<path d="M181.108 76.7818L176.678 93.7726L174.563 93.2815L179.037 76.3035L181.108 76.7818Z" fill="#F9FBFC"/>
<path d="M191.711 84.2822V86.54L184.387 89.8055L183.588 87.9559L189.679 85.4047L183.588 82.8089L184.387 81.004L191.711 84.2822Z" fill="#F9FBFC"/>
<path d="M230.987 131.281H201.746V152.073H230.987V131.281Z" fill="#606BF1"/>
<path d="M213.979 135.79C213.04 135.79 212.701 136.045 212.701 136.747V139.872C212.701 141.097 212.19 141.467 211.34 141.709C211.549 141.734 211.751 141.801 211.934 141.905C212.117 142.01 212.277 142.151 212.404 142.319C212.531 142.487 212.623 142.679 212.674 142.883C212.725 143.087 212.734 143.3 212.701 143.508V146.633C212.701 147.334 213.027 147.583 213.979 147.583V148.954C211.608 148.954 210.937 148.195 210.937 146.62V143.635C210.937 142.787 210.713 142.455 209.933 142.455V140.893C210.713 140.893 210.937 140.548 210.937 139.7V136.734C210.937 135.14 211.576 134.394 213.979 134.394V135.79Z" fill="#F1F2F2"/>
<path d="M221.815 136.734V139.7C221.815 140.548 222.039 140.893 222.832 140.893V142.455C222.039 142.455 221.815 142.787 221.815 143.635V146.633C221.815 148.208 221.144 148.967 218.773 148.967V147.596C219.7 147.596 220.051 147.347 220.051 146.646V143.514C220.051 142.309 220.556 141.939 221.413 141.715C220.556 141.473 220.051 141.078 220.051 139.879V136.753C220.051 136.052 219.738 135.797 218.773 135.797V134.425C221.131 134.394 221.815 135.153 221.815 136.734Z" fill="#F1F2F2"/>
<path d="M89.3642 74.6261H56.5566V96.5215H89.3642V74.6261Z" fill="#FBD15B"/>
<path d="M67.4158 80.9402C66.636 81.9446 66.2384 83.1923 66.2936 84.4617C66.3487 85.731 66.8531 86.9397 67.7171 87.873C68.581 88.8062 69.7486 89.4036 71.0123 89.5589C72.276 89.7142 73.5539 89.4174 74.619 88.7212L78.064 92.1589C78.098 92.194 78.1387 92.222 78.1837 92.241C78.2288 92.2601 78.2772 92.2699 78.3261 92.2699C78.375 92.2699 78.4234 92.2601 78.4684 92.241C78.5134 92.222 78.5541 92.194 78.5881 92.1589L79.5532 91.1959C79.6231 91.1254 79.6623 91.0303 79.6623 90.9312C79.6623 90.8321 79.6231 90.737 79.5532 90.6665L76.089 87.2352C76.767 86.084 76.9913 84.7222 76.7185 83.415C76.4456 82.1077 75.6951 80.9486 74.6129 80.1632C73.5308 79.3778 72.1945 79.0223 70.8641 79.1659C69.5338 79.3095 68.3046 79.942 67.4158 80.9402ZM74.325 86.9673C73.7907 87.5075 73.1075 87.8769 72.3622 88.0286C71.617 88.1803 70.8434 88.1074 70.1397 87.8192C69.4361 87.531 68.8342 87.0406 68.4106 86.4102C67.987 85.7798 67.7609 85.038 67.7609 84.279C67.7609 83.52 67.987 82.7782 68.4106 82.1478C68.8342 81.5174 69.4361 81.027 70.1397 80.7388C70.8434 80.4507 71.617 80.3778 72.3622 80.5295C73.1075 80.6812 73.7907 81.0506 74.325 81.5907C75.0257 82.3058 75.4181 83.2661 75.4181 84.2663C75.4181 85.2664 75.0257 86.2268 74.325 86.9418V86.9673Z" fill="#F9FBFC"/>
<path d="M184.796 142.264C184.725 142.985 183.735 150.555 175.95 150.555C167.782 150.555 169.149 142.487 169.149 142.487V142.436C169.99 142.26 170.853 142.219 171.706 142.315V138.488L180.98 133.316H181.312V142.245C182.471 142.132 183.638 142.138 184.796 142.264Z" fill="url(#paint0_radial)"/>
<path d="M180.271 116.236C181.665 117.661 182.631 119.449 183.057 121.395C183.946 125.311 183.108 129.463 181.964 133.239C181.799 133.895 181.525 134.518 181.153 135.082C180.853 135.46 180.513 135.802 180.136 136.103L175.189 140.408C174.077 141.384 167.206 142.194 165.896 141.263C160.847 137.659 159.875 127.231 160.885 121.88C162.592 113.027 173.994 109.858 180.271 116.236Z" fill="url(#paint1_radial)"/>
<path d="M177.458 127.569C177.522 126.715 178.404 125.783 179.286 126.338C180.168 126.893 179.983 128.424 179.606 129.253C179.305 129.891 178.327 130.624 177.644 130.012C177.081 129.508 177.957 128.909 177.982 128.443C178.008 127.977 177.171 127.722 177.516 127.276" fill="#F7B094"/>
<path d="M177.618 131.511C178.222 131.607 178.841 131.488 179.366 131.176C179.892 130.863 180.291 130.377 180.494 129.801C180.738 128.91 180.857 127.989 180.846 127.065C181.154 128.042 181.231 129.077 181.069 130.088C180.833 131.951 180.175 133.724 178.711 133.749C177.247 133.775 177.618 131.511 177.618 131.511Z" fill="#F7B094"/>
<path d="M176.487 130.184L176.384 130.216C175.816 130.293 175.586 129.578 175.502 129.176C175.354 128.169 175.287 127.152 175.304 126.134C175.321 125.859 175.288 125.582 175.208 125.318C174.889 124.591 174.039 124.112 173.777 123.36C173.47 122.48 174.326 121.599 173.988 120.636C173.47 119.163 171.572 118.825 170.204 118.844C168.157 118.938 166.119 119.178 164.106 119.565C161.959 119.897 159.217 120.203 157.331 118.857C155.05 117.224 154.104 112.976 155.804 110.649C156.318 110.03 156.963 109.532 157.692 109.191C158.421 108.849 159.217 108.672 160.022 108.671C161.652 108.633 163.033 109.603 164.528 110.087C165.723 110.476 166.874 109.341 167.992 109.118C169.392 108.837 169.987 110.393 171.227 110.393C172.467 110.393 173.611 109.494 174.78 109.284C177.113 108.856 176.973 111.197 178.538 111.994C179.51 112.492 180.769 112.192 181.734 112.696C182.482 113.079 182.591 113.755 182.75 114.514C182.832 115.205 182.953 115.89 183.115 116.567C183.38 117.084 183.74 117.547 184.176 117.932C184.567 118.421 184.862 118.979 185.045 119.578C185.477 120.927 185.623 122.352 185.473 123.762C185.181 126.118 184.593 128.428 183.722 130.637C183.211 132.078 183.019 133.571 182.233 134.929C182.022 135.299 181.089 136.364 180.737 135.567C180.678 135.391 180.661 135.203 180.686 135.019C180.795 133.539 182.175 123.991 178.551 125.139C178.189 125.271 177.86 125.483 177.591 125.759C177.322 126.035 177.12 126.368 176.998 126.734C176.701 127.58 176.592 128.481 176.679 129.374C176.679 129.502 176.679 129.636 176.679 129.763C176.687 129.844 176.674 129.926 176.641 130C176.607 130.074 176.554 130.138 176.487 130.184Z" fill="#3D3D7A"/>
<path d="M171.706 141.416C175.822 140.778 178.545 137.512 178.545 137.512C178.16 139.114 177.257 140.544 175.976 141.582C174.695 142.619 173.106 143.207 171.457 143.252L171.706 141.416Z" fill="#F7B094"/>
<path d="M183.326 273.515H179.491C179.214 273.515 178.949 273.406 178.754 273.211C178.559 273.016 178.449 272.751 178.449 272.475V216.012H184.348V272.482C184.347 272.753 184.239 273.013 184.048 273.206C183.857 273.399 183.598 273.51 183.326 273.515Z" fill="#0A2033"/>
<path d="M193.59 221.739H169.232C168.163 221.739 167.137 221.315 166.381 220.56C165.624 219.806 165.199 218.782 165.199 217.715V216.828H197.63V217.715C197.63 218.244 197.525 218.768 197.322 219.256C197.119 219.745 196.822 220.189 196.446 220.563C196.071 220.936 195.626 221.233 195.136 221.435C194.646 221.636 194.121 221.74 193.59 221.739Z" fill="#30475E"/>
<path d="M183.326 280.945H179.491C179.214 280.945 178.949 280.836 178.754 280.641C178.559 280.446 178.449 280.181 178.449 279.906V266.825H184.348V279.906C184.348 280.178 184.241 280.44 184.05 280.634C183.859 280.829 183.599 280.94 183.326 280.945Z" fill="#0A2033"/>
<path d="M150.812 277.501C150.812 278.182 151.014 278.848 151.394 279.415C151.773 279.981 152.312 280.423 152.943 280.683C153.573 280.944 154.267 281.012 154.937 280.879C155.606 280.746 156.221 280.418 156.704 279.937C157.187 279.455 157.515 278.841 157.649 278.173C157.782 277.505 157.713 276.813 157.452 276.183C157.191 275.554 156.749 275.016 156.181 274.638C155.613 274.259 154.946 274.057 154.263 274.057C153.348 274.057 152.47 274.42 151.823 275.066C151.176 275.712 150.812 276.588 150.812 277.501Z" fill="#0A2033"/>
<path d="M205.114 277.501C205.114 278.182 205.317 278.848 205.696 279.415C206.075 279.981 206.614 280.423 207.245 280.683C207.876 280.944 208.569 281.012 209.239 280.879C209.909 280.746 210.524 280.418 211.006 279.937C211.489 279.455 211.818 278.841 211.951 278.173C212.084 277.505 212.016 276.813 211.754 276.183C211.493 275.554 211.051 275.016 210.483 274.638C209.916 274.259 209.248 274.057 208.566 274.057C207.65 274.057 206.772 274.42 206.125 275.066C205.478 275.712 205.114 276.588 205.114 277.501Z" fill="#0A2033"/>
<path d="M175.483 272.782H187.346V262.437H175.483V272.782Z" fill="#30475E"/>
<path d="M212.017 275.205H150.812V274.006C150.812 273.034 151.199 272.101 151.889 271.413C152.578 270.725 153.513 270.339 154.487 270.339H208.342C209.317 270.339 210.252 270.725 210.941 271.413C211.63 272.101 212.017 273.034 212.017 274.006V275.205Z" fill="#FBD15B"/>
<path d="M181.415 222.9H179.369V261.518H181.415V222.9Z" fill="#30475E"/>
<path d="M204.558 175.097C204.223 175.086 203.889 175.145 203.578 175.27C203.267 175.395 202.985 175.584 202.752 175.824C202.518 176.065 202.337 176.351 202.221 176.665C202.105 176.98 202.057 177.314 202.078 177.649C202.481 184.664 200.992 201.757 194.447 207.625C186.451 214.755 163.768 213.786 163.768 213.786C163.768 213.786 160.029 218.372 167.513 219.392C174.998 220.413 196.109 219.73 201.215 214.972C206.156 210.374 209.09 198.313 206.878 177.342C206.82 176.76 206.552 176.219 206.124 175.819C205.696 175.419 205.138 175.188 204.552 175.168L204.558 175.097Z" fill="#FBD15B"/>
<path d="M162.106 261.518L164.803 267.654L156.539 271.27L153.835 265.115L162.106 261.518Z" fill="url(#paint2_radial)"/>
<path d="M201.062 193.332C200.551 194.352 163.844 193.332 160.38 193.67C160.38 193.67 137.914 204.372 134.686 214.385C134.345 215.668 134.239 217.001 134.373 218.321C135.268 232.422 151.362 266.193 151.362 266.193L153.835 265.115L162.106 261.518L163.282 261.008C163.282 261.008 150.499 223.047 153.056 221.012C155.612 218.977 184.54 213.875 194.6 211.165C204.66 208.454 201.062 193.332 201.062 193.332Z" fill="#56548C"/>
<path d="M130.609 263.094L131.254 272.31H122.242L121.59 263.074L130.609 263.094Z" fill="url(#paint3_radial)"/>
<path d="M160.195 193.357L159.869 193.498C159.869 193.498 122.261 198.766 116.132 209.296C112.15 216.139 119.858 266.174 119.858 266.174L133.165 266.206C133.165 266.206 131.171 224.526 131.836 222.198C132.584 219.545 133.862 218.588 134.392 218.314C134.258 216.994 134.364 215.661 134.705 214.379C137.901 204.366 160.399 193.664 160.399 193.664C160.302 193.584 160.231 193.477 160.195 193.357Z" fill="#3D3D7A"/>
<path d="M196.524 158.681L193.999 159.025C193.548 163.585 192.842 168.116 191.884 172.597L160.457 184.498L160.029 186.775L159.639 186.743C159.639 187.209 159.639 187.668 159.671 188.096C159.741 190.717 159.92 192.598 160.195 193.357C160.223 193.477 160.285 193.585 160.374 193.67C161.23 194.365 172.345 193.032 184.361 197.42C194.779 201.247 200.621 205.412 200.889 204.85C204.168 198.058 198.205 171.398 196.524 158.681Z" fill="#FF8578"/>
<path d="M193.245 174.23C192.408 178.242 190.241 186.233 185.997 187.305C180.449 188.708 169.725 188.638 159.677 188.096C159.677 187.668 159.677 187.209 159.645 186.744L160.035 186.775L160.463 184.499L191.884 172.597C192.842 168.116 193.548 163.585 193.999 159.025C193.997 159.063 193.997 159.102 193.999 159.14C194.07 160.186 194.498 168.318 193.245 174.23Z" fill="#F4675D"/>
<path d="M161.735 148.661C161.173 149.681 160.367 160.581 159.926 171.405L153.503 165.422C156.245 160.154 161.735 148.661 161.735 148.661Z" fill="#F4675D"/>
<path d="M157.9 179.313C152.474 180.251 147.495 181.054 147.495 181.054V181.322C141.461 176.513 132.277 162.884 132.277 162.884C132.277 162.884 135.025 159.593 135.709 158.732C135.811 158.598 150.78 168.879 151.547 168.79C151.745 168.79 152.512 167.418 153.528 165.422L159.952 171.405C159.85 173.956 159.767 176.552 159.715 178.988L157.9 179.313Z" fill="#F7B094"/>
<path d="M147.495 181.074L147.361 185.538H131.056C131.056 185.538 132.679 179.16 137.096 179.16C141.512 179.16 143.225 181.494 143.225 181.494L147.495 181.074Z" fill="url(#paint4_radial)"/>
<path d="M135.575 158.63L135.696 158.732C135.012 159.593 132.264 162.884 132.264 162.884L130.564 161.685C129.936 162.017 129.235 162.186 128.525 162.177C127.814 162.168 127.118 161.981 126.499 161.634C124.217 160.403 125.63 157.456 125.745 157.105C125.304 157.233 122.549 159.433 122.146 159.197C121.744 158.961 121.398 158.19 124.454 155.186C127.509 152.182 131.644 156.04 131.765 156.04L135.575 158.63Z" fill="#F7B094"/>
<path d="M126.85 161.123C126.85 161.123 126.211 162.354 127.362 162.884C128.77 163.445 130.275 163.727 131.791 163.713C132.769 163.617 133.542 162.252 133.542 162.252L130.583 159.478H128.212L126.85 161.123Z" fill="#F7B094"/>
<path d="M126.678 161.723C126.85 161.123 128.531 161.442 129.58 161.468C130.346 161.468 130.768 161.289 131.005 160.702C131.241 160.116 130.123 159.191 129.905 159.478C129.688 159.765 130.308 160.186 130.327 160.569C130.346 160.951 129.228 161.085 128.372 161.085C127.586 161.116 126.803 161.19 126.026 161.308L126.678 161.723Z" fill="#E8987C"/>
<path d="M190.292 178.388L174.314 172.731C173.15 174.9 171.904 176.558 170.67 176.858C168.798 177.349 164.279 178.191 159.728 178.988L157.926 179.313C152.499 180.251 147.52 181.054 147.52 181.054V181.322V181.494L147.399 185.519V186.539C151.495 186.386 155.595 186.455 159.683 186.743C169.271 187.426 181.638 187.834 185.735 185.908C187.653 185.002 189.187 182.024 190.388 178.357L190.292 178.388Z" fill="url(#paint5_radial)"/>
<path d="M174.288 172.731L190.292 178.388L189.564 180.519L173.726 173.739L174.288 172.731Z" fill="#F7B094"/>
<path d="M174.288 172.731C173.125 174.9 171.878 176.558 170.645 176.858C168.772 177.349 164.253 178.191 159.703 178.988C159.754 176.552 159.837 173.981 159.939 171.405C160.38 160.562 161.185 149.681 161.748 148.661C162.668 146.958 165.18 143.259 169.143 142.417V142.468C169.143 142.468 167.775 150.536 175.943 150.536C183.728 150.536 184.719 142.985 184.789 142.245C188.79 142.691 194.933 144.687 195.776 152.717C195.949 154.305 196.198 156.346 196.511 158.662L193.993 159.006C193.993 159.006 192.97 170.314 190.343 178.337H190.286L174.288 172.731Z" fill="#FF8578"/>
<g style="mix-blend-mode:screen">
<path d="M174.122 171.258L180.513 155.823L175.803 171.883L174.122 171.258Z" fill="#6D4B35"/>
</g>
<path d="M184.796 142.264H181.312C181.312 142.264 176.359 147.691 173.176 147.691C169.993 147.691 171.706 142.296 171.706 142.296H170.153C167.995 142.294 165.913 143.086 164.303 144.518C162.692 145.951 161.667 147.925 161.422 150.064C161.364 150.574 161.313 151.053 161.269 151.486C160.93 154.771 174.263 157.163 174.263 157.163L181.127 156.78L185.294 148.661L186.125 145.338L184.796 142.264Z" fill="#FF8578"/>
<path d="M142.778 278.33C143.085 279.989 144.242 281.169 145.903 280.882L168.082 276.749C168.215 276.725 168.343 276.675 168.457 276.602C168.571 276.528 168.669 276.433 168.746 276.321C168.822 276.21 168.876 276.084 168.904 275.952C168.931 275.819 168.932 275.682 168.906 275.55L168.542 273.585C168.542 273.585 145.22 277.661 142.765 278.337L142.778 278.33Z" fill="#F1F2F2"/>
<path d="M149.374 272.756L150.058 272.157L151.336 271.002L151.975 270.415L153.107 269.408L153.791 268.77L154.692 267.96C154.782 267.886 154.895 267.846 155.011 267.846C155.128 267.846 155.241 267.886 155.331 267.96C156.238 268.725 159.166 270.479 164.522 267.182C164.581 267.143 164.648 267.118 164.717 267.106C164.787 267.095 164.858 267.098 164.927 267.115C164.995 267.132 165.059 267.164 165.115 267.207C165.171 267.25 165.217 267.305 165.251 267.367L168.478 273.56C168.478 273.56 145.156 277.635 142.701 278.311C143.571 277.814 146.549 275.243 149.374 272.756Z" fill="#3D3D7A"/>
<path d="M107.848 278.114C107.887 279.804 108.839 281.149 110.533 281.105L133.082 280.556C133.218 280.554 133.352 280.525 133.476 280.47C133.6 280.416 133.713 280.338 133.806 280.24C133.9 280.142 133.974 280.027 134.023 279.9C134.072 279.774 134.095 279.639 134.092 279.504L134.041 277.508C134.041 277.508 110.392 277.82 107.836 278.101L107.848 278.114Z" fill="#F1F2F2"/>
<path d="M115.25 273.662L116.023 273.177L117.493 272.239L118.228 271.768L119.507 270.958L120.28 270.454L121.303 269.816C121.403 269.753 121.523 269.729 121.64 269.746C121.757 269.764 121.864 269.822 121.942 269.912C122.721 270.811 125.348 273.005 131.145 270.6C131.21 270.573 131.28 270.559 131.351 270.559C131.421 270.559 131.491 270.574 131.555 270.602C131.62 270.63 131.678 270.671 131.726 270.722C131.775 270.773 131.812 270.834 131.836 270.9L134.028 277.527C134.028 277.527 110.379 277.839 107.823 278.12C108.686 277.731 112.06 275.664 115.25 273.662Z" fill="#3D3D7A"/>
<path d="M91.7994 186.539L79.7578 154.484H114.048L126.096 186.539H91.7994Z" fill="black"/>
<path d="M128.218 186.539H126.096L114.048 154.484L115.972 154.567L127.119 183.586L128.218 186.539Z" fill="#8495A0"/>
<path d="M127.547 186.539H150.23L150.167 184.518H127.087" fill="#8495A0"/>
<path d="M224.091 192.656H218.632V282.093H224.091V192.656Z" fill="#8495A0"/>
<path d="M194.479 192.656H189.021V282.093H194.479V192.656Z" fill="#ABB5BA"/>
<path d="M99.6034 192.656H94.1451V282.093H99.6034V192.656Z" fill="black"/>
<path d="M69.9916 192.656H64.5332V282.093H69.9916V192.656Z" fill="#ABB5BA"/>
<path d="M229.549 186.539H59.305C57.84 186.539 56.6525 187.724 56.6525 189.186V190.347C56.6525 191.809 57.84 192.994 59.305 192.994H229.549C231.014 192.994 232.201 191.809 232.201 190.347V189.186C232.201 187.724 231.014 186.539 229.549 186.539Z" fill="#141B56"/>
<path d="M85.4846 157.852L86.0662 159.414H92.8987L92.3171 157.852H85.4846Z" fill="#8495A0"/>
<path d="M153.516 165.422L153.03 166.372L159.939 173.497V171.405L153.516 165.422Z" fill="#E8987C"/>
<path d="M294.627 280.945H18.5656V287.234H294.627V280.945Z" fill="white"/>
<path d="M250.858 234.291C249.759 239.604 250.091 248.648 243.054 250.076C241.137 250.465 239.328 249.151 238.222 247.653C236.784 245.682 236.439 241.523 236.458 239.138C236.458 237.225 237.097 235.152 237.334 233.245C237.558 231.191 237.743 229.131 237.973 227.077C238.842 219.673 242.715 213.467 249.273 209.774C249.778 212.204 250.935 214.239 251.958 216.592C252.43 217.664 252.825 218.768 253.14 219.896C253.677 221.867 253.031 223.863 252.546 225.757C251.855 228.551 251.44 231.459 250.858 234.291Z" fill="url(#paint6_linear)"/>
<path d="M228.577 232.773C229.856 238.047 233.959 246.109 228.181 250.37C226.628 251.518 224.41 251.103 222.774 250.204C220.639 249.03 218.562 245.401 217.578 243.233C216.798 241.511 216.498 239.336 215.878 237.493C215.238 235.535 214.503 233.589 213.858 231.631C211.506 224.552 212.401 217.294 216.779 211.184C218.268 213.174 220.185 214.551 222.096 216.235C222.979 217.006 223.806 217.84 224.57 218.729C225.887 220.291 226.142 222.377 226.487 224.29C227.044 227.148 227.913 229.96 228.577 232.773Z" fill="url(#paint7_linear)"/>
<path d="M240.779 228.678C241.079 235.382 244.224 246.135 236.209 249.987C234.055 251.02 231.46 249.987 229.683 248.533C227.35 246.619 225.676 241.721 224.979 238.857C224.429 236.587 224.564 233.87 224.238 231.523C223.88 228.972 223.477 226.459 223.138 223.92C221.93 214.774 224.691 206.158 231.447 199.742C232.796 202.503 234.809 204.621 236.739 207.115C237.635 208.254 238.446 209.456 239.168 210.712C240.414 212.918 240.242 215.514 240.236 217.925C240.223 221.497 240.619 225.113 240.779 228.678Z" fill="url(#paint8_linear)"/>
<path d="M234.835 250.593C234.758 250.044 234.694 249.489 234.624 248.941C235.628 248.564 236.535 247.967 237.276 247.193C238.498 246.038 239.529 244.697 240.331 243.22C240.376 243.137 240.248 243.067 240.191 243.137C239.326 244.425 238.294 245.594 237.123 246.613C236.359 247.317 235.498 247.907 234.566 248.367C234.49 247.729 234.432 247.047 234.375 246.39C235.391 245.994 236.183 245.063 236.931 244.311C238.162 242.996 239.284 241.584 240.287 240.088C240.287 240.088 240.287 240.057 240.287 240.088C238.606 242.104 236.848 244.814 234.355 245.937C234.291 245.108 234.24 244.272 234.202 243.443V243.316C237.027 241.791 238.472 238.915 240.3 236.421C240.331 236.376 240.299 236.325 240.242 236.364C238.408 238.704 236.784 241.256 234.183 242.825C234.144 241.632 234.113 240.446 234.081 239.259C236.492 237.606 238.424 235.346 239.68 232.709C239.684 232.705 239.687 232.7 239.689 232.695C239.69 232.689 239.691 232.683 239.69 232.677C239.69 232.672 239.688 232.666 239.684 232.661C239.681 232.657 239.677 232.652 239.672 232.649C239.667 232.646 239.661 232.645 239.656 232.644C239.65 232.644 239.644 232.644 239.639 232.647C239.633 232.649 239.628 232.652 239.624 232.656C239.62 232.66 239.617 232.665 239.616 232.671C238.158 235.222 236.279 236.95 234.068 238.749C234.068 237.569 234.01 236.396 233.966 235.222C235.001 234.342 236.151 233.679 237.053 232.671C237.959 231.669 238.651 230.492 239.085 229.214C239.086 229.202 239.082 229.19 239.076 229.18C239.069 229.17 239.059 229.162 239.048 229.158C239.037 229.154 239.024 229.153 239.012 229.156C239.001 229.16 238.99 229.166 238.983 229.176C238.005 231.759 235.877 233.003 233.94 234.731C233.895 233.64 233.831 232.543 233.748 231.453C235.883 229.463 238.261 227.518 239.008 224.552C239.008 224.552 238.97 224.507 238.964 224.552C238.082 227.333 235.736 229.016 233.703 230.93C233.703 230.738 233.672 230.541 233.659 230.349C233.563 229.335 233.461 228.328 233.352 227.32C234.622 226.355 235.797 225.273 236.861 224.086C237.695 223.32 238.36 222.388 238.81 221.35C238.81 221.286 238.727 221.242 238.702 221.312C237.852 223.55 235.218 225.387 233.307 226.88C233.199 225.859 233.083 224.845 232.975 223.825C235.001 221.777 237.609 220.272 238.42 217.3C238.426 217.282 238.425 217.263 238.417 217.246C238.408 217.229 238.393 217.217 238.376 217.211C238.358 217.205 238.338 217.206 238.322 217.215C238.305 217.223 238.292 217.238 238.286 217.255C237.366 220.017 234.867 221.427 232.924 223.346L232.732 221.433C235.071 219.839 237.526 216.924 238.299 214.258C238.302 214.231 238.295 214.203 238.28 214.18C238.266 214.157 238.243 214.14 238.218 214.131C238.192 214.122 238.163 214.122 238.138 214.131C238.112 214.141 238.09 214.158 238.075 214.181C236.967 216.879 235.092 219.194 232.681 220.84C232.585 219.819 232.495 218.793 232.419 217.766C232.425 217.734 232.425 217.702 232.419 217.67C233.475 216.926 234.433 216.052 235.269 215.068C236.341 214.07 237.16 212.833 237.66 211.458C237.711 211.298 237.462 211.235 237.417 211.388C236.778 213.722 234.413 215.776 232.361 217.128C232.361 216.752 232.31 216.375 232.291 215.999C232.291 215.438 232.233 214.876 232.208 214.315C232.968 213.448 234.061 212.848 234.822 211.943C235.456 211.142 236.02 210.288 236.509 209.391C236.52 209.374 236.524 209.352 236.519 209.332C236.514 209.312 236.502 209.294 236.484 209.283C236.466 209.272 236.445 209.269 236.424 209.273C236.404 209.278 236.386 209.291 236.375 209.309C235.71 210.437 234.897 211.473 233.959 212.389C233.409 212.887 232.732 213.263 232.214 213.792L232.042 211.05H232.08C232.109 211.047 232.137 211.038 232.161 211.022C232.186 211.007 232.206 210.986 232.221 210.96C233.39 210.323 234.081 209.009 234.688 207.88C234.688 207.88 234.688 207.829 234.649 207.88C234.02 209.006 233.147 209.978 232.093 210.724H232.042C232.003 209.98 231.952 209.234 231.888 208.486C231.91 208.478 231.93 208.466 231.946 208.451C231.963 208.435 231.977 208.416 231.986 208.396C231.996 208.375 232.001 208.352 232.002 208.33C232.003 208.307 231.999 208.284 231.991 208.263C232.53 207.631 233.012 206.953 233.429 206.234C233.431 206.224 233.431 206.213 233.426 206.203C233.422 206.193 233.415 206.184 233.406 206.178C233.397 206.173 233.386 206.17 233.375 206.171C233.364 206.172 233.354 206.176 233.346 206.183C232.908 206.819 232.404 207.407 231.844 207.937C231.703 206.4 231.505 204.87 231.204 203.345C231.198 203.316 231.18 203.292 231.154 203.276C231.129 203.26 231.099 203.256 231.07 203.262C231.041 203.269 231.016 203.287 231.001 203.312C230.985 203.337 230.98 203.367 230.987 203.396C231.224 204.876 231.371 206.356 231.486 207.861C230.513 207.179 229.634 206.373 228.871 205.463C228.84 205.418 228.756 205.463 228.788 205.514C229.178 206.083 229.638 206.601 230.156 207.057C230.574 207.535 231.031 207.977 231.524 208.377C231.581 209.175 231.62 209.978 231.658 210.782C230.793 210.932 229.902 210.819 229.102 210.457C228.596 210.2 228.146 209.846 227.779 209.414C227.411 208.983 227.133 208.483 226.96 207.944C226.916 207.81 226.698 207.861 226.743 207.995C227.09 209.014 227.764 209.89 228.661 210.488C229.552 211.027 230.598 211.252 231.633 211.126C231.671 212.051 231.703 212.982 231.728 213.907C230.854 213.61 230 213.256 229.172 212.848C227.836 212.249 226.909 211.349 225.695 210.597C225.67 210.581 225.64 210.575 225.612 210.581C225.583 210.587 225.558 210.604 225.542 210.629C225.525 210.653 225.52 210.683 225.526 210.712C225.532 210.741 225.549 210.766 225.573 210.782C226.718 211.515 227.593 212.395 228.84 213.001C229.763 213.515 230.737 213.929 231.748 214.239V214.385C231.725 214.417 231.716 214.456 231.722 214.494C231.728 214.532 231.748 214.567 231.78 214.589C231.78 215.476 231.837 216.363 231.869 217.249C231.869 217.306 231.869 217.364 231.869 217.415C229.683 217.013 226.347 216.197 225.516 213.99C225.509 213.968 225.498 213.947 225.483 213.929C225.467 213.912 225.448 213.898 225.426 213.888C225.405 213.879 225.382 213.875 225.358 213.875C225.335 213.876 225.312 213.882 225.291 213.892C225.27 213.902 225.252 213.917 225.237 213.936C225.223 213.954 225.212 213.975 225.207 213.998C225.202 214.021 225.201 214.044 225.206 214.067C225.211 214.09 225.221 214.112 225.235 214.13C226.462 216.554 229.587 216.981 231.895 217.893C231.946 218.895 232.01 219.896 232.093 220.891C230.716 220.814 229.362 220.501 228.092 219.966C226.928 219.443 225.318 218.856 224.583 217.778C224.583 217.747 224.512 217.778 224.532 217.817C225.235 218.901 226.673 219.405 227.772 219.985C229.091 220.773 230.578 221.238 232.112 221.344C232.11 221.388 232.121 221.433 232.144 221.471C232.195 222.109 232.253 222.747 232.31 223.385C229.881 223.806 226.085 222.843 224.41 221.344C225.594 222.412 227.069 223.104 228.648 223.334C229.849 223.688 231.107 223.813 232.355 223.704C232.47 224.871 232.591 226.044 232.706 227.211C231.575 227.09 230.431 227.179 229.306 227.026C227.669 226.779 226.149 226.033 224.953 224.89C224.877 224.82 224.755 224.922 224.832 224.992C227.146 227.199 229.722 227.371 232.751 227.645C232.847 228.608 232.936 229.558 233.013 230.528C230.629 230.668 227.331 230.024 225.676 228.34C225.554 228.213 225.356 228.398 225.478 228.519C226.576 229.532 227.95 230.198 229.428 230.432C230.463 230.662 231.927 231.115 233.045 230.923C233.045 230.923 233.045 230.981 233.045 231.013C233.154 232.397 233.224 233.787 233.275 235.177C230.565 235.177 228.45 233.71 226.149 232.416C225.989 232.326 225.836 232.562 225.995 232.658C228.354 234.036 230.469 235.56 233.288 235.579C233.326 236.714 233.346 237.843 233.358 238.972C230.927 238.841 228.591 237.983 226.654 236.51C226.519 236.415 226.392 236.625 226.519 236.727C228.493 238.26 230.867 239.192 233.358 239.412C233.358 240.631 233.358 241.842 233.358 243.061C231.045 243.284 228.974 242.321 227.159 240.911C227.114 240.879 227.056 240.949 227.101 240.981C228.744 242.365 231.083 243.858 233.352 243.501C233.352 243.89 233.352 244.279 233.352 244.668C233.352 244.897 233.352 245.14 233.352 245.376C231.576 245.342 229.825 244.947 228.207 244.215C228.2 244.219 228.195 244.224 228.191 244.231C228.187 244.238 228.185 244.245 228.185 244.253C228.185 244.261 228.187 244.268 228.191 244.275C228.195 244.282 228.2 244.287 228.207 244.291C229.824 245.112 231.602 245.569 233.416 245.631C233.416 246.364 233.384 247.117 233.371 247.882C232.906 247.777 232.434 247.704 231.959 247.665C231.129 247.545 230.319 247.315 229.549 246.983C229.472 246.983 229.421 247.072 229.498 247.098C230.173 247.433 230.885 247.69 231.62 247.863C232.214 247.933 232.789 248.061 233.365 248.163C233.32 251.199 233.409 254.394 234.47 257.035C234.707 257.621 235.749 257.526 235.749 256.843C235.685 254.751 235.122 252.64 234.835 250.593Z" fill="#747DED"/>
<path d="M245.202 253.067L244.908 258.521L244.441 267.003L243.681 280.945H224.768L224.008 267.003L223.541 258.521L223.247 253.067H245.202Z" fill="#95A8B5"/>
<path d="M244.908 258.521L244.844 259.611L244.786 260.747L244.441 267.003H224.008L223.662 260.747L223.605 259.611L223.541 258.521H244.908Z" fill="#A5B7C6"/>
<path d="M244.844 259.611L244.786 260.746H223.662L223.605 259.611H244.844Z" fill="#95A8B5"/>
</g>
<defs>
<radialGradient id="paint0_radial" cx="0" cy="0" r="1" gradientUnits="userSpaceOnUse" gradientTransform="translate(176.934 141.913) scale(8.26419 8.24665)">
<stop stop-color="#FFC8AF"/>
<stop offset="1" stop-color="#FFBB9C"/>
</radialGradient>
<radialGradient id="paint1_radial" cx="0" cy="0" r="1" gradientUnits="userSpaceOnUse" gradientTransform="translate(6288.72 1431.84) rotate(-12.125) scale(466.682 586.881)">
<stop stop-color="#FFC8AF"/>
<stop offset="1" stop-color="#FFBB9C"/>
</radialGradient>
<radialGradient id="paint2_radial" cx="0" cy="0" r="1" gradientUnits="userSpaceOnUse" gradientTransform="translate(2569.17 3262.84) scale(89.1684 79.2825)">
<stop stop-color="#FFC8AF"/>
<stop offset="1" stop-color="#FFBB9C"/>
</radialGradient>
<radialGradient id="paint3_radial" cx="0" cy="0" r="1" gradientUnits="userSpaceOnUse" gradientTransform="translate(1752.38 3124.24) scale(71.5132 68.3407)">
<stop stop-color="#FFC8AF"/>
<stop offset="1" stop-color="#FFBB9C"/>
</radialGradient>
<radialGradient id="paint4_radial" cx="0" cy="0" r="1" gradientUnits="userSpaceOnUse" gradientTransform="translate(3646.03 1269.27) scale(681.229 264.301)">
<stop stop-color="#FFC8AF"/>
<stop offset="1" stop-color="#FFBB9C"/>
</radialGradient>
<radialGradient id="paint5_radial" cx="0" cy="0" r="1" gradientUnits="userSpaceOnUse" gradientTransform="translate(9339.36 2664.66) scale(1781.47 604.173)">
<stop stop-color="#FFC8AF"/>
<stop offset="1" stop-color="#FFBB9C"/>
</radialGradient>
<linearGradient id="paint6_linear" x1="243.888" y1="210.18" x2="243.931" y2="250.411" gradientUnits="userSpaceOnUse">
<stop stop-color="#606BF1"/>
<stop offset="1" stop-color="#58479F"/>
</linearGradient>
<linearGradient id="paint7_linear" x1="1487.34" y1="-10636.7" x2="1588.28" y2="-9013.95" gradientUnits="userSpaceOnUse">
<stop stop-color="#606BF1"/>
<stop offset="1" stop-color="#58479F"/>
</linearGradient>
<linearGradient id="paint8_linear" x1="3675.97" y1="-9332.44" x2="3217.44" y2="-7241.32" gradientUnits="userSpaceOnUse">
<stop stop-color="#606BF1"/>
<stop offset="1" stop-color="#58479F"/>
</linearGradient>
<clipPath id="clip0">
<rect width="276.062" height="217.136" fill="white" transform="translate(18.5656 70.0977)"/>
</clipPath>
</defs>
</svg>
