<svg width="314" height="314" viewBox="0 0 314 314" fill="none" xmlns="http://www.w3.org/2000/svg">
<rect width="314" height="314" rx="20" fill="#2A2A2A"/>
<g clip-path="url(#clip0)">
<path d="M277.606 131.998C278.675 103.075 268.274 73.8027 245.362 59.8719C234.053 52.9938 220.844 48.9646 207.572 49.5582C193.385 50.1936 180.015 55.9685 166.631 60.7308C153.247 65.4931 138.781 69.2778 124.985 65.9051C115.003 63.4611 106.223 57.4209 96.3453 54.6696C57.4304 43.8532 23.5448 87.9919 42.5866 123.046C47.2598 131.649 54.4616 138.548 60.5178 146.25C66.5741 153.952 71.6524 163.253 70.8351 173.008C70.1366 181.087 65.5542 188.28 63.6542 196.156C60.0009 211.246 67.2377 227.845 79.7204 237.041C92.2031 246.237 109.107 248.402 124.168 244.617C139.228 240.833 152.521 231.573 162.985 220.108C168.573 213.963 174.043 206.784 182.09 204.696C189.773 202.699 197.765 205.953 205.588 207.448C212.834 208.795 220.279 208.649 227.467 207.019C234.655 205.388 241.433 202.307 247.388 197.965C266.304 183.992 276.635 158.135 277.606 131.998Z" fill="#C6FF00"/>
<path opacity="0.7" d="M277.606 131.998C278.675 103.075 268.274 73.8027 245.362 59.8719C234.053 52.9938 220.844 48.9646 207.572 49.5582C193.385 50.1936 180.015 55.9685 166.631 60.7308C153.247 65.4931 138.781 69.2778 124.985 65.9051C115.003 63.4611 106.223 57.4209 96.3453 54.6696C57.4304 43.8532 23.5448 87.9919 42.5866 123.046C47.2598 131.649 54.4616 138.548 60.5178 146.25C66.5741 153.952 71.6524 163.253 70.8351 173.008C70.1366 181.087 65.5542 188.28 63.6542 196.156C60.0009 211.246 67.2377 227.845 79.7204 237.041C92.2031 246.237 109.107 248.402 124.168 244.617C139.228 240.833 152.521 231.573 162.985 220.108C168.573 213.963 174.043 206.784 182.09 204.696C189.773 202.699 197.765 205.953 205.588 207.448C212.834 208.795 220.279 208.649 227.467 207.019C234.655 205.388 241.433 202.307 247.388 197.965C266.304 183.992 276.635 158.135 277.606 131.998Z" fill="white"/>
<path d="M153.136 292.206C205.298 292.206 247.584 283.752 247.584 273.324C247.584 262.896 205.298 254.442 153.136 254.442C100.973 254.442 58.6877 262.896 58.6877 273.324C58.6877 283.752 100.973 292.206 153.136 292.206Z" fill="#C6FF00"/>
<path opacity="0.5" d="M153.136 292.206C205.298 292.206 247.584 283.752 247.584 273.324C247.584 262.896 205.298 254.442 153.136 254.442C100.973 254.442 58.6877 262.896 58.6877 273.324C58.6877 283.752 100.973 292.206 153.136 292.206Z" fill="white"/>
<path d="M253.402 22.1435H185.303C182.977 22.1435 181.091 24.0287 181.091 26.3542V101.399C181.091 103.724 182.977 105.61 185.303 105.61H253.402C255.729 105.61 257.614 103.724 257.614 101.399V26.3542C257.614 24.0287 255.729 22.1435 253.402 22.1435Z" fill="white" stroke="#263238" stroke-linecap="round" stroke-linejoin="round"/>
<path d="M185.303 22.1435H253.395C254.507 22.1435 255.573 22.5849 256.359 23.3706C257.145 24.1563 257.586 25.222 257.586 26.3332V30.7045H181.091V26.3542C181.088 25.8004 181.195 25.2516 181.406 24.7395C181.616 24.2274 181.927 23.7621 182.318 23.3706C182.71 22.979 183.175 22.669 183.688 22.4583C184.2 22.2477 184.749 22.1407 185.303 22.1435Z" fill="#263238" stroke="#263238" stroke-linecap="round" stroke-linejoin="round"/>
<path d="M185.261 66.7081H216.052" stroke="#263238" stroke-linecap="round" stroke-linejoin="round"/>
<path d="M185.261 70.6814H216.052" stroke="#263238" stroke-linecap="round" stroke-linejoin="round"/>
<path d="M185.261 74.6546H216.052" stroke="#263238" stroke-linecap="round" stroke-linejoin="round"/>
<path d="M185.261 78.6279H216.052" stroke="#263238" stroke-linecap="round" stroke-linejoin="round"/>
<path d="M185.261 82.6081H216.052" stroke="#263238" stroke-linecap="round" stroke-linejoin="round"/>
<path d="M185.261 86.5813H216.052" stroke="#263238" stroke-linecap="round" stroke-linejoin="round"/>
<path d="M185.261 90.5546H216.052" stroke="#263238" stroke-linecap="round" stroke-linejoin="round"/>
<path d="M185.261 94.5278H216.052" stroke="#263238" stroke-linecap="round" stroke-linejoin="round"/>
<path d="M185.261 98.5081H216.052" stroke="#263238" stroke-linecap="round" stroke-linejoin="round"/>
<path d="M221.466 66.7081H252.257" stroke="#263238" stroke-linecap="round" stroke-linejoin="round"/>
<path d="M221.466 70.6814H252.257" stroke="#263238" stroke-linecap="round" stroke-linejoin="round"/>
<path d="M221.466 74.6546H252.257" stroke="#263238" stroke-linecap="round" stroke-linejoin="round"/>
<path d="M221.466 78.6279H252.257" stroke="#263238" stroke-linecap="round" stroke-linejoin="round"/>
<path d="M221.466 82.6081H252.257" stroke="#263238" stroke-linecap="round" stroke-linejoin="round"/>
<path d="M221.466 86.5813H252.257" stroke="#263238" stroke-linecap="round" stroke-linejoin="round"/>
<path d="M221.466 90.5546H252.257" stroke="#263238" stroke-linecap="round" stroke-linejoin="round"/>
<path d="M221.466 94.5278H252.257" stroke="#263238" stroke-linecap="round" stroke-linejoin="round"/>
<path d="M221.466 98.5081H252.257" stroke="#263238" stroke-linecap="round" stroke-linejoin="round"/>
<path d="M205.853 41.5488C206.009 41.0778 206.089 40.5853 206.091 40.0894C206.091 38.2878 204.261 38.1761 202.452 38.1761H201.984V37.7501H209.849V38.1761C207.802 38.1761 207.09 39.4819 206.426 41.4162L202.263 53.9155C201.949 54.8442 201.683 55.5355 200.698 55.5355H200.622L196.926 43.5878L193.476 53.9155C193.154 54.8442 192.889 55.5355 191.911 55.5355H191.827L186.462 38.1691H184.576V37.7432H191.506V38.1691H189.536L193.524 51.8695H193.685L196.661 42.7429L195.264 38.1761H193.378V37.7501H200.279V38.1761H198.316L202.298 51.8765H202.459L205.853 41.5488Z" fill="#C6FF00"/>
<path d="M252.48 33.7909H220.795V62.4206H252.48V33.7909Z" fill="#C6FF00" stroke="#263238" stroke-width="2" stroke-linecap="round" stroke-linejoin="round"/>
<path d="M252.48 45.7595C251.415 45.8197 250.357 45.9668 249.316 46.1994C244.503 47.2469 243.246 54.1529 237.804 54.1529C232.984 54.1529 232.572 47.6658 225.664 46.8279C223.983 46.5616 222.261 46.8665 220.774 47.6938V62.4206H252.459L252.48 45.7595Z" fill="#263238" stroke="#263238" stroke-linecap="round" stroke-linejoin="round"/>
<path d="M231.322 40.3478C231.32 41.0505 231.111 41.737 230.719 42.3206C230.328 42.9041 229.772 43.3586 229.122 43.6266C228.472 43.8945 227.758 43.9639 227.068 43.826C226.379 43.688 225.746 43.349 225.25 42.8516C224.753 42.3543 224.415 41.7209 224.279 41.0317C224.142 40.3424 224.213 39.6281 224.482 38.9791C224.751 38.33 225.207 37.7753 225.792 37.3851C226.376 36.9948 227.063 36.7866 227.766 36.7866C228.234 36.7866 228.697 36.8787 229.129 37.0578C229.56 37.2368 229.953 37.4993 230.283 37.8301C230.613 38.1608 230.875 38.5535 231.053 38.9855C231.231 39.4175 231.323 39.8805 231.322 40.3478Z" fill="white" stroke="#263238" stroke-linecap="round" stroke-linejoin="round"/>
<path d="M253.919 24.6573H183.389V27.3736H253.919V24.6573Z" fill="white" stroke="#263238" stroke-linecap="round" stroke-linejoin="round"/>
<path d="M249.525 122.264H218.986C217.787 122.266 216.637 122.743 215.79 123.592C214.942 124.44 214.466 125.59 214.466 126.789V143.115C214.466 144.313 214.942 145.463 215.79 146.312C216.637 147.16 217.787 147.638 218.986 147.639H219.936C218.993 149.734 217.142 152.946 214.229 154.853C214.229 154.853 220.425 154.42 226.879 147.639H249.525C250.725 147.638 251.874 147.16 252.722 146.312C253.569 145.463 254.045 144.313 254.045 143.115V126.789C254.045 125.59 253.569 124.44 252.722 123.592C251.874 122.743 250.725 122.266 249.525 122.264Z" fill="#263238" stroke="#263238" stroke-linecap="round" stroke-linejoin="round"/>
<path d="M229.003 134.372C229.003 133.912 228.866 133.463 228.611 133.08C228.355 132.698 227.992 132.4 227.567 132.224C227.142 132.048 226.674 132.002 226.223 132.091C225.772 132.181 225.357 132.403 225.032 132.728C224.707 133.053 224.485 133.467 224.395 133.918C224.305 134.369 224.352 134.837 224.528 135.262C224.704 135.687 225.002 136.05 225.384 136.305C225.767 136.561 226.217 136.697 226.677 136.697C227.293 136.695 227.884 136.45 228.319 136.014C228.755 135.579 229.001 134.988 229.003 134.372Z" fill="#C6FF00" stroke="#263238" stroke-linecap="round" stroke-linejoin="round"/>
<path d="M236.91 134.372C236.911 133.91 236.776 133.459 236.52 133.074C236.265 132.69 235.901 132.39 235.475 132.212C235.048 132.035 234.579 131.988 234.126 132.077C233.673 132.166 233.257 132.388 232.93 132.713C232.603 133.039 232.38 133.455 232.289 133.907C232.199 134.36 232.244 134.829 232.421 135.256C232.597 135.683 232.896 136.047 233.28 136.304C233.664 136.56 234.115 136.697 234.577 136.697C235.194 136.696 235.785 136.45 236.222 136.015C236.659 135.579 236.906 134.989 236.91 134.372Z" fill="#C6FF00" stroke="#263238" stroke-linecap="round" stroke-linejoin="round"/>
<path d="M244.838 134.372C244.84 133.91 244.704 133.458 244.448 133.074C244.192 132.689 243.828 132.389 243.401 132.212C242.975 132.034 242.505 131.987 242.052 132.077C241.599 132.167 241.182 132.389 240.856 132.716C240.529 133.042 240.306 133.459 240.217 133.912C240.127 134.365 240.174 134.834 240.351 135.261C240.529 135.687 240.829 136.051 241.213 136.307C241.598 136.563 242.05 136.699 242.512 136.697C243.129 136.695 243.719 136.45 244.155 136.014C244.591 135.579 244.837 134.988 244.838 134.372Z" fill="#C6FF00" stroke="#263238" stroke-linecap="round" stroke-linejoin="round"/>
<path d="M81.6413 32.0452H131.879C133.076 32.0452 134.224 32.5204 135.07 33.3664C135.917 34.2123 136.392 35.3597 136.392 36.5561V71.3726H77.1288V36.5561C77.1288 35.3597 77.6043 34.2123 78.4505 33.3664C79.2968 32.5204 80.4445 32.0452 81.6413 32.0452Z" fill="#C6FF00" stroke="#263238" stroke-linecap="round" stroke-linejoin="round"/>
<path d="M136.399 65.7864H77.1288V71.3866H136.399V65.7864Z" fill="#263238" stroke="#263238" stroke-linecap="round" stroke-linejoin="round"/>
<path d="M133.682 67.6996H79.8391V69.4733H133.682V67.6996Z" fill="white" stroke="#263238" stroke-linecap="round" stroke-linejoin="round"/>
<path d="M106.76 58.0982C111.282 58.0982 114.947 54.4342 114.947 49.9143C114.947 45.3945 111.282 41.7304 106.76 41.7304C102.239 41.7304 98.5737 45.3945 98.5737 49.9143C98.5737 54.4342 102.239 58.0982 106.76 58.0982Z" fill="#263238" stroke="#263238" stroke-linecap="round" stroke-linejoin="round"/>
<path d="M103.065 44.8168L111.902 49.9143L103.065 55.0048V44.8168Z" fill="white" stroke="#263238" stroke-linecap="round" stroke-linejoin="round"/>
<path d="M110.756 85.7224H54.5035C53.4156 85.7224 52.5337 86.604 52.5337 87.6916V109.122C52.5337 110.21 53.4156 111.091 54.5035 111.091H110.756C111.844 111.091 112.726 110.21 112.726 109.122V87.6916C112.726 86.604 111.844 85.7224 110.756 85.7224Z" fill="#263238" stroke="#263238" stroke-linecap="round" stroke-linejoin="round"/>
<path d="M59.7006 89.179L59.994 89.6678C58.6668 90.4079 57.4304 91.7068 57.4304 93.229C57.4134 93.4911 57.449 93.7539 57.5352 94.002C57.6213 94.2501 57.7562 94.4784 57.9319 94.6736C58.1077 94.8688 58.3207 95.0269 58.5585 95.1386C58.7962 95.2502 59.0539 95.3132 59.3164 95.3239C59.512 95.3239 59.6377 95.2261 59.6377 95.0306C59.6377 94.8351 59.5399 94.7722 59.3444 94.7373C59.0812 94.6658 58.8521 94.5027 58.6985 94.2774C58.5448 94.0521 58.4766 93.7794 58.5061 93.5083C58.5102 93.2912 58.5587 93.0772 58.6486 92.8795C58.7385 92.6818 58.8679 92.5045 59.0288 92.3587C59.1898 92.2128 59.3789 92.1014 59.5845 92.0313C59.7901 91.9613 60.0079 91.934 60.2245 91.9512C60.4596 91.9519 60.692 92 60.9081 92.0924C61.1243 92.1848 61.3196 92.3197 61.4825 92.489C61.6454 92.6584 61.7726 92.8588 61.8565 93.0783C61.9404 93.2978 61.9793 93.5319 61.9708 93.7667C61.9674 94.0616 61.9046 94.3528 61.7863 94.623C61.668 94.8932 61.4965 95.1368 61.2821 95.3394C61.0677 95.542 60.8148 95.6994 60.5383 95.8023C60.2618 95.9052 59.9674 95.9515 59.6727 95.9384C59.3055 95.9621 58.9375 95.9085 58.5924 95.781C58.2473 95.6535 57.9329 95.4549 57.6695 95.1982C57.406 94.9414 57.1995 94.6322 57.0633 94.2906C56.927 93.949 56.8641 93.5825 56.8786 93.215C56.8506 91.4484 58.2127 90.0239 59.7006 89.179ZM65.701 89.179L65.9943 89.6678C64.6671 90.4079 63.4307 91.7068 63.4307 93.229C63.4138 93.4905 63.4492 93.7528 63.5349 94.0004C63.6206 94.2481 63.7548 94.4761 63.9298 94.6712C64.1048 94.8663 64.317 95.0245 64.554 95.1366C64.791 95.2487 65.0479 95.3123 65.3098 95.3239C65.5054 95.3239 65.6381 95.2261 65.6381 95.0306C65.6381 94.8351 65.5403 94.7722 65.3447 94.7373C65.081 94.6659 64.8512 94.5031 64.6963 94.278C64.5415 94.0529 64.4718 93.7801 64.4995 93.5083C64.5046 93.2915 64.5537 93.078 64.644 92.8808C64.7342 92.6835 64.8636 92.5067 65.0243 92.361C65.1851 92.2154 65.3738 92.1039 65.579 92.0335C65.7841 91.963 66.0015 91.935 66.2179 91.9512C66.4532 91.952 66.686 92 66.9025 92.0923C67.119 92.1846 67.3147 92.3194 67.4782 92.4886C67.6417 92.6579 67.7695 92.8582 67.8542 93.0778C67.9389 93.2973 67.9787 93.5315 67.9712 93.7667C67.9668 94.0619 67.9032 94.3533 67.7841 94.6235C67.665 94.8937 67.4929 95.1373 67.278 95.3398C67.063 95.5423 66.8096 95.6996 66.5327 95.8024C66.2558 95.9053 65.9611 95.9515 65.666 95.9384C65.2989 95.9621 64.9309 95.9085 64.5858 95.781C64.2407 95.6535 63.9262 95.4549 63.6628 95.1982C63.3994 94.9414 63.1929 94.6322 63.0566 94.2906C62.9204 93.949 62.8575 93.5825 62.8719 93.215C62.851 91.4484 64.2131 90.0239 65.701 89.179Z" fill="#C6FF00"/>
<path d="M71.4498 94.3463H105.699" stroke="white" stroke-linecap="round" stroke-linejoin="round"/>
<path d="M71.4498 97.2861H105.699" stroke="white" stroke-linecap="round" stroke-linejoin="round"/>
<path d="M71.4498 100.233H105.699" stroke="white" stroke-linecap="round" stroke-linejoin="round"/>
<path d="M71.4498 103.173H105.699" stroke="white" stroke-linecap="round" stroke-linejoin="round"/>
<path d="M99.6374 150.424C106.708 149.27 111.504 142.605 110.35 135.537C109.196 128.469 102.529 123.674 95.4583 124.828C88.3878 125.982 83.5915 132.647 84.7456 139.715C85.8996 146.783 92.5669 151.577 99.6374 150.424Z" fill="#263238" stroke="#263238" stroke-linecap="round" stroke-linejoin="round"/>
<path d="M105.777 144.857C109.766 140.316 109.317 133.403 104.775 129.415C100.233 125.427 93.3167 125.875 89.3276 130.416C85.3385 134.957 85.7869 141.87 90.3292 145.858C94.8715 149.846 101.788 149.398 105.777 144.857Z" fill="white" stroke="#263238" stroke-linecap="round" stroke-linejoin="round"/>
<path d="M97.5538 129.714V137.626H102.911" stroke="#263238" stroke-width="2" stroke-linecap="round" stroke-linejoin="round"/>
<path d="M178.688 137.654C178.688 137.654 186.127 153.526 186.127 154.364C186.127 155.202 179.526 158.791 178.269 159.545C177.295 160.1 176.293 160.601 175.265 161.047L176.012 168.434C176.012 168.434 187.377 165.844 192.141 163.253C196.905 160.662 196.738 157.744 195.634 153.393C194.53 149.043 187.196 132.263 187.196 132.263L178.688 137.654Z" fill="white"/>
<g style="mix-blend-mode:multiply" opacity="0.5">
<path d="M192.141 163.218C196.905 160.628 196.738 157.709 195.634 153.358C194.53 149.008 187.196 132.228 187.196 132.228L186.008 132.982L185.624 133.681C185.624 133.681 192.477 150.488 192.889 156.089C193.168 159.852 185.589 164.545 180.581 167.261C184.311 166.249 189.354 164.733 192.141 163.218Z" fill="#C6FF00"/>
</g>
<path d="M178.688 137.654C178.688 137.654 186.127 153.526 186.127 154.364C186.127 155.202 179.526 158.791 178.269 159.545C177.295 160.1 176.293 160.601 175.265 161.047L176.012 168.434C176.012 168.434 187.377 165.844 192.141 163.253C196.905 160.662 196.738 157.744 195.634 153.393C194.53 149.043 187.196 132.263 187.196 132.263L178.688 137.654Z" stroke="#263238" stroke-linecap="round" stroke-linejoin="round"/>
<path d="M125.041 134.149C125.041 134.149 119.606 154.029 119.453 157.541C119.299 161.054 130.231 167.981 130.629 168.4C131.027 168.818 130.007 156.319 130.007 156.319L133.724 138.164L125.041 134.149Z" fill="white"/>
<g style="mix-blend-mode:multiply" opacity="0.5">
<path d="M127.528 135.776L127.402 135.238L125.041 134.149C125.041 134.149 119.606 154.029 119.453 157.541C119.299 161.054 130.231 167.981 130.629 168.399C130.797 168.567 130.734 166.696 130.594 164.384C127.339 161.626 122.666 157.744 122.121 156.11" fill="#C6FF00"/>
</g>
<path d="M125.041 134.149C125.041 134.149 119.606 154.029 119.453 157.541C119.299 161.054 130.231 167.981 130.629 168.4C131.027 168.818 130.007 156.319 130.007 156.319L133.724 138.164L125.041 134.149Z" stroke="#263238" stroke-linecap="round" stroke-linejoin="round"/>
<path d="M150.523 114.178C150.523 114.178 148.428 115.686 144.341 115.853C140.255 116.021 140.059 113.06 134.981 113.095C128.834 113.095 121.108 132.556 121.108 132.556C121.108 132.556 124.957 136.32 128.715 137.905C130.798 138.817 132.988 139.463 135.232 139.826L135.819 152.611H177.27L177.773 139.826L190.723 131.425C190.723 131.425 184.374 120.064 181.279 115.805C178.185 111.545 173.009 113.13 171.416 114.213C169.823 115.295 165.129 115.553 163.397 115.302C161.665 115.05 156.712 113.465 156.712 113.465C156.712 113.465 154.037 111.175 150.523 114.178Z" fill="#C6FF00" stroke="#263238" stroke-linecap="round" stroke-linejoin="round"/>
<path d="M135.651 118.688L135.484 139.909" stroke="#263238" stroke-width="0.5" stroke-linecap="round" stroke-linejoin="round"/>
<path d="M137.153 120.616C137.153 120.616 137.74 130.971 139.912 136.739" stroke="#263238" stroke-width="0.5" stroke-linecap="round" stroke-linejoin="round"/>
<path d="M140.332 137.57C140.808 138.978 141.395 140.346 142.085 141.662" stroke="#263238" stroke-width="0.5" stroke-linecap="round" stroke-linejoin="round"/>
<path d="M138.495 119.443C139.283 123.208 140.401 126.898 141.833 130.469" stroke="#263238" stroke-width="0.5" stroke-linecap="round" stroke-linejoin="round"/>
<path d="M174.511 121.279C174.511 121.279 172.506 129.47 170.753 133.15" stroke="#263238" stroke-width="0.5" stroke-linecap="round" stroke-linejoin="round"/>
<path d="M177.773 139.826L177.689 123.283" stroke="#263238" stroke-width="0.5" stroke-linecap="round" stroke-linejoin="round"/>
<path d="M176.837 123.618C176.837 123.618 175.335 134.093 171.654 139.574" stroke="#263238" stroke-width="0.5" stroke-linecap="round" stroke-linejoin="round"/>
<path d="M175.014 137.486C175.014 137.486 173.344 140.664 172.171 142.332" stroke="#263238" stroke-width="0.5" stroke-linecap="round" stroke-linejoin="round"/>
<path d="M148.197 115.435C148.197 115.435 149.371 122.62 151.04 126.293C152.71 129.966 155.636 130.72 158.144 129.638C160.652 128.555 162.489 123.199 162.335 116.37" stroke="#263238" stroke-width="0.5" stroke-linecap="round" stroke-linejoin="round"/>
<path d="M142.253 100.393C142.253 100.393 140.667 97.6422 139.41 99.0597C138.152 100.477 140.415 103.738 141.666 104.821C142.916 105.903 143.838 105.24 143.761 104.073C143.685 102.907 142.253 100.393 142.253 100.393Z" fill="#C6FF00" stroke="#263238" stroke-linecap="round" stroke-linejoin="round"/>
<path opacity="0.5" d="M142.253 100.393C142.253 100.393 140.667 97.6422 139.41 99.0597C138.152 100.477 140.415 103.738 141.666 104.821C142.916 105.903 143.838 105.24 143.761 104.073C143.685 102.907 142.253 100.393 142.253 100.393Z" fill="white"/>
<path d="M142.253 100.393C142.253 100.393 140.667 97.6422 139.41 99.0597C138.152 100.477 140.415 103.738 141.666 104.821C142.916 105.903 143.838 105.24 143.761 104.073C143.685 102.907 142.253 100.393 142.253 100.393Z" stroke="#263238" stroke-linecap="round" stroke-linejoin="round"/>
<path d="M167.546 100.393C167.546 100.393 169.132 97.6422 170.389 99.0597C171.647 100.477 169.383 103.738 168.133 104.821C166.883 105.903 165.961 105.24 166.037 104.073C166.114 102.907 167.546 100.393 167.546 100.393Z" fill="#C6FF00" stroke="#263238" stroke-linecap="round" stroke-linejoin="round"/>
<path opacity="0.5" d="M167.546 100.393C167.546 100.393 169.132 97.6422 170.389 99.0597C171.647 100.477 169.383 103.738 168.133 104.821C166.883 105.903 165.961 105.24 166.037 104.073C166.114 102.907 167.546 100.393 167.546 100.393Z" fill="white"/>
<path d="M167.546 100.393C167.546 100.393 169.132 97.6422 170.389 99.0597C171.647 100.477 169.383 103.738 168.133 104.821C166.883 105.903 165.961 105.24 166.037 104.073C166.114 102.907 167.546 100.393 167.546 100.393Z" stroke="#263238" stroke-linecap="round" stroke-linejoin="round"/>
<path d="M149.776 113.598C150.561 117.164 151.564 120.678 152.779 124.121C154.288 127.878 157.131 127.878 158.298 125.462C159.464 123.046 160.219 114.01 160.219 114.01C160.219 114.01 152.388 115.099 149.776 113.598Z" fill="white" stroke="#263238" stroke-linecap="round" stroke-linejoin="round"/>
<path d="M142.42 101.315C142.42 101.315 144.593 108.996 148.707 113.514C152.821 118.032 154.295 119.1 156.482 118.772C158.668 118.444 160.994 115.602 164.249 109.695C167.504 103.787 167.742 99.2203 168.014 98.8362C168.287 98.4522 167.316 90.0658 162.664 86.4696C158.011 82.8734 152.8 81.2953 148.288 85.2196C143.775 89.144 140.918 95.5543 142.42 101.315Z" fill="white"/>
<g style="mix-blend-mode:multiply" opacity="0.5">
<path d="M162.643 86.4417C157.962 82.8525 152.779 81.2674 148.267 85.1918C143.754 89.1161 140.918 95.5543 142.42 101.315C142.42 101.315 142.839 102.796 143.65 104.807C143.647 104.549 143.683 104.293 143.754 104.045C144.753 100.882 147.701 94.7583 157.627 97.5654C165.5 99.7929 164.536 106.713 163.802 110.407C163.942 110.155 164.089 109.904 164.228 109.639C167.49 103.71 167.721 99.1645 167.993 98.7804C168.266 98.3963 167.323 90.0379 162.643 86.4417Z" fill="#C6FF00"/>
</g>
<path d="M142.42 101.315C142.42 101.315 144.593 108.996 148.707 113.514C152.821 118.032 154.295 119.1 156.482 118.772C158.668 118.444 160.994 115.602 164.249 109.695C167.504 103.787 167.742 99.2203 168.014 98.8362C168.287 98.4522 167.316 90.0658 162.664 86.4696C158.011 82.8734 152.8 81.2953 148.288 85.2196C143.775 89.144 140.918 95.5543 142.42 101.315Z" stroke="#263238" stroke-linecap="round" stroke-linejoin="round"/>
<path d="M156.461 105.323C156.202 106.954 156.061 108.602 156.041 110.253C156.125 111.922 156.628 112.425 155.874 112.592C155.119 112.76 154.288 111.594 154.288 111.594" stroke="#263238" stroke-linecap="round" stroke-linejoin="round"/>
<path d="M148.099 106.664C148.583 107.014 149.162 107.209 149.759 107.224C150.356 107.239 150.944 107.073 151.445 106.748" stroke="#263238" stroke-linecap="round" stroke-linejoin="round"/>
<path d="M158.717 106.664C159.2 107.013 159.777 107.208 160.373 107.223C160.969 107.238 161.556 107.072 162.056 106.748" stroke="#263238" stroke-linecap="round" stroke-linejoin="round"/>
<path d="M153.436 103.85C153.436 103.85 151.85 99.9185 146.583 101.755" stroke="#263238" stroke-linecap="round" stroke-linejoin="round"/>
<path d="M157.816 103.368C157.816 103.368 159.15 99.5205 163.914 101.776" stroke="#263238" stroke-linecap="round" stroke-linejoin="round"/>
<path d="M154.484 106.985C154.484 109.129 152.011 110.868 148.965 110.868C145.92 110.868 143.454 109.129 143.454 106.985C143.454 104.841 145.752 103.934 148.798 103.934C151.843 103.934 154.484 104.807 154.484 106.985Z" stroke="#263238" stroke-linecap="round" stroke-linejoin="round"/>
<path d="M167.155 106.985C167.155 109.129 164.689 110.868 161.644 110.868C158.598 110.868 156.125 109.129 156.125 106.985C156.125 104.841 158.43 103.934 161.476 103.934C164.522 103.934 167.155 104.807 167.155 106.985Z" stroke="#263238" stroke-linecap="round" stroke-linejoin="round"/>
<path d="M96.7295 173.937L96.3802 258.59C96.3802 258.857 96.4862 259.113 96.6749 259.301C96.8635 259.49 97.1194 259.596 97.3861 259.596C97.647 259.596 97.8977 259.495 98.0853 259.314C98.273 259.133 98.3829 258.886 98.392 258.625L100.802 174.056L96.7295 173.937Z" fill="white" stroke="#263238" stroke-linecap="round" stroke-linejoin="round"/>
<path d="M91.0226 193.726L90.6803 281.243C90.6784 281.375 90.7029 281.506 90.7523 281.629C90.8016 281.752 90.8749 281.863 90.9679 281.958C91.0608 282.052 91.1715 282.127 91.2936 282.178C91.4158 282.229 91.5468 282.255 91.6792 282.255C91.9388 282.255 92.1885 282.155 92.376 281.976C92.5635 281.796 92.6742 281.551 92.685 281.291L95.1089 193.838L91.0226 193.726Z" fill="white" stroke="#263238" stroke-linecap="round" stroke-linejoin="round"/>
<path d="M213.796 173.937L214.145 258.59C214.145 258.857 214.039 259.113 213.85 259.301C213.662 259.49 213.406 259.596 213.139 259.596C212.878 259.596 212.628 259.495 212.44 259.314C212.252 259.133 212.142 258.886 212.133 258.625L209.723 174.056L213.796 173.937Z" fill="white" stroke="#263238" stroke-linecap="round" stroke-linejoin="round"/>
<path d="M219.503 193.726L219.845 281.243C219.846 281.374 219.821 281.505 219.771 281.627C219.721 281.749 219.648 281.86 219.555 281.953C219.462 282.047 219.352 282.121 219.23 282.171C219.108 282.222 218.978 282.248 218.846 282.248C218.586 282.248 218.337 282.148 218.149 281.969C217.962 281.789 217.851 281.544 217.84 281.284L215.43 193.838L219.503 193.726Z" fill="white" stroke="#263238" stroke-linecap="round" stroke-linejoin="round"/>
<path d="M130.734 197.364L130.51 275.042C130.488 275.237 130.543 275.432 130.663 275.587C130.783 275.743 130.959 275.845 131.153 275.873C131.34 275.845 131.51 275.747 131.628 275.6C131.745 275.452 131.803 275.265 131.789 275.077L133.325 197.455L130.734 197.364Z" fill="white" stroke="#263238" stroke-linecap="round" stroke-linejoin="round"/>
<path d="M179.903 194.865L180.085 262.654C180.085 263.045 179.847 263.352 179.547 263.352C179.384 263.33 179.236 263.244 179.135 263.113C179.034 262.983 178.989 262.818 179.009 262.654L177.71 194.92L179.903 194.865Z" fill="white" stroke="#263238" stroke-linecap="round" stroke-linejoin="round"/>
<path d="M129.958 194.865L130.14 262.654C130.14 263.045 129.903 263.352 129.602 263.352C129.439 263.33 129.291 263.244 129.19 263.113C129.09 262.983 129.044 262.818 129.064 262.654L127.765 194.92L129.958 194.865Z" fill="white" stroke="#263238" stroke-linecap="round" stroke-linejoin="round"/>
<path d="M178.492 197.364L178.716 275.042C178.738 275.237 178.683 275.432 178.563 275.587C178.443 275.743 178.267 275.845 178.073 275.873C177.885 275.847 177.715 275.749 177.596 275.601C177.478 275.453 177.421 275.265 177.437 275.077L175.901 197.455L178.492 197.364Z" fill="white" stroke="#263238" stroke-linecap="round" stroke-linejoin="round"/>
<path d="M154.26 202.804C171.428 202.804 185.345 199.625 185.345 195.703C185.345 191.78 171.428 188.601 154.26 188.601C137.093 188.601 123.176 191.78 123.176 195.703C123.176 199.625 137.093 202.804 154.26 202.804Z" fill="white" stroke="#263238" stroke-linecap="round" stroke-linejoin="round"/>
<path d="M139.116 255.986C139.116 255.986 137.482 258.318 138.648 259.477C139.815 260.636 140.974 260.175 140.862 261.341C140.751 262.508 138.879 266.46 137.251 270.65C135.624 274.839 138.997 279.029 142.141 277.87C145.284 276.711 144.935 265.063 145.403 262.968C145.871 260.874 146.213 260.524 146.101 258.548C145.99 256.572 145.864 254.477 144.355 254.24C142.846 254.002 139.815 255.176 139.116 255.986Z" fill="white" stroke="#263238" stroke-linecap="round" stroke-linejoin="round"/>
<path d="M144.125 274.658C142.029 273.862 138.816 274.022 137 274.204C137.607 276.836 139.933 278.687 142.155 277.87C143.077 277.528 143.692 276.285 144.125 274.658Z" fill="#C6FF00" stroke="#263238" stroke-linecap="round" stroke-linejoin="round"/>
<path d="M135.519 250.867C135.519 250.867 138.893 256.572 139.829 258.08C140.765 259.589 143.901 259.128 144.25 257.033C144.6 254.938 142.972 249.121 142.972 249.121L135.987 250.867H135.519Z" fill="white" stroke="#263238" stroke-linecap="round" stroke-linejoin="round"/>
<path d="M127.486 241.789C127.486 241.789 126.557 243.305 127.018 244.352C127.479 245.4 128.764 248.423 129.581 249.938C130.399 251.454 134.122 252.382 138.432 251.684C142.742 250.986 145.179 249.003 145.298 247.257C145.417 245.511 144.6 243.186 144.02 240.393C143.44 237.6 141.924 237.718 139.829 237.718C137.733 237.718 129.232 240.162 127.486 241.789Z" fill="#C6FF00" stroke="#263238" stroke-linecap="round" stroke-linejoin="round"/>
<path d="M140.059 207.573C140.122 204.71 141.778 203.3 141.903 201.338C142.1 198.735 141.888 196.117 141.275 193.58L138.082 189.229C128.925 189.348 122.352 189.502 122.247 189.537C121.897 189.648 121.667 191.631 121.429 193.258C121.429 193.258 117.546 193.754 118.244 204.578C118.342 206.086 122.268 223.543 122.547 225.526C124.293 237.683 128.184 243.773 128.184 243.773C128.184 243.773 128.533 245.288 133.074 244.939C137.614 244.59 142.155 241.566 142.155 241.566C142.155 241.566 139.815 217.929 140.059 207.573Z" fill="#263238" stroke="#263238" stroke-linecap="round" stroke-linejoin="round"/>
<path d="M120.801 191.478C120.801 191.478 115.995 192.176 113.04 195.542C110.085 198.908 112.593 201.128 118.328 200.528C124.063 199.927 130.664 194.069 130.943 193.754C131.223 193.44 124.964 189.495 120.801 191.478Z" fill="white" stroke="#263238" stroke-linecap="round" stroke-linejoin="round"/>
<path d="M129.337 193.608C132.403 193.766 135.446 194.234 138.418 195.004C142.371 196.17 149.357 198.496 150.991 198.496C152.626 198.496 152.151 192.442 152.151 191.282C152.151 190.123 131.195 189.418 128.638 189.418C126.082 189.418 129.337 193.608 129.337 193.608Z" fill="white" stroke="#263238" stroke-linecap="round" stroke-linejoin="round"/>
<path d="M152.165 191.282C152.165 191.282 150.307 192.211 149.608 195.703C148.91 199.194 147.974 201.058 149.371 201.987C150.768 202.916 156.824 203.614 157.753 202.685C158.682 201.757 161.246 197.099 161.714 194.075C162.182 191.052 152.165 191.282 152.165 191.282Z" fill="#C6FF00" stroke="#263238" stroke-linecap="round" stroke-linejoin="round"/>
<path d="M160.072 192.442C158.986 193.683 158.119 195.099 157.508 196.631C157.015 198.234 156.625 199.867 156.342 201.519C158.573 202.13 160.754 202.91 162.866 203.852C166.589 205.479 172.876 206.645 178.932 208.041C184.988 209.438 186.616 210.834 188.712 210.834C190.807 210.834 193.364 209.2 196.626 205.248C199.888 201.296 197.094 192.909 193.832 190.347C190.57 187.784 173.107 185.696 170.78 186.394C168.454 187.093 160.072 192.442 160.072 192.442Z" fill="#263238" stroke="#263238" stroke-linecap="round" stroke-linejoin="round"/>
<path d="M116.4 200.625C115.935 198.537 115.001 196.581 113.669 194.906C113.452 195.109 113.243 195.318 113.04 195.549C110.477 198.461 112.076 200.556 116.4 200.625Z" fill="#C6FF00" stroke="#263238" stroke-linecap="round" stroke-linejoin="round"/>
<path d="M139.703 202.469C139.703 202.469 137.3 228.173 132.396 232.174" stroke="white" stroke-width="0.5" stroke-linecap="round" stroke-linejoin="round"/>
<path d="M138.006 226.867C138.006 226.867 136.099 235.246 131.097 238.577" stroke="white" stroke-width="0.5" stroke-linecap="round" stroke-linejoin="round"/>
<path d="M168.929 197.797C168.929 197.797 161.483 198.265 166.373 201.519C171.262 204.773 180.106 206.875 180.106 206.875" stroke="white" stroke-width="0.5" stroke-linecap="round" stroke-linejoin="round"/>
<path d="M223.044 188.992L220.523 186.729L214.718 174.16C214.441 173.588 214.007 173.106 213.466 172.771C212.926 172.436 212.301 172.262 211.665 172.268H98.7832C98.1472 172.262 97.5226 172.436 96.982 172.771C96.4415 173.106 96.0075 173.588 95.7306 174.16L88.4869 189.83L87.2924 189.383V192.965L87.3553 192.923C87.425 193.402 87.6673 193.838 88.0365 194.151C88.4057 194.463 88.8764 194.63 89.3601 194.62H221.088C221.598 194.632 222.092 194.446 222.468 194.101C222.843 193.755 223.07 193.278 223.1 192.77L223.044 188.992Z" fill="#263238" stroke="#263238" stroke-linecap="round" stroke-linejoin="round"/>
<path d="M221.088 191.338H89.3601C89.0386 191.349 88.7194 191.28 88.4317 191.136C88.1441 190.992 87.897 190.778 87.713 190.514C87.5289 190.251 87.4139 189.945 87.3783 189.626C87.3426 189.306 87.3876 188.983 87.509 188.685L95.7306 170.92C96.0068 170.347 96.4407 169.865 96.9814 169.53C97.522 169.195 98.1471 169.021 98.7832 169.028H211.665C212.301 169.021 212.926 169.195 213.467 169.53C214.008 169.865 214.442 170.347 214.718 170.92L222.94 188.685C223.061 188.983 223.106 189.306 223.07 189.626C223.035 189.945 222.92 190.251 222.736 190.514C222.552 190.778 222.304 190.992 222.017 191.136C221.729 191.28 221.41 191.349 221.088 191.338Z" fill="white" stroke="#263238" stroke-linecap="round" stroke-linejoin="round"/>
<g style="mix-blend-mode:multiply" opacity="0.5">
<path d="M96.031 179.411C96.031 179.411 93.0483 181.464 94.9134 182.205C96.7784 182.945 118.216 182.393 120.822 181.646C123.427 180.899 126.41 174.007 126.41 172.889C126.41 171.772 122.652 170.969 121.269 170.906C119.886 170.843 101.619 171.926 101.619 171.926L96.031 179.411Z" fill="#C6FF00"/>
</g>
<g style="mix-blend-mode:multiply" opacity="0.5">
<path d="M202.668 182.952C206.889 182.952 210.31 181.532 210.31 179.782C210.31 178.031 206.889 176.611 202.668 176.611C198.448 176.611 195.026 178.031 195.026 179.782C195.026 181.532 198.448 182.952 202.668 182.952Z" fill="#C6FF00"/>
</g>
<g style="mix-blend-mode:multiply" opacity="0.5">
<path d="M154.009 186.869C169.143 186.869 181.412 184.574 181.412 181.744C181.412 178.913 169.143 176.618 154.009 176.618C138.874 176.618 126.606 178.913 126.606 181.744C126.606 184.574 138.874 186.869 154.009 186.869Z" fill="#C6FF00"/>
</g>
<path d="M197.094 167.31C197.094 167.31 196.591 165.306 194.922 165.976C193.252 166.647 193.42 171.074 193.755 173.581C194.09 176.088 196.347 174.914 196.347 174.914V173.413C196.347 173.413 195.508 174.111 195.089 173.162C194.67 172.212 194.754 167.645 195.173 167.729C195.592 167.813 196.43 169.237 196.43 169.237C196.43 169.237 196.654 169.07 197.094 167.31Z" fill="#C6FF00" stroke="#263238" stroke-linecap="round" stroke-linejoin="round"/>
<path d="M195.872 167.645V178.629C195.872 179.914 198.84 180.962 202.508 180.962C206.175 180.962 209.137 179.914 209.137 178.629V167.645H195.872Z" fill="#C6FF00" stroke="#263238" stroke-linecap="round" stroke-linejoin="round"/>
<path d="M209.137 167.645C209.137 168.763 206.168 169.663 202.508 169.663C198.847 169.663 195.872 168.763 195.872 167.645C195.872 166.528 198.84 165.627 202.508 165.627C206.175 165.627 209.137 166.535 209.137 167.645Z" fill="white" stroke="#263238" stroke-linecap="round" stroke-linejoin="round"/>
<path d="M208.27 167.645C208.27 168.616 205.693 169.398 202.508 169.398C199.322 169.398 196.738 168.616 196.738 167.645C196.738 166.675 199.322 165.893 202.508 165.893C205.693 165.893 208.27 166.675 208.27 167.645Z" fill="white" stroke="#263238" stroke-linecap="round" stroke-linejoin="round"/>
<path d="M198.058 168.763C200.961 169.61 204.047 169.61 206.95 168.763C204.047 167.916 200.961 167.916 198.058 168.763Z" fill="#263238" stroke="#263238" stroke-linecap="round" stroke-linejoin="round"/>
<path d="M95.2067 172.659L95.2836 176.416L120.605 176.667V172.324L95.2067 172.659Z" fill="white" stroke="#263238" stroke-linecap="round" stroke-linejoin="round"/>
<path d="M120.605 176.667L124.286 168.735V166.395L120.445 173.078L120.605 176.667Z" fill="white" stroke="#263238" stroke-linecap="round" stroke-linejoin="round"/>
<path d="M95.2067 176.088L95.2836 179.844L120.605 180.096V175.752L95.2067 176.088Z" fill="white" stroke="#263238" stroke-linecap="round" stroke-linejoin="round"/>
<path d="M120.605 180.096L124.286 172.156V169.817L120.445 176.5L120.605 180.096Z" fill="white" stroke="#263238" stroke-linecap="round" stroke-linejoin="round"/>
<path d="M104.979 163.134C104.979 163.134 105.566 161.968 104.728 161.466C103.889 160.963 102.974 162.164 102.471 162.548C101.968 162.932 91.4417 169.901 91.1064 170.99C90.7711 172.079 91.1064 174.482 93.3626 174.747C95.6189 175.012 97.6236 173.497 98.6295 173.246C99.6354 172.994 100.027 172.91 100.027 172.91L106.984 163.546L104.979 163.134Z" fill="white" stroke="#263238" stroke-linecap="round" stroke-linejoin="round"/>
<path d="M93.3626 174.719C95.6188 174.97 97.6236 173.469 98.6295 173.218C99.6354 172.966 100.027 172.883 100.027 172.883L100.278 172.54L93.7817 171.228C93.428 170.893 92.9723 170.686 92.4874 170.641C92.0025 170.595 91.5163 170.713 91.1064 170.976C90.7711 172.073 91.1064 174.496 93.3626 174.719Z" fill="white" stroke="#263238" stroke-linecap="round" stroke-linejoin="round"/>
<path d="M93.7817 171.228H113.341C119.439 171.228 121.276 170.892 121.276 170.892L125.041 163.12C125.041 163.12 113.166 163.875 109.492 163.623C107.976 163.58 106.467 163.411 104.979 163.12L93.7817 171.228Z" fill="white" stroke="#263238" stroke-linecap="round" stroke-linejoin="round"/>
<path d="M93.7817 171.228L94.117 172.729C94.117 172.729 109.995 172.813 114.172 172.813C118.349 172.813 121.527 172.98 121.527 172.98L121.276 170.885L93.7817 171.228Z" fill="white" stroke="#263238" stroke-linecap="round" stroke-linejoin="round"/>
<path d="M121.527 172.994L125.034 164.971V163.134L121.276 170.906L121.527 172.994Z" fill="white" stroke="#263238" stroke-linecap="round" stroke-linejoin="round"/>
<path d="M177.94 182.4H130.035C129.93 182.401 129.825 182.381 129.727 182.341C129.629 182.301 129.54 182.242 129.465 182.167C129.39 182.092 129.331 182.003 129.291 181.906C129.251 181.808 129.231 181.703 129.232 181.597C129.231 181.491 129.251 181.387 129.291 181.289C129.331 181.191 129.39 181.102 129.465 181.027C129.54 180.952 129.629 180.893 129.727 180.853C129.825 180.813 129.93 180.793 130.035 180.794H177.919C178.025 180.793 178.13 180.813 178.228 180.853C178.326 180.893 178.415 180.952 178.49 181.027C178.564 181.102 178.623 181.191 178.663 181.289C178.703 181.387 178.724 181.491 178.723 181.597C178.725 181.807 178.643 182.009 178.497 182.16C178.35 182.31 178.15 182.396 177.94 182.4Z" fill="white" stroke="#263238" stroke-linecap="round" stroke-linejoin="round"/>
<path d="M178.345 180.766H129.644C129.465 180.766 129.292 180.698 129.162 180.574C129.032 180.451 128.955 180.282 128.946 180.103L126.291 148.296C126.279 148.197 126.289 148.097 126.318 148.003C126.348 147.908 126.398 147.821 126.464 147.747C126.53 147.673 126.611 147.614 126.702 147.574C126.792 147.533 126.891 147.513 126.99 147.514H181.028C181.127 147.513 181.225 147.533 181.316 147.574C181.407 147.614 181.488 147.673 181.554 147.747C181.62 147.821 181.67 147.908 181.699 148.003C181.729 148.097 181.738 148.197 181.726 148.296L179.072 180.103C179.063 180.287 178.981 180.46 178.845 180.584C178.709 180.708 178.53 180.774 178.345 180.766Z" fill="white" stroke="#263238" stroke-linecap="round" stroke-linejoin="round"/>
<path d="M158.591 164.685C158.591 166.584 156.537 168.12 153.995 168.12C151.452 168.12 149.399 166.584 149.399 164.685C149.399 162.785 151.452 161.256 153.995 161.256C156.537 161.256 158.591 162.792 158.591 164.685Z" fill="white" stroke="#263238" stroke-linecap="round" stroke-linejoin="round"/>
<path d="M206.175 139.805C206.822 139.293 207.303 138.602 207.559 137.819C207.815 137.035 207.834 136.193 207.614 135.398" stroke="#263238" stroke-linecap="round" stroke-linejoin="round"/>
<path d="M200.587 164.74C200.587 164.74 205.239 161.947 203.716 158.756C202.193 155.565 197.08 153.456 197.08 148.477C197.08 144.19 201.641 142.605 204.61 140.887" stroke="#263238" stroke-linecap="round" stroke-linejoin="round"/>
<path d="M204.904 164.65C204.904 164.65 207.495 162.925 207.495 160.188C207.495 158.351 205.525 157.15 202.934 154.196" stroke="#263238" stroke-linecap="round" stroke-linejoin="round"/>
<path d="M201.502 152.416C201.502 152.416 199.804 151.075 201.055 148.568" stroke="#263238" stroke-linecap="round" stroke-linejoin="round"/>
<path d="M162.168 79.2633C162.999 79.0887 164.78 78.4044 165.982 75.6182C166 75.577 166.01 75.5325 166.012 75.4873C166.013 75.4421 166.005 75.3971 165.989 75.3549C165.973 75.3126 165.948 75.2741 165.917 75.2414C165.886 75.2087 165.848 75.1825 165.807 75.1643C165.765 75.1448 165.719 75.1341 165.673 75.1327C165.627 75.1314 165.581 75.1394 165.538 75.1564C165.494 75.1734 165.455 75.1989 165.422 75.2315C165.389 75.2641 165.363 75.303 165.346 75.3459C164.235 77.8946 162.657 78.4602 162.007 78.5859C163.18 77.1637 163.826 75.3806 163.837 73.5373C163.837 68.6912 159.353 64.7668 153.813 64.7668C148.274 64.7668 143.782 68.6912 143.782 73.5373C143.785 75.3082 144.378 77.0278 145.466 78.4253C144.411 78.3695 142.63 78.8164 140.367 81.4489C140.307 81.5207 140.279 81.6127 140.287 81.7053C140.294 81.798 140.338 81.8839 140.408 81.9447C140.443 81.9746 140.483 81.9973 140.527 82.0115C140.57 82.0256 140.616 82.0309 140.662 82.027C140.707 82.0231 140.752 82.0101 140.792 81.9887C140.833 81.9674 140.868 81.9382 140.897 81.9028C143.782 78.544 145.689 79.1096 146.081 79.2633C145.426 79.6219 144.812 80.0504 144.25 80.5411C141.03 83.439 139.067 88.9206 139.319 93.4873C139.601 96.5162 140.7 99.412 142.497 101.867C144.837 100.197 146.776 98.0293 148.176 95.5194C149.219 93.6719 150.152 91.7646 150.97 89.8074C150.97 91.8534 151.243 94.3253 152.311 96.092C153.089 97.4867 154.226 98.6479 155.604 99.4547C156.982 100.261 158.552 100.684 160.149 100.68C160.701 100.689 161.252 100.633 161.79 100.512C161.838 100.501 161.883 100.48 161.922 100.45C161.96 100.419 161.992 100.381 162.014 100.338C164.71 100.91 167.393 100.861 167.805 100.289C168.503 99.3739 169.418 96.5179 169.726 93.0265C170.271 87.105 166.533 81.9656 162.168 79.2633ZM152.926 95.666C151.571 93.4524 151.606 89.8423 151.774 87.7684C151.822 87.6217 151.857 87.531 151.857 87.531C151.923 89.6637 152.468 91.7543 153.451 93.6483C154.434 95.5423 155.83 97.1912 157.536 98.4731C158.48 99.1236 159.526 99.6121 160.631 99.9186C158.933 100.037 155.406 99.7091 152.933 95.666H152.926Z" fill="#263238"/>
<path d="M153.045 84.6959C153.045 84.6959 152.472 88.9275 157.851 93.0754C163.229 97.2232 168.329 95.5892 168.329 95.5892" stroke="white" stroke-width="0.5" stroke-linecap="round" stroke-linejoin="round"/>
<path d="M153.834 83.2435C153.834 83.2435 159.506 91.4902 167.323 89.3325" stroke="white" stroke-width="0.5" stroke-linecap="round" stroke-linejoin="round"/>
<path d="M151.04 80.5342C150.147 80.0807 149.146 79.8813 148.147 79.9576C147.148 80.034 146.189 80.3832 145.375 80.9671C142.357 82.9712 140.856 87.7056 140.856 87.7056" stroke="white" stroke-width="0.5" stroke-linecap="round" stroke-linejoin="round"/>
<path d="M151.18 82.8315C151.18 82.8315 148.742 82.1891 147.24 83.6904C146.512 84.3558 145.892 85.131 145.403 85.9878" stroke="white" stroke-width="0.5" stroke-linecap="round" stroke-linejoin="round"/>
</g>
<defs>
<clipPath id="clip0">
<rect width="240.545" height="270.411" fill="white" transform="translate(37.1311 21.7944)"/>
</clipPath>
</defs>
</svg>
