<svg width="314" height="314" viewBox="0 0 314 314" fill="none" xmlns="http://www.w3.org/2000/svg">
<rect width="314" height="314" rx="20" fill="#2A2A2A"/>
<g clip-path="url(#clip0)">
<path d="M114.414 257.496C127.153 257.496 137.48 256.529 137.48 255.335C137.48 254.142 127.153 253.174 114.414 253.174C101.675 253.174 91.3476 254.142 91.3476 255.335C91.3476 256.529 101.675 257.496 114.414 257.496Z" fill="#C8DBFB"/>
<path d="M232.907 257.496C245.646 257.496 255.973 256.529 255.973 255.335C255.973 254.142 245.646 253.174 232.907 253.174C220.168 253.174 209.841 254.142 209.841 255.335C209.841 256.529 220.168 257.496 232.907 257.496Z" fill="#C8DBFB"/>
<path d="M281.641 103.192C281.575 102.791 281.504 102.396 281.426 101.995" stroke="#C8DBFB" stroke-linecap="round" stroke-linejoin="round"/>
<path d="M280.859 99.6664C276.741 85.6121 263.624 86.9708 251.765 86.9948L41.3901 87.4317C21.5348 87.4676 23.4864 116.223 39.003 116.193C47.9548 116.193 51.3446 133.012 35.8877 133.042C26.6135 133.042 26.339 144.852 32.5516 147.216" stroke="#C8DBFB" stroke-linecap="round" stroke-linejoin="round" stroke-dasharray="3.99 3.99"/>
<path d="M33.6974 147.522C34.0916 147.59 34.491 147.624 34.891 147.623" stroke="#C8DBFB" stroke-linecap="round" stroke-linejoin="round"/>
<path d="M37.3259 147.079C37.4205 147.638 37.3478 148.212 37.1169 148.73C36.886 149.247 36.5073 149.684 36.0288 149.986C35.5502 150.288 34.9933 150.44 34.4282 150.425C33.8632 150.409 33.3156 150.225 32.8544 149.898C32.3933 149.57 32.0394 149.112 31.8375 148.583C31.6356 148.053 31.5948 147.475 31.7201 146.923C31.8455 146.37 32.1314 145.867 32.5418 145.477C32.9521 145.087 33.4685 144.828 34.0257 144.732C34.7734 144.606 35.5407 144.782 36.1593 145.221C36.778 145.661 37.1975 146.329 37.3259 147.079Z" fill="#5193F4"/>
<path d="M284.452 104.455C284.351 105.013 284.086 105.528 283.693 105.936C283.3 106.343 282.795 106.624 282.242 106.744C281.689 106.863 281.113 106.816 280.588 106.607C280.062 106.398 279.609 106.038 279.288 105.571C278.966 105.105 278.79 104.553 278.781 103.986C278.772 103.419 278.931 102.862 279.238 102.385C279.545 101.909 279.986 101.535 280.505 101.31C281.024 101.084 281.598 101.019 282.154 101.121C282.899 101.259 283.558 101.688 283.989 102.312C284.42 102.937 284.586 103.707 284.452 104.455Z" fill="#5193F4"/>
<path d="M66.4613 126.141C66.0405 128.462 65.4561 130.75 64.7127 132.989C63.0339 137.817 61.0403 142.53 58.7448 147.097C57.593 149.491 52.9201 155.07 50.3897 156.129C50.7621 149.478 50.6244 142.809 49.9779 136.179C49.2797 130.073 51.4699 125.447 49.0827 119.784C48.7784 119.06 48.486 118.336 48.1458 117.611C46.9522 114.918 45.7586 112.224 45.4125 109.309C44.935 105.628 46.0749 101.432 49.2498 99.5167C51.5356 98.14 54.5136 98.2119 56.9544 99.2953C59.3711 100.469 61.4101 102.3 62.8388 104.581C67.0164 110.782 67.7683 118.791 66.4613 126.141Z" fill="#5193F4"/>
<path d="M55.355 105.802C60.0339 112.422 60.4337 120.131 60.8396 128.236C61.2309 136.384 59.3149 144.478 55.3133 151.58" stroke="#0B43A4" stroke-linecap="round" stroke-linejoin="round"/>
<path d="M55.1641 227.897C51.8877 224.994 48.5994 222.049 46.1525 218.398C44.0458 215.219 42.6852 211.61 40.847 208.264C39.6534 206.103 38.251 204.02 37.5647 201.644C36.8784 199.268 37.0395 196.466 38.7165 194.659C40.3935 192.851 43.4908 192.486 45.878 193.462C48.2652 194.437 50.0555 196.454 51.4699 198.609C53.3164 201.501 54.5364 204.75 55.0507 208.144C55.5162 211.209 55.4028 214.34 55.8743 217.404C56.3581 220.25 57.2359 223.014 58.4823 225.617C59.5744 228.011 62.3435 232.201 63.0537 234.655C61.0902 235.631 56.5606 229.136 55.1641 227.897Z" fill="#00AD9F"/>
<g style="mix-blend-mode:multiply">
<path d="M43.6997 197.795C46.815 199.16 48.0503 202.889 48.7008 206.235C49.4409 210.042 49.2976 214.166 51.0164 217.608C54.2987 224.138 58.5658 231.566 61.7586 233.769" stroke="#00AD9F" stroke-linecap="round" stroke-linejoin="round"/>
</g>
<path d="M39.0447 218.966C36.3233 217.895 32.6948 217.452 30.9522 219.804C29.496 221.774 30.248 224.563 31.2565 226.802C32.11 228.687 33.1901 230.609 34.9865 231.632C36.254 232.26 37.6336 232.628 39.0447 232.716C42.9544 233.179 46.8884 233.407 50.8254 233.398C55.8144 233.525 60.648 235.165 64.6889 238.103C59.8429 229.076 48.1935 222.594 39.0447 218.966Z" fill="#0056EC"/>
<path d="M34.2763 224.838C37.7377 224.988 41.229 225.227 44.5471 226.215C47.8653 227.203 61.0067 233.236 63.0477 235.792" stroke="#0B43A4" stroke-linecap="round" stroke-linejoin="round"/>
<path d="M68.6934 200.441C66.8997 197.665 64.533 195.309 61.7532 193.529C58.9734 191.75 55.8452 190.59 52.58 190.128C47.7698 189.481 42.8224 190.385 38.0719 189.379C35.5691 188.85 33.203 187.805 31.1231 186.312C29.0432 184.818 27.2946 182.908 25.9879 180.703C24.6812 178.497 23.8446 176.044 23.5312 173.498C23.2177 170.951 23.4341 168.368 24.1667 165.91C25.2827 162.187 27.831 158.661 31.5192 157.464C33.561 156.871 35.7257 156.848 37.7795 157.398C39.6541 157.865 41.4387 158.639 43.0611 159.691C46.7732 162.049 49.775 165.676 52.013 169.531C54.06 173.033 59.1089 178.509 62.5464 182.029C64.5576 184.106 66.0257 185.519 66.0257 185.519C68.4009 188.458 67.2969 196.939 68.6934 200.441Z" fill="#52D2BC"/>
<path d="M30.4449 168.232C42.0048 173.464 54.615 180.323 62.809 190.032" stroke="#00AD9F" stroke-linecap="round" stroke-linejoin="round"/>
<g style="mix-blend-mode:multiply" opacity="0.2">
<path d="M63.919 188.727C63.919 188.727 46.6837 174.721 43.0611 159.691C46.7732 162.049 49.775 165.676 52.013 169.531C54.06 173.033 59.1089 178.509 62.5464 182.029C62.9701 183.915 63.3938 186.117 63.919 188.727Z" fill="#5275A0"/>
</g>
<g style="mix-blend-mode:multiply" opacity="0.2">
<path d="M64.7128 132.989C63.034 137.817 61.0403 142.53 58.7448 147.097C57.593 149.491 52.9202 155.07 50.3898 156.129C50.7621 149.478 50.6244 142.809 49.978 136.179C49.2797 130.074 51.4699 125.447 49.0828 119.784C48.7784 119.06 48.486 118.336 48.1458 117.611C48.3666 117.683 48.5815 117.761 48.7903 117.851C52.7172 119.539 54.5315 123.705 54.8657 127.751C55.1462 131.091 54.5434 134.437 54.0958 137.759C53.8117 139.279 53.7955 140.837 54.0481 142.362C54.0508 142.378 54.0508 142.394 54.0481 142.41C54.1469 142.79 54.3719 143.124 54.6859 143.358C55 143.593 55.3843 143.712 55.7754 143.698C56.1664 143.683 56.5408 143.535 56.8366 143.278C57.1323 143.021 57.3318 142.67 57.4021 142.284L58.4763 136.712C58.7866 135.048 59.1268 133.306 60.4875 132.145C61.0202 131.671 61.7093 131.413 62.4211 131.42C62.9103 131.444 63.3834 131.603 63.7879 131.88C64.1925 132.156 64.5126 132.54 64.7128 132.989Z" fill="#5275A0"/>
</g>
<path d="M63.919 185.195C61.1977 170.944 59.7713 168.747 60.9649 165.179C62.4927 160.624 61.6333 156.045 63.0716 151.466C64.5099 146.887 65.4886 141.979 64.3308 137.31C63.9608 135.838 63.2208 134.234 61.4543 134.168C60.7393 134.167 60.0498 134.434 59.5207 134.916C58.16 136.077 57.8138 137.819 57.5035 139.483L56.4651 145.044C56.3949 145.43 56.1954 145.78 55.8996 146.037C55.6038 146.294 55.2295 146.442 54.8384 146.457C54.4474 146.472 54.063 146.352 53.749 146.118C53.4349 145.884 53.2099 145.549 53.1111 145.169V145.121C52.8565 143.597 52.8706 142.039 53.1529 140.519C53.6005 137.196 54.2032 133.851 53.9287 130.511C53.5945 126.464 51.7803 122.298 47.8474 120.61C46.4501 120.008 44.8939 119.884 43.4192 120.257C39.3192 121.311 38.2569 125.333 38.8597 128.763C39.2775 131.157 40.4114 133.402 41.4319 135.628C43.9265 141.069 42.0943 146.061 42.4405 152.041C43.3834 168.525 63.919 185.195 63.919 185.195Z" fill="#7EE8D4"/>
<path d="M45.6214 124.555C47.6445 134.694 49.6915 144.906 53.6184 154.483C54.7702 157.29 55.3371 160.977 62.0033 168.609" stroke="#00AD9F" stroke-linecap="round" stroke-linejoin="round"/>
<path d="M124.547 127.135C122.452 124.74 120.519 122.292 118.484 119.952C117.165 118.425 115.804 116.959 114.306 115.522C113.572 114.816 112.814 114.134 112.015 113.469C107.283 109.545 102.015 106.32 96.3726 103.892C92.9709 102.432 89.3782 101.229 86.4897 98.9002C83.6013 96.5718 81.5423 92.7589 82.4912 89.1735C83.1895 86.5877 85.3797 84.5766 87.8624 83.6548C90.4163 82.8227 93.1516 82.7252 95.7579 83.3734C103.039 84.9477 109.12 90.1971 113.256 96.4042L113.477 96.7394C116.508 101.378 118.627 106.538 120.471 111.793C121.068 113.481 121.623 115.181 122.178 116.875C123.073 119.407 125.621 124.645 124.547 127.135Z" fill="#5193F4"/>
<path d="M91.2402 89.4669C99.1835 90.9872 104.805 96.2606 110.696 101.815C116.613 107.418 120.83 114.585 122.858 122.49" stroke="#0B43A4" stroke-linecap="round" stroke-linejoin="round"/>
<g style="mix-blend-mode:multiply" opacity="0.2">
<path d="M118.484 119.952C118.412 120.783 118.45 121.621 118.597 122.442C116.61 121.987 115.231 118.892 114.324 115.522C113.604 112.751 113.113 109.924 112.856 107.071C112.589 103.613 112.814 100.134 113.524 96.7394C116.556 101.378 118.675 106.538 120.519 111.793C119.886 113.677 119.345 115.584 118.896 117.516C118.698 118.316 118.561 119.131 118.484 119.952Z" fill="#5275A0"/>
</g>
<path d="M132.264 91.2206C131.595 94.2135 129.793 96.7873 128.212 99.409C127.37 100.786 126.594 102.204 125.866 103.641C123.528 108.242 121.753 113.11 120.579 118.138C120.134 119.743 120.034 121.424 120.286 123.07C116.371 122.178 114.814 111.015 114.545 107.693C114.062 101.679 115.088 95.6398 117.529 90.1253C118.603 87.731 119.982 85.3368 122.112 83.8284C124.243 82.32 127.245 81.7513 129.495 83.0921C130.823 83.9197 131.775 85.2373 132.144 86.7613C132.551 88.2151 132.592 89.7471 132.264 91.2206Z" fill="#52D2BC"/>
<path d="M118.788 119.754C116.353 113.619 117.827 100.636 121.736 92.4776C122.93 90.0235 124.589 87.6891 126.934 86.3423" stroke="#00AD9F" stroke-linecap="round" stroke-linejoin="round"/>
<g style="mix-blend-mode:multiply" opacity="0.2">
<path d="M132.264 91.2207C131.595 94.2135 129.793 96.7873 128.212 99.409C127.37 100.786 126.594 102.204 125.866 103.641C124.774 101.852 124.089 99.8425 123.861 97.757C123.533 94.2793 124.858 90.5742 127.674 88.5032C129.01 87.5758 130.546 86.9789 132.156 86.7614C132.559 88.2161 132.595 89.7481 132.264 91.2207Z" fill="#5275A0"/>
</g>
<path d="M154.852 117.174C154.666 118.317 154.325 119.429 153.838 120.479C152.101 124.249 148.467 127.488 142.994 130.115C142.994 130.115 142.69 124.13 142.63 122.562C142.361 115.726 134.967 111.943 130.288 106.963C127.901 104.419 126.111 101.205 125.765 97.733C125.419 94.2613 126.755 90.5502 129.578 88.4792C131.965 86.7733 135.033 86.3962 137.933 86.6177C142.624 86.9948 147.357 88.964 150.269 92.6392C150.393 92.7757 150.509 92.9196 150.615 93.0702C152.405 95.5183 153.319 98.4992 153.993 101.45C155.169 106.61 155.694 111.961 154.852 117.174Z" fill="#00AD9F"/>
<g style="mix-blend-mode:multiply">
<path d="M131.589 92.1484C136.704 94.8001 141.836 98.0144 144.814 102.959C148.992 109.86 148.067 118.838 144.862 126.231" stroke="#00AD9F" stroke-linecap="round" stroke-linejoin="round"/>
</g>
<path d="M240.492 161.253C243.756 155.866 242.085 148.94 243.225 142.739C244.125 137.928 246.715 133.6 250.524 130.54C252.911 128.649 256.229 127.296 258.915 128.745C259.512 129.05 260.186 129.487 260.747 129.14C260.9 129.017 261.027 128.865 261.12 128.692C261.214 128.519 261.271 128.33 261.29 128.134C261.971 124.782 260.365 121.125 261.678 117.959C262.382 116.265 263.844 114.966 265.39 114.008C268.392 112.094 271.844 111.008 275.398 110.86C276.338 110.762 277.287 110.906 278.156 111.279C279.671 112.039 280.364 113.936 280.161 115.624C279.857 117.307 279.109 118.878 277.994 120.173C274.569 124.668 269.55 128.553 268.887 134.168C268.76 134.875 268.845 135.604 269.132 136.263C269.442 136.861 270.027 137.31 270.356 137.921C271.412 139.866 269.371 142.069 267.372 143.026C265.547 143.9 263.583 144.445 261.571 144.637C260.186 144.768 258.629 144.798 257.686 145.834C255.955 147.725 257.948 150.748 257.584 153.292C257.357 154.878 256.206 156.159 255.054 157.272C252.912 159.337 250.573 161.185 248.071 162.791C246.042 164.096 243.894 165.245 242.103 166.855C240.313 168.465 238.857 170.632 238.737 173.045" fill="#52D2BC"/>
<path d="M244.819 156.021C245.356 153.412 246.567 150.993 247.761 148.617C249.635 144.9 251.551 141.129 254.379 138.082C256.528 135.766 259.154 133.934 261.332 131.654C262.893 130.026 264.215 128.184 265.259 126.183C265.762 125.069 266.371 124.006 267.079 123.01C267.98 121.879 269.222 121.071 270.302 120.101C271.76 118.787 272.924 117.178 273.715 115.379" stroke="#00AD9F" stroke-linecap="round" stroke-linejoin="round"/>
<path d="M287.346 165C286.612 167.837 285.52 170.644 283.646 172.895C282.329 174.424 280.748 175.704 278.979 176.672C278.067 177.189 277.124 177.651 276.156 178.055C272.412 179.63 268.416 180.518 264.358 180.676C258.461 180.898 252.422 179.593 246.74 181.275C244.14 182.058 241.758 183.442 239.788 185.315C238.557 186.471 237.505 187.804 236.667 189.272L237.436 184.363C238.863 179.084 240.319 173.709 243.231 169.082C245.175 166.118 247.5 163.425 250.148 161.073C254.259 157.179 258.918 153.912 263.976 151.376C268.082 149.377 272.641 147.971 277.177 148.527C281.713 149.084 286.129 151.951 287.573 156.309C288.48 159.104 288.086 162.157 287.346 165Z" fill="#5193F4"/>
<path d="M241.292 180.634C245.68 174.162 252.057 169.304 259.452 166.801C264.024 165.275 268.864 164.689 273.495 163.348C278.126 162.007 282.751 159.756 285.466 155.734" stroke="#0B43A4" stroke-linecap="round" stroke-linejoin="round"/>
<path d="M244.144 227.783C244.401 221.199 247.803 215.088 251.939 209.94C255.382 205.648 259.542 201.722 264.68 199.764C266.285 199.166 268.052 198.735 269.723 199.166C271.394 199.597 272.91 201.015 272.94 202.757C272.97 204.212 271.991 205.487 270.964 206.516C267.592 209.91 263.206 212.083 259.136 214.561C252.106 218.823 245.41 224.515 242.635 232.261" fill="#52D2BC"/>
<path d="M246.746 222.007C251.043 212.394 262.162 203.799 269.502 202.727" stroke="#00AD9F" stroke-linecap="round" stroke-linejoin="round"/>
<path d="M241.459 233.033C241.399 231.925 244.998 229.034 245.809 228.292C250.269 224.254 255.546 221.23 261.278 219.427C263.558 218.709 265.981 218.188 268.267 218.739C270.553 219.29 272.641 221.169 272.868 223.641C273.095 226.113 271.484 228.376 269.437 229.537C267.39 230.698 265.002 230.872 262.723 230.734C259.202 230.525 255.74 229.651 252.201 229.675C248.662 229.699 243.703 230.088 241.459 233.033Z" fill="#00AD9F"/>
<g style="mix-blend-mode:multiply">
<path d="M245.123 229.669C252.35 225.742 263.278 223.186 271.215 224.15" stroke="#00AD9F" stroke-linecap="round" stroke-linejoin="round"/>
</g>
<g style="mix-blend-mode:multiply" opacity="0.2">
<path d="M154.852 117.174C154.666 118.317 154.325 119.429 153.838 120.479C150.752 113.855 148.951 106.702 148.532 99.403C148.414 97.0223 149.024 94.6621 150.281 92.6392C150.405 92.7757 150.52 92.9196 150.627 93.0702C152.417 95.5183 153.33 98.4992 154.005 101.45C155.169 106.61 155.694 111.961 154.852 117.174Z" fill="#5275A0"/>
</g>
<path d="M179.852 116.875C185.253 114.948 190.857 113.415 195.762 110.453C197.279 109.604 198.625 108.48 199.731 107.137C200.838 105.773 201.363 104.026 201.193 102.276C200.955 100.528 199.839 98.8524 200.215 97.1225C200.465 95.9853 201.313 95.0994 201.963 94.1297C202.732 92.9743 203.241 91.6642 203.452 90.291C203.663 88.9179 203.573 87.5151 203.187 86.1808C202.339 83.3316 200.203 81.051 199.009 78.3336C198.014 76.1009 197.665 73.6328 198 71.2106C193.471 71.2705 189.335 73.7486 184.871 74.5806C181.463 75.209 177.918 74.8679 174.546 75.646C171.47 76.4108 168.682 78.0597 166.526 80.3903C164.37 82.7209 162.938 85.632 162.408 88.7666C160.973 88.5316 159.502 88.6508 158.123 89.1139C156.744 89.577 155.499 90.3699 154.494 91.4242C153.435 92.5672 152.615 93.9113 152.082 95.3772C151.549 96.8431 151.314 98.4013 151.391 99.9597C152.781 122.364 165.571 134.078 165.571 134.078C165.571 134.078 177.793 117.605 179.852 116.875Z" fill="#7EE8D4"/>
<path d="M167.779 116.714C167.218 111.189 169.145 105.73 171.36 100.636C173.514 95.668 175.991 90.8016 179.321 86.5458C182.651 82.29 186.882 78.6268 191.853 76.5737" stroke="#00AD9F" stroke-linecap="round" stroke-linejoin="round"/>
<path d="M172.607 79.9616C172.052 85.2039 172.428 90.5034 173.717 95.6141" stroke="#00AD9F" stroke-linecap="round" stroke-linejoin="round"/>
<path d="M174.612 93.8543C180.222 90.2629 188.852 88.0542 195.5 88.4313" stroke="#00AD9F" stroke-linecap="round" stroke-linejoin="round"/>
<path d="M160.892 94.7761C167.648 97.6313 167.928 107.591 168.107 110.423" stroke="#00AD9F" stroke-linecap="round" stroke-linejoin="round"/>
<path d="M169.945 104.09C175.113 100.373 182.585 99.2534 188.082 100.636" stroke="#00AD9F" stroke-linecap="round" stroke-linejoin="round"/>
<path d="M184.047 77.4058C182.733 79.036 182.092 81.1098 182.257 83.1999" stroke="#00AD9F" stroke-linecap="round" stroke-linejoin="round"/>
<path d="M183.731 81.7933C186.118 80.5961 189.299 80.2909 192.683 81.1468" stroke="#00AD9F" stroke-linecap="round" stroke-linejoin="round"/>
<path d="M50.8612 92.6273C51.4998 92.5914 55.8265 89.3771 57.4916 88.2937C57.9801 88.0169 58.4131 87.6515 58.7687 87.2163C58.9432 86.9959 59.0571 86.7334 59.099 86.4551C59.1409 86.1768 59.1093 85.8923 59.0074 85.6301C58.8506 85.2296 58.5688 84.8908 58.2042 84.6643C57.8395 84.4377 57.4116 84.3356 56.9843 84.3731C54.8239 84.3731 54.0779 85.0914 53.0276 86.1688C49.5483 89.7781 50.8612 92.6273 50.8612 92.6273Z" fill="#4A49CA"/>
<path d="M70.2629 105.586C72.1428 106.436 74.16 107.286 76.2309 107.023C77.0306 106.921 77.8959 106.556 78.1585 105.826C78.2453 105.493 78.2352 105.143 78.1294 104.816C78.0236 104.489 77.8266 104.2 77.5617 103.982C77.02 103.556 76.383 103.268 75.7057 103.144C73.1992 102.546 69.6781 102.869 67.1895 103.575C68.1549 104.332 69.1831 105.005 70.2629 105.586Z" fill="#4A49CA"/>
<path d="M82.6762 77.6751C81.8347 77.1424 80.8858 76.4301 80.8858 75.4305C80.8858 74.4309 81.9243 73.6707 82.9209 73.6647C83.9269 73.7272 84.8765 74.1524 85.5945 74.8619C88.7635 77.6512 88.3696 80.8475 88.3696 80.8475C88.3696 80.8475 83.6132 78.2677 82.6762 77.6751Z" fill="#4A49CA"/>
<path d="M85.1768 69.1575C84.4104 68.898 83.7376 68.417 83.2432 67.7748C83.1326 67.6178 83.0577 67.4383 83.0236 67.2491C82.9896 67.0598 82.9973 66.8654 83.0462 66.6795C83.2611 66.0809 83.643 65.4823 85.2007 65.7876C90.1242 66.6855 91.1686 70.0674 91.1686 70.0674C91.1686 70.0674 86.4838 69.7202 85.1768 69.1575Z" fill="#4A49CA"/>
<path d="M99.6013 76.6336C101.64 76.4642 103.53 75.494 104.859 73.934C105.359 73.371 105.72 72.6987 105.915 71.9707C106.007 71.6044 106 71.2201 105.896 70.8572C105.791 70.4943 105.592 70.1659 105.319 69.9057C104.947 69.6369 104.5 69.4922 104.041 69.4922C103.583 69.4922 103.136 69.6369 102.764 69.9057C102.043 70.4701 101.483 71.2155 101.141 72.0665C100.616 73.1559 99.6013 76.6336 99.6013 76.6336Z" fill="#4A49CA"/>
<path d="M64.3368 148.863L50.0137 136.179C47.4654 133.922 44.8634 131.606 43.2521 128.607C39.7608 122.161 41.7601 113.787 46.4449 108.166C51.1297 102.546 58.0227 99.2295 64.8918 96.8173C71.7609 94.405 78.9641 92.7111 85.5348 89.5148C89.6527 87.5155 93.8303 84.5287 94.9343 80.0814C95.2751 78.737 95.3157 77.3337 95.0532 75.9717C94.7907 74.6097 94.2316 73.3227 93.4157 72.2026C92.5999 71.0824 91.5475 70.1568 90.3338 69.4917C89.12 68.8267 87.7748 68.4387 86.3942 68.3555" stroke="#0B43A4" stroke-linecap="round" stroke-linejoin="round"/>
<path d="M102.943 72.0665C101.636 76.0949 96.5457 78.543 94.2242 82.0267" stroke="#0B43A4" stroke-linecap="round" stroke-linejoin="round"/>
<path d="M84.6695 76.6695C85.6721 77.729 86.8717 78.6029 87.749 79.7761C89.593 82.2481 89.7482 86.2585 87.0149 88.7545" stroke="#0B43A4" stroke-linecap="round" stroke-linejoin="round"/>
<path d="M58.9179 99.1935C63.2668 102.553 68.5245 104.52 74.0048 104.838" stroke="#0B43A4" stroke-linecap="round" stroke-linejoin="round"/>
<path d="M49.2618 105.131C48.3423 102.23 48.3291 99.1163 49.2241 96.2073C50.119 93.2984 51.8793 90.7334 54.2689 88.8563" stroke="#0B43A4" stroke-linecap="round" stroke-linejoin="round"/>
<path d="M203.479 80.8595C203.339 80.5103 203.294 80.1302 203.348 79.7579C203.403 79.3856 203.555 79.0345 203.789 78.7405C204 78.5259 204.268 78.3768 204.561 78.311C204.855 78.2452 205.16 78.2655 205.442 78.3694C209.62 80.225 209.184 86.7853 209.184 86.7853C209.184 86.7853 205.204 86.2106 203.479 80.8595Z" fill="#4A49CA"/>
<path d="M203.377 93.154C200.656 98.0742 210.312 97.6971 213.786 94.812C213.786 94.812 205.717 88.9221 203.377 93.154Z" fill="#4A49CA"/>
<path d="M215.576 81.2306C214.919 80.3327 214.687 78.9919 215.397 78.136C215.683 77.8343 216.043 77.6126 216.441 77.4929C216.838 77.3733 217.26 77.3597 217.665 77.4536C218.646 77.7147 219.531 78.2552 220.213 79.0099C223.388 82.9724 221.896 86.8511 221.896 86.8511C221.896 86.8511 216.644 82.709 215.576 81.2306Z" fill="#4A49CA"/>
<path d="M253.878 93.4114C253.735 93.0364 253.698 92.629 253.77 92.2341C253.843 91.8391 254.023 91.4719 254.29 91.1728C254.486 91.0121 254.712 90.8923 254.955 90.8203C255.198 90.7484 255.453 90.7258 255.704 90.7538C256.207 90.8109 256.696 90.9568 257.149 91.1847C258.125 91.6391 258.91 92.423 259.369 93.3994C260.562 95.8655 259.751 98.9122 259.751 98.9122C259.751 98.9122 254.463 95.3208 253.878 93.4114Z" fill="#4A49CA"/>
<path d="M241.835 102.438C240.968 101.687 239.91 101.193 238.78 101.009C237.649 100.825 236.49 100.959 235.431 101.396C234.896 101.618 234.429 101.977 234.077 102.438C233.319 103.491 233.581 105.042 234.375 106.077C235.237 107.059 236.325 107.815 237.544 108.28C239.692 109.255 243.022 109.477 245.302 110.034C245.296 110.034 245.29 105.484 241.835 102.438Z" fill="#4A49CA"/>
<path d="M206.487 81.913C207.907 86.5758 211.924 90.0894 216.394 91.9928C220.863 93.8962 225.787 94.3871 230.639 94.7103C235.491 95.0335 240.385 95.1772 245.075 96.4581C249.641 97.6971 254.188 100.289 256.152 104.611C258.539 109.872 256.426 116.157 253.072 120.862C249.718 125.566 245.213 129.349 241.972 134.126C240.486 136.317 239.245 138.884 239.543 141.524C239.943 145.038 242.897 147.623 245.636 149.85" stroke="#0B43A4" stroke-linecap="round" stroke-linejoin="round"/>
<path d="M217.659 80.207C221.045 84.1498 223.263 88.9643 224.062 94.1057" stroke="#0B43A4" stroke-linecap="round" stroke-linejoin="round"/>
<path d="M206.857 93.9681C208.673 94.5362 210.554 94.8681 212.455 94.9557C214.505 94.8437 216.446 93.9935 217.921 92.5615" stroke="#0B43A4" stroke-linecap="round" stroke-linejoin="round"/>
<path d="M257.023 93.7047C258.755 95.3979 259.776 97.6915 259.876 100.115C259.965 102.51 258.64 105.419 257.047 107.208" stroke="#0B43A4" stroke-linecap="round" stroke-linejoin="round"/>
<path d="M239.018 104.581C242.236 107.626 245.659 110.444 249.265 113.014C251.013 114.247 254.475 115.822 256.009 115.409" stroke="#0B43A4" stroke-linecap="round" stroke-linejoin="round"/>
<g style="mix-blend-mode:multiply" opacity="0.2">
<path d="M278.979 176.672C278.067 177.189 277.124 177.651 276.156 178.055C272.412 179.63 268.416 180.518 264.358 180.676C258.462 180.898 252.422 179.593 246.74 181.275C244.14 182.058 241.758 183.442 239.788 185.315C239.591 185.411 239.394 185.519 239.191 185.632C238.72 181.628 248.674 176.408 251.724 175.05C257.216 172.578 263.237 171.524 269.24 171.985C271.854 172.195 274.533 172.709 276.688 174.2C277.618 174.851 278.399 175.694 278.979 176.672Z" fill="#5275A0"/>
</g>
<path d="M269.216 174.385C271.83 174.595 274.509 175.11 276.67 176.6C278.83 178.09 280.346 180.754 279.839 183.334C279.242 186.327 276.156 188.29 273.125 188.661C270.093 189.032 267.067 188.188 264.077 187.59C257.449 186.223 250.648 185.91 243.924 186.662C242.267 186.783 240.654 187.254 239.191 188.045C238.72 184.04 248.68 178.821 251.724 177.462C257.207 174.99 263.22 173.932 269.216 174.385Z" fill="#52D2BC"/>
<path d="M241.781 185.507C246.729 181.149 259.416 178.192 268.392 179.144C271.096 179.431 273.823 180.239 275.9 181.999" stroke="#00AD9F" stroke-linecap="round" stroke-linejoin="round"/>
<path d="M232.549 136.544L280.817 136.442C282.165 136.439 283.5 136.702 284.746 137.217C285.993 137.731 287.126 138.487 288.081 139.441C289.035 140.395 289.794 141.528 290.312 142.776C290.83 144.024 291.098 145.362 291.1 146.714C291.105 149.442 290.029 152.06 288.11 153.992C286.191 155.925 283.585 157.015 280.865 157.021L247.845 157.087" stroke="#0B43A4" stroke-linecap="round" stroke-linejoin="round" stroke-dasharray="4 4"/>
<path d="M86.4897 172.093L52.7292 172.165C51.9664 172.166 51.2115 172.319 50.5078 172.614C49.8041 172.909 49.1655 173.341 48.6287 173.884C48.0919 174.428 47.6674 175.072 47.3797 175.781C47.092 176.489 46.9467 177.248 46.9522 178.013V178.013C46.9538 178.775 47.1051 179.53 47.3974 180.234C47.6898 180.937 48.1175 181.577 48.6562 182.115C49.1948 182.653 49.8339 183.079 50.5368 183.369C51.2397 183.66 51.9928 183.808 52.753 183.807H62.5941" stroke="#0B43A4" stroke-linecap="round" stroke-linejoin="round" stroke-dasharray="4 4"/>
<path d="M32.6053 198.316C21.0216 198.364 20.8008 215.638 35.5117 215.608L252.374 215.16C261.481 215.16 262.442 200.896 251.181 200.92C228.789 200.968 228.043 190.253 240.474 190.229" stroke="#C8DBFB" stroke-linecap="round" stroke-linejoin="round" stroke-dasharray="4 4"/>
<path d="M35.3088 197.831C35.4048 198.39 35.3332 198.965 35.1031 199.484C34.873 200.002 34.4947 200.44 34.0161 200.743C33.5376 201.046 32.9803 201.199 32.4147 201.184C31.8492 201.168 31.3009 200.985 30.8393 200.657C30.3776 200.329 30.0234 199.871 29.8214 199.341C29.6194 198.811 29.5787 198.233 29.7046 197.68C29.8304 197.127 30.1171 196.623 30.5283 196.234C30.9395 195.844 31.4567 195.585 32.0145 195.491C32.7606 195.364 33.5264 195.539 34.1439 195.978C34.7615 196.417 35.1804 197.083 35.3088 197.831Z" fill="#5193F4"/>
<path d="M246.012 190.307C246.107 190.866 246.034 191.441 245.803 191.958C245.572 192.475 245.194 192.913 244.715 193.214C244.237 193.516 243.68 193.669 243.115 193.653C242.55 193.637 242.002 193.454 241.541 193.126C241.08 192.798 240.726 192.341 240.524 191.811C240.322 191.282 240.281 190.704 240.407 190.151C240.532 189.598 240.818 189.095 241.228 188.705C241.639 188.315 242.155 188.056 242.712 187.961C243.082 187.896 243.462 187.906 243.829 187.989C244.195 188.073 244.542 188.228 244.849 188.446C245.155 188.664 245.416 188.941 245.616 189.26C245.815 189.579 245.95 189.935 246.012 190.307Z" fill="#0B43A4"/>
<g style="mix-blend-mode:multiply" opacity="0.2">
<path d="M249.14 240.329L69.5706 240.7C68.421 240.702 67.3177 240.246 66.5031 239.432C65.6885 238.619 65.2292 237.514 65.226 236.361L64.9813 117.049C64.9797 116.477 65.0904 115.911 65.307 115.383C65.5236 114.854 65.8419 114.373 66.2436 113.968C66.6454 113.563 67.1228 113.241 67.6486 113.021C68.1744 112.801 68.7383 112.687 69.3081 112.685L248.877 112.314C249.446 112.313 250.011 112.424 250.537 112.641C251.064 112.858 251.543 113.177 251.946 113.581C252.35 113.984 252.67 114.462 252.889 114.99C253.108 115.517 253.221 116.083 253.222 116.654L253.472 235.972C253.472 237.125 253.016 238.232 252.204 239.049C251.392 239.866 250.29 240.326 249.14 240.329Z" fill="#5275A0"/>
</g>
<path d="M245.625 238.049L66.0556 238.42C64.9059 238.421 63.8026 237.965 62.988 237.152C62.1734 236.338 61.7141 235.233 61.7109 234.08L61.4662 114.768C61.4631 113.616 61.9155 112.51 62.7243 111.692C63.5332 110.874 64.6324 110.411 65.781 110.405L245.35 110.034C245.92 110.033 246.484 110.145 247.011 110.363C247.537 110.58 248.016 110.9 248.42 111.304C248.823 111.707 249.143 112.187 249.362 112.714C249.581 113.242 249.694 113.808 249.695 114.379L249.951 233.679C249.954 234.251 249.844 234.818 249.627 235.347C249.411 235.877 249.093 236.358 248.691 236.764C248.289 237.169 247.812 237.492 247.285 237.712C246.759 237.933 246.195 238.047 245.625 238.049Z" fill="white"/>
<path d="M245.069 110.034L66.2704 110.405C65.6492 110.406 65.0344 110.531 64.4611 110.771C63.8879 111.011 63.3674 111.362 62.9296 111.804C62.4917 112.246 62.145 112.77 61.9092 113.346C61.6735 113.923 61.5534 114.54 61.5557 115.163V119.281L249.796 118.892V114.762C249.793 113.507 249.294 112.304 248.407 111.418C247.521 110.531 246.321 110.034 245.069 110.034Z" fill="#0056EC"/>
<path d="M66.4852 238.42L93.502 238.366L93.2335 119.204L61.496 119.269L61.7527 233.679C61.7519 234.303 61.8738 234.92 62.1114 235.496C62.349 236.072 62.6977 236.595 63.1374 237.035C63.5771 237.476 64.0992 237.825 64.6737 238.062C65.2482 238.3 65.8638 238.421 66.4852 238.42Z" fill="#C8DBFB"/>
<path d="M245.416 111.231C246.248 111.232 247.046 111.564 247.636 112.154C248.225 112.744 248.558 113.544 248.561 114.379L248.805 233.679C248.806 234.093 248.726 234.504 248.568 234.887C248.411 235.27 248.18 235.618 247.888 235.912C247.597 236.205 247.251 236.438 246.869 236.597C246.488 236.757 246.079 236.839 245.666 236.84L66.0913 237.211C65.2593 237.211 64.4611 236.88 63.8716 236.291C63.2822 235.702 62.9494 234.903 62.9462 234.068L62.7016 114.762C62.7031 113.927 63.034 113.125 63.622 112.533C64.21 111.941 65.0075 111.607 65.8407 111.602L245.416 111.231ZM245.416 110.034L65.8467 110.405C65.2769 110.406 64.713 110.52 64.1872 110.741C63.6614 110.961 63.184 111.282 62.7822 111.688C62.3805 112.093 62.0622 112.573 61.8456 113.102C61.629 113.631 61.5183 114.197 61.5199 114.768L61.7646 234.08C61.7678 235.232 62.2263 236.336 63.0396 237.15C63.8529 237.963 64.9547 238.42 66.1033 238.42L245.672 238.049C246.242 238.049 246.807 237.936 247.333 237.717C247.859 237.498 248.338 237.177 248.74 236.772C249.143 236.367 249.462 235.886 249.679 235.358C249.896 234.829 250.007 234.263 250.005 233.691L249.76 114.379C249.759 113.808 249.646 113.242 249.428 112.714C249.209 112.187 248.889 111.707 248.485 111.304C248.082 110.9 247.603 110.58 247.076 110.363C246.55 110.145 245.985 110.033 245.416 110.034Z" fill="#0056EC"/>
<path d="M88.9378 225.766L68.1217 225.81C67.2021 225.812 66.4582 226.561 66.4602 227.483L66.4606 227.687C66.4625 228.609 67.2095 229.355 68.1291 229.353L88.9452 229.309C89.8648 229.307 90.6087 228.558 90.6068 227.636L90.6063 227.432C90.6044 226.51 89.8574 225.764 88.9378 225.766Z" fill="white"/>
<path d="M86.3871 124.578L68.6683 124.615C66.9841 124.619 65.6216 125.991 65.6251 127.68L65.6622 145.452C65.6658 147.141 67.034 148.507 68.7182 148.504L86.437 148.467C88.1212 148.463 89.4837 147.091 89.4802 145.402L89.4431 127.63C89.4395 125.941 88.0713 124.574 86.3871 124.578Z" fill="white"/>
<path d="M162.319 197.09L100.563 197.22C99.3635 197.222 98.3929 198.2 98.3954 199.403L98.396 199.672C98.3985 200.876 99.3731 201.849 100.573 201.847L162.329 201.717C163.529 201.714 164.499 200.737 164.497 199.534L164.496 199.264C164.494 198.061 163.519 197.088 162.319 197.09Z" fill="#C8DBFB"/>
<path d="M158.594 126.805H109.794C108.595 126.805 107.622 127.781 107.622 128.984V129.253C107.622 130.457 108.595 131.432 109.794 131.432H158.594C159.794 131.432 160.767 130.457 160.767 129.253V128.984C160.767 127.781 159.794 126.805 158.594 126.805Z" fill="#C8DBFB"/>
<path d="M235.895 176.022L170.827 176.158C169.627 176.161 168.657 177.138 168.659 178.342L168.66 178.611C168.663 179.814 169.637 180.788 170.837 180.785L235.905 180.649C237.105 180.646 238.075 179.669 238.073 178.465L238.072 178.196C238.07 176.993 237.095 176.019 235.895 176.022Z" fill="#C8DBFB"/>
<path d="M162.333 206.661L100.577 206.791C99.3775 206.793 98.4069 207.771 98.4095 208.974L98.41 209.244C98.4125 210.447 99.3871 211.42 100.587 211.418L162.343 211.288C163.543 211.285 164.513 210.308 164.511 209.105L164.51 208.835C164.508 207.632 163.533 206.659 162.333 206.661Z" fill="#C8DBFB"/>
<path d="M162.359 216.226L100.603 216.356C99.4034 216.358 98.4329 217.336 98.4354 218.539L98.436 218.809C98.4385 220.012 99.4131 220.985 100.613 220.983L162.369 220.853C163.569 220.85 164.539 219.873 164.537 218.67L164.536 218.4C164.533 217.197 163.559 216.224 162.359 216.226Z" fill="#C8DBFB"/>
<path d="M234.517 193.084L172.277 193.214C170.296 193.219 168.694 194.833 168.698 196.819L168.754 223.629C168.758 225.616 170.367 227.223 172.348 227.219L234.588 227.088C236.568 227.084 238.171 225.47 238.167 223.483L238.111 196.673C238.107 194.687 236.497 193.079 234.517 193.084Z" fill="#C8DBFB"/>
<path d="M71.8802 114.744C71.8814 115.046 71.7932 115.342 71.6267 115.594C71.4602 115.846 71.2229 116.042 70.9449 116.159C70.667 116.275 70.3608 116.306 70.0652 116.248C69.7696 116.19 69.4979 116.045 69.2845 115.832C69.071 115.618 68.9255 115.346 68.8663 115.05C68.8071 114.754 68.8369 114.447 68.9519 114.168C69.0669 113.888 69.2619 113.65 69.5123 113.482C69.7627 113.314 70.0572 113.224 70.3584 113.224C70.5582 113.222 70.7563 113.261 70.9413 113.336C71.1262 113.412 71.2944 113.524 71.4359 113.665C71.5775 113.807 71.6896 113.975 71.7659 114.16C71.8422 114.345 71.881 114.544 71.8802 114.744Z" fill="#C8DBFB"/>
<path d="M76.8038 116.259C77.6443 116.259 78.3256 115.575 78.3256 114.732C78.3256 113.889 77.6443 113.206 76.8038 113.206C75.9633 113.206 75.282 113.889 75.282 114.732C75.282 115.575 75.9633 116.259 76.8038 116.259Z" fill="#C8DBFB"/>
<path d="M84.765 114.714C84.7662 115.016 84.6781 115.312 84.5118 115.563C84.3456 115.815 84.1087 116.012 83.8311 116.128C83.5534 116.245 83.2476 116.276 82.9521 116.218C82.6567 116.161 82.385 116.016 82.1713 115.804C81.9576 115.591 81.8116 115.32 81.7518 115.024C81.6919 114.728 81.7208 114.421 81.8349 114.142C81.949 113.862 82.1431 113.623 82.3927 113.455C82.6423 113.286 82.9362 113.195 83.2372 113.194C83.6403 113.194 84.0271 113.354 84.3133 113.639C84.5995 113.923 84.7618 114.31 84.765 114.714Z" fill="#C8DBFB"/>
<path d="M105.384 129.401C105.626 126.977 103.863 124.815 101.446 124.572C99.0292 124.329 96.8735 126.098 96.6314 128.522C96.3893 130.946 98.1525 133.108 100.57 133.351C102.987 133.594 105.142 131.825 105.384 129.401Z" fill="#C8DBFB"/>
<path d="M87.4744 150.586H67.9891C67.5376 150.586 67.1715 150.954 67.1715 151.406V151.514C67.1715 151.967 67.5376 152.334 67.9891 152.334H87.4744C87.926 152.334 88.292 151.967 88.292 151.514V151.406C88.292 150.954 87.926 150.586 87.4744 150.586Z" fill="white"/>
<path d="M87.6843 154.186L68.199 154.227C67.7475 154.228 67.3822 154.596 67.3832 155.049L67.3834 155.157C67.3843 155.609 67.7511 155.976 68.2027 155.975L87.6879 155.934C88.1395 155.933 88.5048 155.565 88.5038 155.112L88.5036 155.004C88.5026 154.552 88.1358 154.185 87.6843 154.186Z" fill="white"/>
<path d="M109.991 163.821L104.483 163.875L104.525 187.027H99.7505C99.3516 187.028 98.9564 186.95 98.5876 186.797C98.2187 186.645 97.8834 186.421 97.6008 186.139C97.3181 185.857 97.0937 185.521 96.9403 185.152C96.787 184.782 96.7076 184.386 96.7068 183.986L96.6173 141.171C96.6173 140.354 96.9403 139.571 97.5154 138.993C98.0905 138.415 98.8707 138.09 99.6848 138.088H109.914L109.991 163.821Z" fill="#C8DBFB"/>
<path d="M145.751 138.005V138.603C146.543 138.603 147.302 138.918 147.861 139.48C148.421 140.041 148.735 140.802 148.735 141.596L148.825 183.34C148.825 184.134 148.51 184.895 147.951 185.456C147.391 186.017 146.632 186.333 145.841 186.333L100.323 186.428C99.532 186.428 98.773 186.113 98.2134 185.552C97.6538 184.991 97.3394 184.229 97.3394 183.436L97.2499 141.692C97.2499 140.898 97.5643 140.137 98.1239 139.575C98.6835 139.014 99.4425 138.699 100.234 138.699L145.739 138.603V138.005H145.751ZM145.739 138.005L100.228 138.1C99.2782 138.1 98.3675 138.479 97.6959 139.152C97.0244 139.826 96.6472 140.739 96.6472 141.692L96.7367 183.436C96.7367 184.388 97.1139 185.302 97.7855 185.975C98.457 186.649 99.3677 187.027 100.317 187.027L145.829 186.931C146.778 186.931 147.689 186.553 148.361 185.879C149.032 185.206 149.41 184.292 149.41 183.34L149.332 141.596C149.332 140.643 148.955 139.73 148.283 139.056C147.612 138.383 146.701 138.005 145.751 138.005H145.739Z" fill="#C8DBFB"/>
<path d="M230.131 135.049L169.424 121.283C167.492 120.845 165.571 122.061 165.134 123.998L158.303 154.305C157.866 156.243 159.078 158.169 161.01 158.607L221.717 172.373C223.649 172.812 225.57 171.596 226.007 169.658L232.838 139.351C233.275 137.413 232.063 135.487 230.131 135.049Z" fill="#C8DBFB"/>
<path d="M104.244 254.785L95.752 254.803L93.6692 243.945L106.279 243.921L104.244 254.785Z" fill="#0056EC"/>
<path d="M96.0205 243.945C96.0205 244.83 95.8534 246.339 96.4442 246.339C97.035 246.339 96.7904 244.926 97.4588 244.962C97.8885 244.962 97.2559 249.679 98.8732 249.793C99.9892 249.87 99.7863 247.494 99.8997 246.004C99.8956 245.829 99.9571 245.66 100.072 245.529C100.187 245.398 100.347 245.315 100.52 245.297C100.693 245.279 100.866 245.327 101.006 245.431C101.145 245.535 101.24 245.688 101.272 245.86C101.272 246.608 101.236 247.105 101.272 247.955C101.332 249.368 103.504 248.996 103.427 247.099C103.349 245.202 103.427 243.927 103.427 243.927L96.0205 243.945Z" fill="#C8DBFB"/>
<path d="M93.9914 250.499C93.8209 250.5 93.6508 250.482 93.4841 250.445C93.2054 250.396 92.9421 250.282 92.716 250.111C92.4898 249.94 92.3072 249.718 92.1831 249.463C91.3178 247.626 93.5975 244.172 93.6871 244.022L93.8004 244.621C93.8004 244.657 91.8012 247.614 92.6069 249.278C92.702 249.475 92.8435 249.646 93.0191 249.777C93.1948 249.907 93.3995 249.993 93.6154 250.026C93.7563 250.058 93.9007 250.072 94.0451 250.068C97.1007 250.068 102.329 244.346 102.4 244.28C102.615 244.022 102.997 244.28 102.872 244.483C102.591 244.777 97.2797 250.493 93.9914 250.499Z" fill="#0C2340"/>
<g style="mix-blend-mode:multiply" opacity="0.2">
<path d="M183.248 102.067C171.175 101.606 154.554 110.56 160.45 132.456C160.325 134.305 161.429 135.628 162.605 135.263C163.78 134.898 162.742 131.396 162.742 131.396C164.753 115.115 168.513 112.302 174.899 112.356H189.872C193.572 112.907 200.298 115.498 201.307 128.517L205.037 129.212C205.323 119.778 203.043 102.827 183.248 102.067Z" fill="#5275A0"/>
</g>
<path d="M183.248 100.163C171.175 99.6964 154.554 108.651 160.45 130.546L162.742 129.487C164.753 113.212 168.513 110.393 174.899 110.453H189.872C193.572 110.997 200.477 114.289 201.486 127.32H205.037C205.323 117.875 203.043 100.923 183.248 100.163Z" fill="#EF832B"/>
<path d="M180.777 100.516L178.987 104.473C178.987 104.473 179.201 106.694 181.374 106.652C183.546 106.61 183.85 105.586 183.85 105.586L184.131 101.049L180.777 100.516Z" fill="#FFB9A3"/>
<path d="M189.997 97.2063C187.95 100.834 187.049 101.959 184.376 102.504C180.914 103.21 177.029 100.87 178.837 95.0993C180.306 90.3946 182.532 91.1189 184.716 91.2984C186.9 91.478 192.206 93.3036 189.997 97.2063Z" fill="#FFB9A3"/>
<path d="M181.869 94.3631C181.586 94.2464 181.273 94.2223 180.975 94.2943C180.677 94.3663 180.409 94.5307 180.21 94.7641C179.986 94.9887 179.826 95.2688 179.745 95.5758C179.664 95.8829 179.666 96.2059 179.751 96.5119C179.332 96.5367 178.941 96.7261 178.662 97.0388C178.382 97.3516 178.237 97.7625 178.259 98.1819C177.662 96.8471 177.996 95.4525 177.883 94.0818C177.769 92.7111 177.918 91.2266 178.802 90.1791C179.174 89.7566 179.624 89.4093 180.126 89.1556C181.075 88.6604 182.126 88.3944 183.195 88.3788C184.265 88.3632 185.323 88.5985 186.285 89.0658C187.112 89.5852 188.107 89.7613 189.06 89.5566C191.692 88.9162 193.238 90.7059 191.651 92.3818C192.185 92.4982 192.652 92.8207 192.952 93.2797C192.985 93.3412 193.003 93.4102 193.003 93.4802C193.003 93.5503 192.985 93.6192 192.952 93.6807C192.886 93.7537 192.801 93.8058 192.707 93.8304C192.261 93.9794 191.786 94.0164 191.322 93.9381C191.495 94.0937 192.474 94.1476 192.773 94.7222C193.56 96.2426 190.445 95.4704 189.968 95.3208C190.511 95.4226 191.931 96.5598 191.477 97.344C191.388 97.4996 189.466 98.6189 187.449 96.2665C187.01 95.6957 186.415 95.2652 185.736 95.0275C185.176 94.9432 184.603 95.033 184.095 95.2849C183.707 95.4285 182.723 96.0331 182.442 95.674C182.162 95.3148 182.502 94.6744 181.869 94.3631Z" fill="#0C2340"/>
<path d="M201.85 127.296C201.319 129.146 200.776 129.325 201.426 129.619C202.077 129.912 202.62 128.882 202.62 128.882L205.604 129.481C205.604 129.481 204.929 127.53 204.458 127.296C203.986 127.063 201.85 127.296 201.85 127.296Z" fill="#FFB9A3"/>
<path d="M162.742 129.487C163.136 130.463 163.243 130.469 163.786 131.642C164.831 133.88 162.39 137.418 160.874 133.557C160.596 132.584 160.453 131.577 160.45 130.564L162.742 129.487Z" fill="#FFB9A3"/>
<path d="M186.136 89.383C187.288 89.4908 188.374 89.0897 189.502 88.97C190.487 88.8623 191.645 89.0119 192.271 89.8619C192.426 90.0654 192.755 89.8918 192.617 89.6643C192.334 89.2356 191.935 88.8958 191.467 88.684C191 88.4723 190.482 88.3971 189.974 88.4672C188.678 88.557 187.449 89.1077 186.136 89.0179C185.915 89.0179 185.921 89.3351 186.136 89.3591V89.383Z" fill="#0C2340"/>
<path d="M186.96 88.2278C185.665 88.5391 184.37 87.8507 183.063 87.9884C181.838 88.1551 180.695 88.6988 179.792 89.5447C179.577 89.7422 179.858 90.1433 180.103 89.9517C181.117 89.2574 182.203 88.569 183.474 88.5571C184.746 88.5451 185.862 89.1017 187.055 88.6588C187.112 88.6429 187.161 88.605 187.19 88.5534C187.219 88.5017 187.226 88.4406 187.21 88.3835C187.195 88.3263 187.157 88.2778 187.105 88.2486C187.054 88.2194 186.993 88.212 186.936 88.2278H186.96Z" fill="#0C2340"/>
<path d="M178.999 90.1672C178.511 90.4363 178.1 90.8257 177.805 91.2985C177.536 91.7816 177.381 92.3201 177.351 92.8727C177.319 93.5113 177.372 94.1513 177.507 94.7761C177.596 95.2251 177.62 95.9254 178.151 96.081C178.2 96.0949 178.252 96.0903 178.298 96.0682C178.344 96.0461 178.381 96.0079 178.4 95.9608C178.42 95.9138 178.422 95.8611 178.406 95.8127C178.39 95.7643 178.356 95.7235 178.312 95.6979C178.139 95.5782 178.109 95.3149 178.068 95.0994C178.026 94.8839 177.96 94.6026 177.918 94.3512C177.819 93.8387 177.779 93.3165 177.799 92.7949C177.83 92.3177 177.969 91.8539 178.206 91.439C178.443 91.024 178.771 90.6688 179.166 90.4006C179.309 90.2989 179.166 90.0654 179.028 90.1612L178.999 90.1672Z" fill="#0C2340"/>
<path d="M194.139 93.5371C193.873 93.0551 193.453 92.6775 192.946 92.4656C192.692 92.3432 192.415 92.2795 192.134 92.2795C191.853 92.2795 191.575 92.3432 191.322 92.4656C191.291 92.4865 191.267 92.5168 191.253 92.5522C191.24 92.5876 191.238 92.6263 191.248 92.6628C191.258 92.6993 191.279 92.7317 191.309 92.7554C191.338 92.7791 191.374 92.7929 191.412 92.7948C191.645 92.7948 191.877 92.7948 192.11 92.7948C192.452 92.8154 192.785 92.9107 193.086 93.0741C193.387 93.2375 193.649 93.465 193.853 93.7406C193.874 93.7749 193.908 93.7995 193.947 93.8093C193.986 93.8191 194.027 93.8132 194.062 93.793C194.097 93.7728 194.123 93.7398 194.134 93.701C194.145 93.6622 194.14 93.6206 194.121 93.585L194.139 93.5371Z" fill="#0C2340"/>
<path d="M127.728 184.848C134.06 187.177 139.557 194.461 138.291 199.753C136.871 205.738 132.759 208.312 132.759 208.312L131.458 205.918C131.458 205.918 134.746 200.764 134.442 198.328C133.988 194.425 129.071 191.822 129.071 191.822L127.728 184.848Z" fill="#0B43A4"/>
<path d="M112.146 252.319C112.146 252.319 108.261 253.893 107.288 254.779H114.987V252.325L112.146 252.319Z" fill="#0C2340"/>
<path d="M129.16 252.169C129.79 252.911 130.237 253.79 130.467 254.737H125.216C125.344 253.817 125.678 252.939 126.194 252.169H129.16Z" fill="#0C2340"/>
<path d="M129.483 252.283H125.902C125.974 248.045 125.102 233.601 124.261 222.803C123.765 216.47 123.276 211.383 122.99 210.353L124.911 209.928L132.162 208.312C133.398 214.004 130.533 240.114 129.483 252.283Z" fill="#047F76"/>
<path d="M116.3 210.132C113.501 214.549 112.778 246.489 111.603 252.408L115.004 252.6C118.06 238.066 122.152 223.772 127.251 209.826L116.3 210.132Z" fill="#009790"/>
<g style="mix-blend-mode:multiply" opacity="0.2">
<path d="M128.671 209.826C127.03 214.298 125.556 218.673 124.255 222.809C123.759 216.476 123.27 211.389 122.984 210.359L124.905 209.934L128.671 209.826Z" fill="#5275A0"/>
</g>
<path d="M116.3 210.132C113.501 214.549 112.778 246.489 111.603 252.408L115.004 252.6C118.06 238.066 122.152 223.772 127.251 209.826L116.3 210.132Z" fill="#009790"/>
<path d="M118.436 174.475C118.436 174.475 116.258 182.801 121.695 182.801L121.372 184.926L125.508 185.381L124.613 182.418C124.613 182.418 125.46 177.169 125.46 176.217C125.586 174.463 120.686 171.351 118.436 174.475Z" fill="#FFB9A3"/>
<path d="M104.977 165.148L103.372 165.151L103.385 171.945L104.99 171.941L104.977 165.148Z" fill="#0C2340"/>
<path d="M108.774 162.561L99.5654 162.578C98.9227 162.58 98.4027 163.103 98.4039 163.748L98.4044 163.993C98.4056 164.638 98.9276 165.159 99.5704 165.158L108.779 165.141C109.422 165.139 109.942 164.616 109.94 163.971L109.94 163.726C109.939 163.081 109.417 162.559 108.774 162.561Z" fill="#0056EC"/>
<path d="M102.949 173.715C102.902 172.171 101.636 172.578 102.352 170.064C102.782 168.507 105.987 170.309 105.587 171.387C105.187 172.464 104.728 174.17 104.728 174.17L102.949 173.715Z" fill="#FFB9A3"/>
<path d="M121.736 184.423C113.602 184.962 113.065 187.715 109.424 187.284C104.053 186.644 104.978 176.612 105.647 173.015H102.43C102.43 173.015 96.6293 195.874 114.963 191.648C114.259 195.652 118.812 202.189 114.396 210.126C121.354 212.023 127.841 212.49 133.398 210.09C132.425 208.779 135.391 195.491 129.584 185.932C128.444 184.07 122.333 184.381 121.736 184.423Z" fill="#0056EC"/>
<path d="M121.736 184.423C113.602 184.962 113.065 187.715 109.424 187.284C104.053 186.644 104.978 176.612 105.647 173.015H102.43C102.43 173.015 96.6293 195.874 114.963 191.648C114.259 195.652 118.812 202.189 114.396 210.126C121.354 212.023 127.841 212.49 133.398 210.09C132.425 208.779 135.391 195.491 129.584 185.932C128.444 184.07 122.333 184.381 121.736 184.423Z" fill="#0056EC"/>
<path d="M120.614 176.067C121.145 176.205 121.766 176.307 122.047 176.762C122.2 177.071 122.254 177.42 122.202 177.761C122.255 177.575 122.371 177.414 122.53 177.305C122.689 177.196 122.881 177.145 123.073 177.163C123.26 177.187 123.433 177.275 123.562 177.413C123.692 177.55 123.77 177.728 123.783 177.917C123.776 178.093 123.736 178.265 123.664 178.426C123.506 178.83 123.306 179.218 123.067 179.581C123.73 179.826 124.261 181.772 124.619 182.382C125.735 182.101 128.2 181.137 128.438 177.169C128.54 175.319 127.979 173.104 125.979 171.871C124.565 171.003 122.22 170.991 120.608 171.404C119.301 171.74 117.207 173.056 118.185 174.589C118.794 175.356 119.655 175.88 120.614 176.067Z" fill="#EF832B"/>
<path d="M127.585 173.541C127.956 173.395 128.363 173.366 128.751 173.458C129.14 173.55 129.491 173.759 129.757 174.056C130.024 174.597 130.172 175.189 130.193 175.792C130.229 176.084 130.362 176.356 130.569 176.564C130.859 176.777 131.212 176.886 131.571 176.875C132.448 176.852 133.324 176.88 134.197 176.959C134.629 176.996 135.042 177.149 135.393 177.403C135.744 177.657 136.02 178.003 136.191 178.402C136.328 178.851 136.256 179.341 136.417 179.784C136.662 180.443 137.36 180.814 137.969 181.197C139.26 182.005 140.351 183.096 141.162 184.387C141.693 185.177 142.023 186.086 142.123 187.033C142.182 187.973 142.857 189.218 142.678 190.14C142.499 191.061 141.484 192.492 139.568 193.132C136.226 194.216 135.164 194.683 131.959 192.773C131.577 192.54 130.819 191.756 130.473 191.48C130.207 191.254 130.015 190.951 129.924 190.612C129.825 190.141 129.821 189.654 129.911 189.18C130.001 188.706 130.184 188.255 130.449 187.853C130.927 187.015 131.577 186.273 132.067 185.459C132.389 184.975 132.563 184.407 132.568 183.825C132.573 183.715 132.556 183.606 132.518 183.503C132.48 183.4 132.422 183.306 132.347 183.226C132.204 183.098 132.025 183.016 131.834 182.993C131.13 182.849 130.354 182.993 129.715 182.681C129.412 182.528 129.17 182.275 129.03 181.965C128.89 181.655 128.86 181.305 128.946 180.976C129.071 180.545 129.399 180.179 129.489 179.743C129.529 179.418 129.474 179.088 129.329 178.795C129.185 178.501 128.958 178.256 128.677 178.09C128.098 177.758 127.455 177.554 126.791 177.492C126.462 177.464 126.144 177.361 125.86 177.193C125.707 177.069 125.584 176.911 125.502 176.731C125.42 176.551 125.381 176.355 125.389 176.157C125.407 174.858 126.415 173.93 127.585 173.541Z" fill="#EF832B"/>
<path d="M127.012 176.893C127.28 176.927 127.538 177.02 127.767 177.165C127.996 177.31 128.19 177.503 128.336 177.731C128.483 177.959 128.577 178.217 128.613 178.486C128.649 178.755 128.626 179.029 128.546 179.288C128.253 180.269 127.507 181.083 127.483 182.143C127.478 182.55 127.62 182.945 127.882 183.256C128.144 183.567 128.509 183.773 128.91 183.837C129.343 183.91 129.784 183.931 130.223 183.897C130.685 183.833 131.156 183.933 131.554 184.178C132.037 184.585 131.906 185.303 131.709 185.824C131.411 186.385 131.209 186.992 131.112 187.62C131.112 187.835 131.464 187.889 131.5 187.673C131.655 186.626 132.532 185.674 132.252 184.567C131.971 183.46 130.915 183.466 130.044 183.495C129.524 183.557 128.998 183.483 128.516 183.28C128.261 183.132 128.063 182.902 127.955 182.627C127.846 182.352 127.834 182.049 127.919 181.766C128.14 180.664 129.083 179.772 128.952 178.593C128.888 178.104 128.658 177.652 128.302 177.312C127.946 176.972 127.484 176.765 126.994 176.726C126.857 176.726 126.863 176.923 126.994 176.941L127.012 176.893Z" fill="#EF832B"/>
<path d="M118.693 171.949C120.12 171.121 121.774 170.771 123.413 170.95C124.955 171.198 126.384 171.914 127.507 173.003C127.542 173.038 127.589 173.057 127.639 173.057C127.688 173.057 127.735 173.038 127.77 173.003C127.805 172.968 127.824 172.92 127.824 172.871C127.824 172.822 127.805 172.774 127.77 172.739C125.598 170.165 121.205 169.609 118.591 171.817C118.514 171.877 118.591 171.991 118.693 171.949Z" fill="#EF832B"/>
<path d="M222.928 181.712L221.58 184.423L224.868 185.77L225.22 182.652L222.928 181.712Z" fill="#FFB9A3"/>
<path d="M224.91 172.883C217.456 176.139 220.511 184.022 225.047 183.1C227.261 182.646 228.377 175.517 228.377 175.517L224.91 172.883Z" fill="#FFB9A3"/>
<path d="M227.386 171.758C227.18 171.281 226.882 170.85 226.509 170.489C226.316 170.313 226.069 170.211 225.809 170.198C225.549 170.184 225.292 170.262 225.083 170.417C224.582 170.884 224.874 171.758 225.387 172.213C224.946 172.266 224.426 171.961 224.104 172.26C223.782 172.56 223.949 172.895 224.104 173.2C224.434 173.92 224.965 174.53 225.632 174.954C225.256 175.169 224.814 175.588 225.035 175.96C225.101 176.061 225.202 176.133 225.268 176.241C225.411 176.48 225.268 176.786 225.125 177.031C224.892 177.42 224.635 177.797 224.367 178.162C224.442 178.087 224.534 178.03 224.635 177.998C224.737 177.966 224.844 177.959 224.949 177.977C225.054 177.995 225.153 178.038 225.237 178.103C225.322 178.167 225.39 178.251 225.435 178.348C225.508 178.552 225.522 178.774 225.474 178.986C225.427 179.198 225.32 179.392 225.166 179.545C225.011 179.73 224.803 179.864 224.57 179.928C224.361 179.976 223.46 182.777 224.164 183.328C225.035 184.004 227.995 183.418 228.425 182.652C228.624 182.899 228.882 183.093 229.175 183.214C229.468 183.336 229.787 183.381 230.102 183.346C230.254 183.317 230.399 183.255 230.524 183.163C230.649 183.07 230.752 182.951 230.825 182.814C230.897 182.676 230.938 182.524 230.944 182.369C230.951 182.213 230.922 182.058 230.86 181.915C231.198 182.042 231.567 182.06 231.916 181.967C232.265 181.875 232.576 181.676 232.807 181.398C233.039 181.12 233.178 180.777 233.207 180.416C233.235 180.055 233.151 179.694 232.966 179.383C233.331 179.276 233.402 178.785 233.313 178.408C233.212 178.032 233.017 177.689 232.746 177.41C232.476 177.131 232.139 176.927 231.767 176.816C231.955 176.801 232.131 176.716 232.261 176.577C232.39 176.439 232.463 176.257 232.465 176.067C232.455 175.685 232.307 175.319 232.047 175.038C231.73 174.664 231.337 174.361 230.895 174.149C230.453 173.938 229.971 173.823 229.481 173.811C228.425 173.691 227.852 172.626 227.386 171.758Z" fill="#4A49CA"/>
<path d="M220.404 251.798C220.404 251.798 216.041 253.899 215.457 254.551C215.457 254.551 224.038 254.94 224.707 254.551C225.375 254.162 223.334 251.81 223.334 251.81L220.404 251.798Z" fill="#0C2340"/>
<path d="M236.631 249.421C236.631 249.421 232.793 252.384 232.358 253.145C232.358 253.145 241.405 251.798 241.405 251.205C241.405 250.613 239.495 248.811 239.495 248.811L236.631 249.421Z" fill="#0C2340"/>
<path d="M224.617 211.239C224.456 212.131 218.488 235.78 235.574 249.948L240.522 248.811C240.522 248.811 234.763 243.424 232.047 233.643C229.481 224.419 231.522 223.516 233.062 218.434C234.763 212.813 233.498 208.731 233.498 208.731L224.617 211.239Z" fill="#D8742A"/>
<path d="M216.453 211.167C213.744 217.662 209.095 239.785 219.228 252.247H224.289C224.289 252.247 220.303 247.865 219.861 237.696C219.419 227.526 221.991 223.067 223.812 219.709C225.632 216.351 227.309 210.652 227.309 210.652L216.453 211.167Z" fill="#EF832B"/>
<path d="M212.884 170.914C211.536 175.666 211.094 184.453 217.832 187.991L222.338 186.889C222.338 186.889 214.209 182.616 215.952 171.817L212.884 170.914Z" fill="#0B43A4"/>
<path d="M200.465 168.477L203.962 168.047C203.962 168.047 203.539 182.801 220.511 183.998C233.468 184.95 234.482 209.33 234.482 209.33C230.305 212.149 223.298 213.005 214.317 212.358C214.317 212.358 214.914 194.964 213.463 190.211C213.463 190.229 199.361 185.794 200.465 168.477Z" fill="#0056EC"/>
<path d="M196.186 165.802C195.589 166.49 198.066 167.364 200.465 168.477L203.533 168.1C203.554 167.682 203.554 167.262 203.533 166.843C203.491 166.203 203.175 165.832 202.811 166.382C202.447 166.933 200.889 167.125 200.161 166.622C199.433 166.119 196.777 165.114 196.186 165.802Z" fill="#FFB9A3"/>
<path d="M212.884 170.914C211.756 169.8 212.055 169.872 212.055 169.872L215.486 170.65C215.486 170.65 216.244 168.968 216.883 168.92C217.521 168.873 216.4 170.082 216.656 170.525C216.913 170.968 215.952 171.818 215.952 171.818L212.884 170.914Z" fill="#FFB9A3"/>
<path d="M229.302 173.38C229.696 173.493 230.108 173.541 230.496 173.673C230.871 173.79 231.212 173.995 231.492 174.272C231.726 174.502 231.876 174.804 231.918 175.129C231.96 175.455 231.892 175.785 231.725 176.067C231.546 176.325 231.958 176.666 232.161 176.402C232.43 176.038 232.56 175.588 232.526 175.135C232.492 174.682 232.297 174.257 231.976 173.936C231.65 173.592 231.238 173.341 230.782 173.212C230.31 173.053 229.809 173 229.314 173.056C229.153 173.056 229.171 173.332 229.314 173.368L229.302 173.38Z" fill="#4A49CA"/>
<path d="M232.417 179.766C232.648 179.86 232.841 180.03 232.964 180.247C233.088 180.464 233.135 180.716 233.098 180.964C232.937 181.562 232.376 181.873 231.904 182.191C231.866 182.221 231.841 182.264 231.832 182.312C231.824 182.36 231.832 182.41 231.857 182.452C231.881 182.494 231.92 182.525 231.966 182.541C232.012 182.557 232.062 182.556 232.107 182.538C232.448 182.411 232.754 182.206 233.003 181.94C233.251 181.675 233.435 181.354 233.539 181.005C233.576 180.676 233.505 180.344 233.337 180.059C233.169 179.774 232.913 179.552 232.608 179.425C232.394 179.318 232.209 179.635 232.417 179.748V179.766Z" fill="#4A49CA"/>
<path d="M224.582 183.334C225.367 183.839 226.305 184.051 227.231 183.932C228.174 183.869 229.058 183.452 229.708 182.765C229.851 182.592 229.66 182.268 229.445 182.424C228.791 182.945 228.022 183.301 227.201 183.46C226.355 183.585 225.49 183.46 224.713 183.1C224.684 183.091 224.653 183.091 224.625 183.102C224.597 183.112 224.573 183.132 224.558 183.158C224.542 183.184 224.536 183.214 224.541 183.244C224.545 183.274 224.559 183.301 224.582 183.322V183.334Z" fill="#4A49CA"/>
<path d="M232.626 174.421C232.799 174.589 232.92 174.802 232.977 175.036C233.034 175.27 233.024 175.515 232.949 175.744C232.866 176.007 232.743 176.255 232.585 176.48C232.411 176.732 232.232 176.977 232.041 177.217C231.85 177.456 232.113 177.606 232.274 177.456C232.829 177.034 233.22 176.431 233.378 175.75C233.429 175.471 233.393 175.184 233.273 174.927C233.153 174.671 232.956 174.458 232.71 174.319C232.644 174.29 232.561 174.373 232.626 174.421Z" fill="#4A49CA"/>
<path d="M131.673 65.0753L130.276 61.6455L143.782 56.5038L131.673 65.0753Z" fill="#0B43A4"/>
<path d="M132.353 62.9624L143.782 56.5038L135.827 64.6084L132.353 62.9624Z" fill="#5193F4"/>
<path d="M127.185 60.2509L143.782 56.5038L130.276 61.6455L127.185 60.2509Z" fill="#5193F4"/>
<path d="M132.353 62.9623L131.673 65.0753L133.738 63.6148L132.353 62.9623Z" fill="#0056EC"/>
<path d="M130.085 64.6144C126.564 64.0158 121.778 67.6072 123.837 71.3183C124.535 72.5873 128.152 72.0366 127.883 70.636C127.752 69.9656 126.934 69.6783 126.254 69.7561C122.315 70.211 122.16 73.5211 122.333 74.365C123.234 78.7226 129.894 77.2501 132.132 76.6336" stroke="#C8DBFB" stroke-linecap="round" stroke-linejoin="round" stroke-dasharray="4 4"/>
</g>
<defs>
<clipPath id="clip0">
<rect width="267.99" height="200.992" fill="white" transform="translate(23.4088 56.5038)"/>
</clipPath>
</defs>
</svg>
