<svg width="389" height="389" viewBox="0 0 389 389" fill="none" xmlns="http://www.w3.org/2000/svg">
<rect width="389" height="389" rx="20" fill="#2A2A2A"/>
<g clip-path="url(#clip0)">
<path d="M343.914 163.526C345.238 127.695 332.352 91.4307 303.968 74.1725C289.957 65.6515 273.593 60.66 257.151 61.3953C239.575 62.1825 223.012 69.3367 206.432 75.2365C189.851 81.1363 171.929 85.825 154.838 81.6467C142.472 78.6189 131.594 71.1361 119.358 67.7277C71.1478 54.3277 29.1685 109.009 52.7586 152.436C58.5479 163.093 67.4699 171.64 74.9727 181.182C82.4755 190.724 88.7668 202.247 87.7543 214.332C86.8889 224.341 81.2121 233.251 78.8583 243.009C74.3324 261.703 83.2976 282.266 98.7619 293.659C114.226 305.052 135.168 307.734 153.826 303.045C172.483 298.356 188.951 286.886 201.914 272.681C208.837 265.068 215.613 256.175 225.582 253.589C235.101 251.115 245.001 255.146 254.693 256.997C263.67 258.667 272.894 258.486 281.798 256.466C290.703 254.446 299.101 250.629 306.477 245.25C329.912 227.939 342.711 195.906 343.914 163.526Z" fill="#C6FF00"/>
<path opacity="0.7" d="M343.914 163.526C345.238 127.695 332.352 91.4307 303.968 74.1725C289.957 65.6515 273.593 60.66 257.151 61.3953C239.575 62.1825 223.012 69.3367 206.432 75.2365C189.851 81.1363 171.929 85.825 154.838 81.6467C142.472 78.6189 131.594 71.1361 119.358 67.7277C71.1478 54.3277 29.1685 109.009 52.7586 152.436C58.5479 163.093 67.4699 171.64 74.9727 181.182C82.4755 190.724 88.7668 202.247 87.7543 214.332C86.8889 224.341 81.2121 233.251 78.8583 243.009C74.3324 261.703 83.2976 282.266 98.7619 293.659C114.226 305.052 135.168 307.734 153.826 303.045C172.483 298.356 188.951 286.886 201.914 272.681C208.837 265.068 215.613 256.175 225.582 253.589C235.101 251.115 245.001 255.146 254.693 256.997C263.67 258.667 272.894 258.486 281.798 256.466C290.703 254.446 299.101 250.629 306.477 245.25C329.912 227.939 342.711 195.906 343.914 163.526Z" fill="white"/>
<path d="M189.713 362C254.334 362 306.72 351.527 306.72 338.608C306.72 325.69 254.334 315.217 189.713 315.217C125.091 315.217 72.7054 325.69 72.7054 338.608C72.7054 351.527 125.091 362 189.713 362Z" fill="#C6FF00"/>
<path opacity="0.5" d="M189.713 362C254.334 362 306.72 351.527 306.72 338.608C306.72 325.69 254.334 315.217 189.713 315.217C125.091 315.217 72.7054 325.69 72.7054 338.608C72.7054 351.527 125.091 362 189.713 362Z" fill="white"/>
<path d="M313.928 27.4325H229.563C226.681 27.4325 224.345 29.768 224.345 32.6489V125.618C224.345 128.499 226.681 130.835 229.563 130.835H313.928C316.81 130.835 319.147 128.499 319.147 125.618V32.6489C319.147 29.768 316.81 27.4325 313.928 27.4325Z" fill="white" stroke="#263238" stroke-linecap="round" stroke-linejoin="round"/>
<path d="M229.563 27.4325H313.92C315.297 27.4325 316.617 27.9793 317.591 28.9527C318.565 29.9261 319.112 31.2464 319.112 32.6229V38.0383H224.345V32.6489C224.341 31.9629 224.474 31.283 224.735 30.6486C224.996 30.0142 225.38 29.4378 225.866 28.9527C226.351 28.4676 226.927 28.0835 227.562 27.8226C228.197 27.5616 228.877 27.4291 229.563 27.4325Z" fill="#263238" stroke="#263238" stroke-linecap="round" stroke-linejoin="round"/>
<path d="M229.511 82.6415H267.657" stroke="#263238" stroke-linecap="round" stroke-linejoin="round"/>
<path d="M229.511 87.5638H267.657" stroke="#263238" stroke-linecap="round" stroke-linejoin="round"/>
<path d="M229.511 92.4861H267.657" stroke="#263238" stroke-linecap="round" stroke-linejoin="round"/>
<path d="M229.511 97.4083H267.657" stroke="#263238" stroke-linecap="round" stroke-linejoin="round"/>
<path d="M229.511 102.339H267.657" stroke="#263238" stroke-linecap="round" stroke-linejoin="round"/>
<path d="M229.511 107.262H267.657" stroke="#263238" stroke-linecap="round" stroke-linejoin="round"/>
<path d="M229.511 112.184H267.657" stroke="#263238" stroke-linecap="round" stroke-linejoin="round"/>
<path d="M229.511 117.106H267.657" stroke="#263238" stroke-linecap="round" stroke-linejoin="round"/>
<path d="M229.511 122.037H267.657" stroke="#263238" stroke-linecap="round" stroke-linejoin="round"/>
<path d="M274.364 82.6415H312.509" stroke="#263238" stroke-linecap="round" stroke-linejoin="round"/>
<path d="M274.364 87.5638H312.509" stroke="#263238" stroke-linecap="round" stroke-linejoin="round"/>
<path d="M274.364 92.4861H312.509" stroke="#263238" stroke-linecap="round" stroke-linejoin="round"/>
<path d="M274.364 97.4083H312.509" stroke="#263238" stroke-linecap="round" stroke-linejoin="round"/>
<path d="M274.364 102.339H312.509" stroke="#263238" stroke-linecap="round" stroke-linejoin="round"/>
<path d="M274.364 107.262H312.509" stroke="#263238" stroke-linecap="round" stroke-linejoin="round"/>
<path d="M274.364 112.184H312.509" stroke="#263238" stroke-linecap="round" stroke-linejoin="round"/>
<path d="M274.364 117.106H312.509" stroke="#263238" stroke-linecap="round" stroke-linejoin="round"/>
<path d="M274.364 122.037H312.509" stroke="#263238" stroke-linecap="round" stroke-linejoin="round"/>
<path d="M255.022 51.4729C255.215 50.8894 255.314 50.2793 255.316 49.6649C255.316 47.433 253.049 47.2946 250.808 47.2946H250.228V46.7669H259.972V47.2946C257.437 47.2946 256.554 48.9123 255.732 51.3085L250.574 66.7934C250.185 67.9439 249.856 68.8003 248.636 68.8003H248.541L243.963 53.9989L239.688 66.7934C239.29 67.9439 238.961 68.8003 237.749 68.8003H237.646L230.999 47.2859H228.663V46.7582H237.247V47.2859H234.807L239.748 64.2587H239.947L243.634 52.9522L241.903 47.2946H239.567V46.7669H248.117V47.2946H245.685L250.617 64.2673H250.817L255.022 51.4729Z" fill="#C6FF00"/>
<path d="M312.786 41.8619H273.533V77.33H312.786V41.8619Z" fill="#C6FF00" stroke="#263238" stroke-width="2" stroke-linecap="round" stroke-linejoin="round"/>
<path d="M312.786 56.6893C311.467 56.7638 310.155 56.9461 308.866 57.2343C302.903 58.5319 301.346 67.0875 294.604 67.0875C288.633 67.0875 288.123 59.051 279.564 58.0129C277.482 57.683 275.349 58.0607 273.507 59.0856V77.33H312.76L312.786 56.6893Z" fill="#263238" stroke="#263238" stroke-linecap="round" stroke-linejoin="round"/>
<path d="M286.574 49.985C286.572 50.8555 286.312 51.706 285.827 52.4289C285.342 53.1519 284.654 53.7149 283.849 54.0469C283.044 54.3788 282.158 54.4648 281.305 54.2939C280.451 54.123 279.667 53.703 279.051 53.0868C278.436 52.4707 278.018 51.6861 277.848 50.8322C277.679 49.9783 277.767 49.0934 278.101 48.2893C278.434 47.4852 278.999 46.7981 279.723 46.3146C280.447 45.8311 281.298 45.5731 282.169 45.5731C282.748 45.5731 283.322 45.6873 283.857 45.9091C284.392 46.1309 284.878 46.4561 285.287 46.8659C285.696 47.2756 286.02 47.7621 286.241 48.2973C286.462 48.8325 286.575 49.406 286.574 49.985Z" fill="white" stroke="#263238" stroke-linecap="round" stroke-linejoin="round"/>
<path d="M314.569 30.5468H227.192V33.9119H314.569V30.5468Z" fill="white" stroke="#263238" stroke-linecap="round" stroke-linejoin="round"/>
<path d="M309.126 151.467H271.291C269.806 151.469 268.382 152.061 267.332 153.112C266.282 154.163 265.692 155.587 265.692 157.073V177.298C265.692 178.783 266.282 180.208 267.332 181.259C268.382 182.31 269.806 182.901 271.291 182.904H272.468C271.3 185.499 269.007 189.478 265.398 191.84C265.398 191.84 273.074 191.304 281.07 182.904H309.126C310.611 182.901 312.035 182.31 313.085 181.259C314.135 180.208 314.724 178.783 314.724 177.298V157.073C314.724 155.587 314.135 154.163 313.085 153.112C312.035 152.061 310.611 151.469 309.126 151.467Z" fill="#263238" stroke="#263238" stroke-linecap="round" stroke-linejoin="round"/>
<path d="M283.701 166.467C283.701 165.898 283.532 165.341 283.215 164.867C282.898 164.393 282.448 164.024 281.922 163.806C281.395 163.588 280.816 163.531 280.257 163.642C279.698 163.753 279.184 164.027 278.781 164.43C278.378 164.833 278.104 165.346 277.993 165.905C277.881 166.464 277.938 167.043 278.157 167.57C278.375 168.096 278.744 168.546 279.218 168.862C279.692 169.179 280.249 169.348 280.819 169.348C281.583 169.346 282.314 169.041 282.854 168.502C283.394 167.962 283.698 167.231 283.701 166.467Z" fill="#C6FF00" stroke="#263238" stroke-linecap="round" stroke-linejoin="round"/>
<path d="M293.497 166.467C293.498 165.895 293.33 165.336 293.014 164.86C292.697 164.383 292.246 164.012 291.718 163.792C291.19 163.572 290.609 163.513 290.048 163.624C289.487 163.734 288.971 164.009 288.566 164.412C288.161 164.816 287.884 165.331 287.772 165.892C287.66 166.452 287.717 167.034 287.935 167.562C288.154 168.091 288.524 168.543 289 168.86C289.475 169.178 290.034 169.348 290.606 169.348C291.371 169.346 292.103 169.042 292.645 168.502C293.186 167.963 293.492 167.231 293.497 166.467Z" fill="#C6FF00" stroke="#263238" stroke-linecap="round" stroke-linejoin="round"/>
<path d="M303.319 166.467C303.32 165.895 303.152 165.335 302.835 164.859C302.518 164.382 302.067 164.011 301.539 163.791C301.01 163.571 300.428 163.513 299.867 163.624C299.305 163.736 298.789 164.011 298.385 164.415C297.98 164.82 297.704 165.336 297.593 165.897C297.482 166.458 297.54 167.04 297.76 167.568C297.98 168.097 298.351 168.548 298.828 168.865C299.305 169.181 299.865 169.35 300.437 169.348C301.201 169.346 301.932 169.041 302.472 168.502C303.012 167.962 303.316 167.231 303.319 166.467Z" fill="#C6FF00" stroke="#263238" stroke-linecap="round" stroke-linejoin="round"/>
<path d="M101.142 39.6992H163.379C164.862 39.6992 166.284 40.288 167.332 41.336C168.381 42.384 168.97 43.8055 168.97 45.2876V88.4202H95.5514V45.2876C95.5514 43.8055 96.1404 42.384 97.1888 41.336C98.2371 40.288 99.6591 39.6992 101.142 39.6992Z" fill="#C6FF00" stroke="#263238" stroke-linecap="round" stroke-linejoin="round"/>
<path d="M168.978 81.4996H95.5514V88.4375H168.978V81.4996Z" fill="#263238" stroke="#263238" stroke-linecap="round" stroke-linejoin="round"/>
<path d="M165.612 83.8699H98.9089V86.0672H165.612V83.8699Z" fill="white" stroke="#263238" stroke-linecap="round" stroke-linejoin="round"/>
<path d="M132.26 71.9751C137.862 71.9751 142.403 67.4359 142.403 61.8364C142.403 56.237 137.862 51.6978 132.26 51.6978C126.659 51.6978 122.118 56.237 122.118 61.8364C122.118 67.4359 126.659 71.9751 132.26 71.9751Z" fill="#263238" stroke="#263238" stroke-linecap="round" stroke-linejoin="round"/>
<path d="M127.683 55.5214L138.63 61.8365L127.683 68.1429V55.5214Z" fill="white" stroke="#263238" stroke-linecap="round" stroke-linejoin="round"/>
<path d="M137.21 106.197H67.5219C66.1741 106.197 65.0815 107.29 65.0815 108.637V135.186C65.0815 136.533 66.1741 137.626 67.5219 137.626H137.21C138.558 137.626 139.651 136.533 139.651 135.186V108.637C139.651 107.29 138.558 106.197 137.21 106.197Z" fill="#263238" stroke="#263238" stroke-linecap="round" stroke-linejoin="round"/>
<path d="M73.9603 110.48L74.3238 111.085C72.6795 112.002 71.1478 113.611 71.1478 115.497C71.1268 115.822 71.1709 116.147 71.2776 116.455C71.3843 116.762 71.5515 117.045 71.7692 117.287C71.9869 117.529 72.2508 117.724 72.5453 117.863C72.8399 118.001 73.1592 118.079 73.4843 118.092C73.7266 118.092 73.8824 117.971 73.8824 117.729C73.8824 117.487 73.7613 117.409 73.519 117.366C73.1929 117.277 72.9092 117.075 72.7188 116.796C72.5284 116.517 72.4439 116.179 72.4805 115.843C72.4856 115.574 72.5456 115.309 72.657 115.064C72.7683 114.819 72.9287 114.6 73.1281 114.419C73.3275 114.238 73.5617 114.1 73.8165 114.013C74.0712 113.926 74.341 113.893 74.6093 113.914C74.9005 113.915 75.1885 113.974 75.4563 114.089C75.724 114.203 75.966 114.37 76.1678 114.58C76.3696 114.79 76.5272 115.038 76.6311 115.31C76.735 115.582 76.7832 115.872 76.7728 116.163C76.7685 116.528 76.6907 116.889 76.5442 117.224C76.3976 117.559 76.1852 117.861 75.9196 118.112C75.654 118.363 75.3406 118.558 74.998 118.685C74.6555 118.812 74.2908 118.87 73.9257 118.854C73.4709 118.883 73.0149 118.817 72.5874 118.659C72.1599 118.501 71.7703 118.255 71.444 117.937C71.1177 117.618 70.8618 117.235 70.693 116.812C70.5242 116.389 70.4463 115.935 70.4642 115.48C70.4296 113.291 72.1171 111.526 73.9603 110.48ZM81.3939 110.48L81.7573 111.085C80.1131 112.002 78.5814 113.611 78.5814 115.497C78.5603 115.821 78.6042 116.146 78.7104 116.453C78.8165 116.759 78.9829 117.042 79.1997 117.284C79.4165 117.525 79.6794 117.721 79.9729 117.86C80.2665 117.999 80.5848 118.078 80.9092 118.092C81.1515 118.092 81.316 117.971 81.316 117.729C81.316 117.487 81.1948 117.409 80.9525 117.366C80.6258 117.277 80.3411 117.075 80.1493 116.797C79.9575 116.518 79.8711 116.18 79.9054 115.843C79.9117 115.574 79.9726 115.31 80.0844 115.066C80.1962 114.821 80.3565 114.602 80.5556 114.422C80.7547 114.241 80.9885 114.103 81.2427 114.016C81.4969 113.929 81.7662 113.894 82.0342 113.914C82.3258 113.915 82.6142 113.974 82.8824 114.089C83.1506 114.203 83.3931 114.37 83.5956 114.58C83.7981 114.79 83.9565 115.038 84.0614 115.31C84.1663 115.582 84.2156 115.872 84.2063 116.163C84.2009 116.529 84.1221 116.89 83.9746 117.225C83.8271 117.559 83.6138 117.861 83.3475 118.112C83.0812 118.363 82.7673 118.558 82.4243 118.685C82.0812 118.813 81.7161 118.87 81.3506 118.854C80.8958 118.883 80.4398 118.817 80.0123 118.659C79.5848 118.501 79.1952 118.255 78.8689 117.937C78.5426 117.618 78.2867 117.235 78.1179 116.812C77.9491 116.389 77.8712 115.935 77.8891 115.48C77.8631 113.291 79.5506 111.526 81.3939 110.48Z" fill="#C6FF00"/>
<path d="M88.5159 116.881H130.945" stroke="white" stroke-linecap="round" stroke-linejoin="round"/>
<path d="M88.5159 120.523H130.945" stroke="white" stroke-linecap="round" stroke-linejoin="round"/>
<path d="M88.5159 124.174H130.945" stroke="white" stroke-linecap="round" stroke-linejoin="round"/>
<path d="M88.5159 127.816H130.945" stroke="white" stroke-linecap="round" stroke-linejoin="round"/>
<path d="M123.436 186.353C132.195 184.924 138.137 176.667 136.708 167.91C135.278 159.154 127.018 153.214 118.259 154.643C109.499 156.073 103.558 164.33 104.987 173.086C106.417 181.842 114.677 187.782 123.436 186.353Z" fill="#263238" stroke="#263238" stroke-linecap="round" stroke-linejoin="round"/>
<path d="M131.042 179.456C135.984 173.831 135.428 165.266 129.801 160.326C124.174 155.386 115.606 155.941 110.664 161.566C105.722 167.192 106.277 175.757 111.905 180.697C117.532 185.637 126.1 185.082 131.042 179.456Z" fill="white" stroke="#263238" stroke-linecap="round" stroke-linejoin="round"/>
<path d="M120.855 160.697V170.498H127.492" stroke="#263238" stroke-width="2" stroke-linecap="round" stroke-linejoin="round"/>
<path d="M221.368 170.533C221.368 170.533 230.584 190.196 230.584 191.234C230.584 192.272 222.406 196.719 220.849 197.653C219.643 198.34 218.401 198.961 217.128 199.513L218.054 208.666C218.054 208.666 232.133 205.456 238.035 202.247C243.937 199.037 243.729 195.421 242.362 190.032C240.995 184.642 231.908 163.855 231.908 163.855L221.368 170.533Z" fill="white"/>
<g style="mix-blend-mode:multiply" opacity="0.5">
<path d="M238.035 202.203C243.937 198.994 243.729 195.378 242.362 189.989C240.995 184.599 231.908 163.811 231.908 163.811L230.437 164.746L229.961 165.611C229.961 165.611 238.45 186.433 238.961 193.371C239.307 198.034 229.918 203.847 223.713 207.212C228.334 205.958 234.582 204.081 238.035 202.203Z" fill="#C6FF00"/>
</g>
<path d="M221.368 170.533C221.368 170.533 230.584 190.196 230.584 191.234C230.584 192.272 222.406 196.719 220.849 197.653C219.643 198.34 218.401 198.961 217.128 199.513L218.054 208.666C218.054 208.666 232.133 205.456 238.035 202.247C243.937 199.037 243.729 195.421 242.362 190.032C240.995 184.642 231.908 163.855 231.908 163.855L221.368 170.533Z" stroke="#263238" stroke-linecap="round" stroke-linejoin="round"/>
<path d="M154.907 166.19C154.907 166.19 148.175 190.819 147.984 195.17C147.794 199.522 161.337 208.103 161.83 208.622C162.324 209.141 161.06 193.656 161.06 193.656L165.664 171.165L154.907 166.19Z" fill="white"/>
<g style="mix-blend-mode:multiply" opacity="0.5">
<path d="M157.988 168.206L157.832 167.54L154.907 166.19C154.907 166.19 148.175 190.819 147.984 195.17C147.794 199.522 161.337 208.103 161.83 208.622C162.038 208.83 161.96 206.511 161.787 203.648C157.754 200.231 151.965 195.421 151.29 193.397" fill="#C6FF00"/>
</g>
<path d="M154.907 166.19C154.907 166.19 148.175 190.819 147.984 195.17C147.794 199.522 161.337 208.103 161.83 208.622C162.324 209.141 161.06 193.656 161.06 193.656L165.664 171.165L154.907 166.19Z" stroke="#263238" stroke-linecap="round" stroke-linejoin="round"/>
<path d="M186.476 141.449C186.476 141.449 183.88 143.318 178.817 143.525C173.755 143.733 173.513 140.065 167.221 140.108C159.606 140.108 150.035 164.218 150.035 164.218C150.035 164.218 154.803 168.881 159.459 170.845C162.039 171.974 164.752 172.774 167.533 173.223L168.26 189.063H219.611L220.234 173.223L236.278 162.817C236.278 162.817 228.412 148.742 224.578 143.465C220.745 138.188 214.332 140.152 212.359 141.493C210.386 142.833 204.571 143.154 202.425 142.842C200.279 142.531 194.143 140.567 194.143 140.567C194.143 140.567 190.829 137.729 186.476 141.449Z" fill="#C6FF00" stroke="#263238" stroke-linecap="round" stroke-linejoin="round"/>
<path d="M168.052 147.038L167.845 173.327" stroke="#263238" stroke-width="0.5" stroke-linecap="round" stroke-linejoin="round"/>
<path d="M169.913 149.425C169.913 149.425 170.64 162.254 173.331 169.4" stroke="#263238" stroke-width="0.5" stroke-linecap="round" stroke-linejoin="round"/>
<path d="M173.85 170.429C174.441 172.173 175.167 173.868 176.022 175.499" stroke="#263238" stroke-width="0.5" stroke-linecap="round" stroke-linejoin="round"/>
<path d="M171.574 147.972C172.552 152.637 173.936 157.208 175.711 161.631" stroke="#263238" stroke-width="0.5" stroke-linecap="round" stroke-linejoin="round"/>
<path d="M216.193 150.247C216.193 150.247 213.709 160.394 211.537 164.953" stroke="#263238" stroke-width="0.5" stroke-linecap="round" stroke-linejoin="round"/>
<path d="M220.234 173.223L220.13 152.73" stroke="#263238" stroke-width="0.5" stroke-linecap="round" stroke-linejoin="round"/>
<path d="M219.075 153.145C219.075 153.145 217.214 166.121 212.654 172.912" stroke="#263238" stroke-width="0.5" stroke-linecap="round" stroke-linejoin="round"/>
<path d="M216.816 170.325C216.816 170.325 214.748 174.262 213.294 176.329" stroke="#263238" stroke-width="0.5" stroke-linecap="round" stroke-linejoin="round"/>
<path d="M183.594 143.006C183.594 143.006 185.048 151.908 187.116 156.458C189.185 161.009 192.811 161.943 195.917 160.602C199.024 159.261 201.3 152.626 201.11 144.166" stroke="#263238" stroke-width="0.5" stroke-linecap="round" stroke-linejoin="round"/>
<path d="M176.23 124.373C176.23 124.373 174.266 120.964 172.708 122.72C171.15 124.477 173.954 128.516 175.503 129.857C177.052 131.198 178.194 130.376 178.099 128.932C178.004 127.487 176.23 124.373 176.23 124.373Z" fill="#C6FF00" stroke="#263238" stroke-linecap="round" stroke-linejoin="round"/>
<path opacity="0.5" d="M176.23 124.373C176.23 124.373 174.266 120.964 172.708 122.72C171.15 124.477 173.954 128.516 175.503 129.857C177.052 131.198 178.194 130.376 178.099 128.932C178.004 127.487 176.23 124.373 176.23 124.373Z" fill="white"/>
<path d="M176.23 124.373C176.23 124.373 174.266 120.964 172.708 122.72C171.15 124.477 173.954 128.516 175.503 129.857C177.052 131.198 178.194 130.376 178.099 128.932C178.004 127.487 176.23 124.373 176.23 124.373Z" stroke="#263238" stroke-linecap="round" stroke-linejoin="round"/>
<path d="M207.565 124.373C207.565 124.373 209.53 120.964 211.087 122.72C212.645 124.477 209.841 128.516 208.292 129.857C206.743 131.198 205.601 130.376 205.696 128.932C205.791 127.487 207.565 124.373 207.565 124.373Z" fill="#C6FF00" stroke="#263238" stroke-linecap="round" stroke-linejoin="round"/>
<path opacity="0.5" d="M207.565 124.373C207.565 124.373 209.53 120.964 211.087 122.72C212.645 124.477 209.841 128.516 208.292 129.857C206.743 131.198 205.601 130.376 205.696 128.932C205.791 127.487 207.565 124.373 207.565 124.373Z" fill="white"/>
<path d="M207.565 124.373C207.565 124.373 209.53 120.964 211.087 122.72C212.645 124.477 209.841 128.516 208.292 129.857C206.743 131.198 205.601 130.376 205.696 128.932C205.791 127.487 207.565 124.373 207.565 124.373Z" stroke="#263238" stroke-linecap="round" stroke-linejoin="round"/>
<path d="M185.55 140.731C186.523 145.149 187.766 149.502 189.271 153.768C191.14 158.422 194.662 158.422 196.108 155.429C197.553 152.436 198.487 141.242 198.487 141.242C198.487 141.242 188.787 142.591 185.55 140.731Z" fill="white" stroke="#263238" stroke-linecap="round" stroke-linejoin="round"/>
<path d="M176.438 125.515C176.438 125.515 179.129 135.03 184.226 140.627C189.323 146.224 191.149 147.548 193.858 147.141C196.566 146.735 199.448 143.214 203.481 135.895C207.513 128.577 207.807 122.919 208.145 122.444C208.482 121.968 207.28 111.578 201.516 107.123C195.753 102.668 189.297 100.713 183.707 105.575C178.117 110.436 174.577 118.378 176.438 125.515Z" fill="white"/>
<g style="mix-blend-mode:multiply" opacity="0.5">
<path d="M201.49 107.089C195.692 102.642 189.271 100.678 183.681 105.54C178.091 110.402 174.577 118.378 176.438 125.515C176.438 125.515 176.957 127.349 177.961 129.84C177.958 129.521 178.002 129.203 178.091 128.897C179.328 124.978 182.98 117.392 195.277 120.869C205.03 123.629 203.836 132.202 202.927 136.778C203.1 136.466 203.282 136.155 203.455 135.826C207.496 128.482 207.782 122.85 208.119 122.374C208.457 121.899 207.288 111.544 201.49 107.089Z" fill="#C6FF00"/>
</g>
<path d="M176.438 125.515C176.438 125.515 179.129 135.03 184.226 140.627C189.323 146.224 191.149 147.548 193.858 147.141C196.566 146.735 199.448 143.214 203.481 135.895C207.513 128.577 207.807 122.919 208.145 122.444C208.482 121.968 207.28 111.578 201.516 107.123C195.753 102.668 189.297 100.713 183.707 105.575C178.117 110.436 174.577 118.378 176.438 125.515Z" stroke="#263238" stroke-linecap="round" stroke-linejoin="round"/>
<path d="M193.832 130.48C193.511 132.501 193.337 134.542 193.312 136.588C193.416 138.655 194.039 139.278 193.105 139.486C192.17 139.693 191.14 138.248 191.14 138.248" stroke="#263238" stroke-linecap="round" stroke-linejoin="round"/>
<path d="M183.473 132.141C184.073 132.574 184.79 132.816 185.53 132.834C186.27 132.853 186.998 132.647 187.618 132.245" stroke="#263238" stroke-linecap="round" stroke-linejoin="round"/>
<path d="M196.627 132.141C197.225 132.573 197.941 132.815 198.679 132.833C199.417 132.852 200.144 132.647 200.763 132.245" stroke="#263238" stroke-linecap="round" stroke-linejoin="round"/>
<path d="M190.085 128.655C190.085 128.655 188.12 123.784 181.595 126.06" stroke="#263238" stroke-linecap="round" stroke-linejoin="round"/>
<path d="M195.51 128.058C195.51 128.058 197.163 123.291 203.065 126.086" stroke="#263238" stroke-linecap="round" stroke-linejoin="round"/>
<path d="M191.383 132.539C191.383 135.195 188.319 137.349 184.546 137.349C180.773 137.349 177.719 135.195 177.719 132.539C177.719 129.883 180.566 128.759 184.339 128.759C188.112 128.759 191.383 129.84 191.383 132.539Z" stroke="#263238" stroke-linecap="round" stroke-linejoin="round"/>
<path d="M207.081 132.539C207.081 135.195 204.026 137.349 200.253 137.349C196.48 137.349 193.416 135.195 193.416 132.539C193.416 129.883 196.272 128.759 200.045 128.759C203.818 128.759 207.081 129.84 207.081 132.539Z" stroke="#263238" stroke-linecap="round" stroke-linejoin="round"/>
<path d="M119.834 215.482L119.401 320.355C119.401 320.686 119.532 321.002 119.766 321.236C120 321.47 120.317 321.601 120.647 321.601C120.97 321.601 121.281 321.476 121.513 321.252C121.746 321.027 121.882 320.721 121.893 320.399L124.879 215.629L119.834 215.482Z" fill="white" stroke="#263238" stroke-linecap="round" stroke-linejoin="round"/>
<path d="M112.764 239.999L112.339 348.418C112.337 348.582 112.367 348.745 112.429 348.897C112.49 349.049 112.581 349.188 112.696 349.304C112.811 349.421 112.948 349.514 113.099 349.577C113.251 349.64 113.413 349.673 113.577 349.673C113.899 349.673 114.208 349.549 114.44 349.326C114.673 349.104 114.81 348.8 114.823 348.479L117.826 240.137L112.764 239.999Z" fill="white" stroke="#263238" stroke-linecap="round" stroke-linejoin="round"/>
<path d="M264.862 215.482L265.294 320.355C265.294 320.686 265.163 321.002 264.929 321.236C264.696 321.47 264.379 321.601 264.048 321.601C263.725 321.601 263.414 321.476 263.182 321.252C262.949 321.027 262.813 320.721 262.802 320.399L259.816 215.629L264.862 215.482Z" fill="white" stroke="#263238" stroke-linecap="round" stroke-linejoin="round"/>
<path d="M271.932 239.999L272.356 348.418C272.357 348.581 272.326 348.743 272.264 348.894C272.202 349.045 272.111 349.183 271.996 349.299C271.881 349.414 271.744 349.506 271.594 349.569C271.443 349.632 271.281 349.664 271.118 349.664C270.796 349.664 270.487 349.54 270.255 349.318C270.023 349.095 269.885 348.791 269.872 348.47L266.886 240.137L271.932 239.999Z" fill="white" stroke="#263238" stroke-linecap="round" stroke-linejoin="round"/>
<path d="M161.96 244.506L161.683 340.737C161.656 340.978 161.724 341.22 161.872 341.413C162.021 341.605 162.239 341.731 162.479 341.766C162.711 341.732 162.921 341.611 163.067 341.428C163.213 341.245 163.285 341.013 163.267 340.78L165.171 244.618L161.96 244.506Z" fill="white" stroke="#263238" stroke-linecap="round" stroke-linejoin="round"/>
<path d="M222.874 241.409L223.099 325.39C223.099 325.874 222.804 326.255 222.432 326.255C222.23 326.227 222.047 326.121 221.922 325.959C221.797 325.797 221.741 325.593 221.766 325.39L220.156 241.478L222.874 241.409Z" fill="white" stroke="#263238" stroke-linecap="round" stroke-linejoin="round"/>
<path d="M160.999 241.409L161.224 325.39C161.224 325.874 160.93 326.255 160.558 326.255C160.356 326.227 160.173 326.121 160.048 325.959C159.923 325.797 159.867 325.593 159.892 325.39L158.282 241.478L160.999 241.409Z" fill="white" stroke="#263238" stroke-linecap="round" stroke-linejoin="round"/>
<path d="M221.126 244.506L221.402 340.737C221.43 340.978 221.362 341.22 221.213 341.413C221.065 341.605 220.847 341.731 220.606 341.766C220.374 341.734 220.162 341.613 220.016 341.43C219.869 341.246 219.799 341.014 219.819 340.78L217.915 244.618L221.126 244.506Z" fill="white" stroke="#263238" stroke-linecap="round" stroke-linejoin="round"/>
<path d="M191.106 251.245C212.374 251.245 229.615 247.306 229.615 242.447C229.615 237.588 212.374 233.649 191.106 233.649C169.838 233.649 152.597 237.588 152.597 242.447C152.597 247.306 169.838 251.245 191.106 251.245Z" fill="white" stroke="#263238" stroke-linecap="round" stroke-linejoin="round"/>
<path d="M172.345 317.129C172.345 317.129 170.32 320.018 171.765 321.454C173.21 322.89 174.646 322.319 174.508 323.764C174.37 325.208 172.05 330.105 170.034 335.295C168.018 340.486 172.197 345.676 176.092 344.24C179.986 342.804 179.553 328.375 180.133 325.779C180.713 323.184 181.137 322.752 180.998 320.303C180.86 317.855 180.704 315.26 178.835 314.966C176.966 314.672 173.21 316.125 172.345 317.129Z" fill="white" stroke="#263238" stroke-linecap="round" stroke-linejoin="round"/>
<path d="M178.549 340.261C175.953 339.274 171.972 339.473 169.722 339.698C170.475 342.96 173.357 345.252 176.109 344.24C177.251 343.816 178.013 342.276 178.549 340.261Z" fill="#C6FF00" stroke="#263238" stroke-linecap="round" stroke-linejoin="round"/>
<path d="M167.888 310.788C167.888 310.788 172.068 317.855 173.227 319.724C174.387 321.592 178.272 321.021 178.705 318.426C179.138 315.831 177.121 308.625 177.121 308.625L168.468 310.788H167.888Z" fill="white" stroke="#263238" stroke-linecap="round" stroke-linejoin="round"/>
<path d="M157.936 299.542C157.936 299.542 156.785 301.419 157.356 302.716C157.927 304.014 159.52 307.76 160.532 309.637C161.545 311.514 166.157 312.665 171.497 311.8C176.836 310.935 179.856 308.478 180.003 306.315C180.15 304.152 179.138 301.272 178.419 297.811C177.701 294.351 175.823 294.498 173.227 294.498C170.631 294.498 160.1 297.526 157.936 299.542Z" fill="#C6FF00" stroke="#263238" stroke-linecap="round" stroke-linejoin="round"/>
<path d="M173.513 257.153C173.591 253.606 175.642 251.859 175.797 249.428C176.041 246.203 175.779 242.96 175.019 239.817L171.064 234.427C159.719 234.575 151.576 234.765 151.446 234.808C151.013 234.947 150.728 237.403 150.433 239.419C150.433 239.419 145.622 240.033 146.487 253.442C146.608 255.31 151.472 276.937 151.818 279.394C153.981 294.455 158.801 301.998 158.801 301.998C158.801 301.998 159.234 303.876 164.859 303.443C170.484 303.011 176.109 299.265 176.109 299.265C176.109 299.265 173.21 269.982 173.513 257.153Z" fill="#263238" stroke="#263238" stroke-linecap="round" stroke-linejoin="round"/>
<path d="M149.654 237.213C149.654 237.213 143.701 238.078 140.04 242.248C136.38 246.417 139.486 249.168 146.591 248.424C153.696 247.68 161.873 240.422 162.22 240.033C162.566 239.644 154.812 234.756 149.654 237.213Z" fill="white" stroke="#263238" stroke-linecap="round" stroke-linejoin="round"/>
<path d="M160.229 239.852C164.028 240.048 167.797 240.627 171.479 241.582C176.377 243.026 185.031 245.907 187.056 245.907C189.081 245.907 188.492 238.407 188.492 236.971C188.492 235.535 162.531 234.661 159.364 234.661C156.197 234.661 160.229 239.852 160.229 239.852Z" fill="white" stroke="#263238" stroke-linecap="round" stroke-linejoin="round"/>
<path d="M188.51 236.971C188.51 236.971 186.208 238.121 185.342 242.447C184.477 246.772 183.317 249.082 185.048 250.232C186.779 251.383 194.282 252.248 195.433 251.097C196.584 249.947 199.76 244.177 200.339 240.431C200.919 236.685 188.51 236.971 188.51 236.971Z" fill="#C6FF00" stroke="#263238" stroke-linecap="round" stroke-linejoin="round"/>
<path d="M198.306 238.407C196.96 239.944 195.886 241.7 195.13 243.597C194.518 245.583 194.035 247.605 193.685 249.653C196.448 250.41 199.15 251.376 201.767 252.542C206.38 254.558 214.168 256.002 221.671 257.733C229.174 259.463 231.19 261.193 233.786 261.193C236.382 261.193 239.549 259.169 243.591 254.272C247.632 249.376 244.17 238.986 240.129 235.812C236.088 232.637 214.454 230.05 211.572 230.915C208.69 231.78 198.306 238.407 198.306 238.407Z" fill="#263238" stroke="#263238" stroke-linecap="round" stroke-linejoin="round"/>
<path d="M144.203 248.545C143.626 245.958 142.469 243.535 140.819 241.461C140.551 241.711 140.291 241.971 140.04 242.256C136.864 245.864 138.846 248.459 144.203 248.545Z" fill="#C6FF00" stroke="#263238" stroke-linecap="round" stroke-linejoin="round"/>
<path d="M173.071 250.829C173.071 250.829 170.095 282.673 164.02 287.63" stroke="white" stroke-width="0.5" stroke-linecap="round" stroke-linejoin="round"/>
<path d="M170.969 281.055C170.969 281.055 168.606 291.436 162.41 295.562" stroke="white" stroke-width="0.5" stroke-linecap="round" stroke-linejoin="round"/>
<path d="M209.279 245.042C209.279 245.042 200.054 245.622 206.111 249.653C212.169 253.684 223.125 256.288 223.125 256.288" stroke="white" stroke-width="0.5" stroke-linecap="round" stroke-linejoin="round"/>
<path d="M276.319 234.133L273.195 231.331L266.004 215.759C265.661 215.05 265.123 214.453 264.454 214.038C263.784 213.623 263.01 213.407 262.222 213.415H122.378C121.59 213.407 120.816 213.623 120.146 214.038C119.477 214.453 118.939 215.05 118.596 215.759L109.622 235.171L108.142 234.618V239.056L108.22 239.004C108.307 239.597 108.607 240.137 109.064 240.525C109.522 240.912 110.105 241.118 110.704 241.106H273.896C274.528 241.12 275.14 240.89 275.605 240.462C276.07 240.035 276.35 239.444 276.388 238.813L276.319 234.133Z" fill="#263238" stroke="#263238" stroke-linecap="round" stroke-linejoin="round"/>
<path d="M273.896 237.04H110.704C110.306 237.054 109.91 236.967 109.554 236.789C109.198 236.611 108.891 236.346 108.663 236.02C108.436 235.693 108.293 235.314 108.249 234.918C108.205 234.522 108.26 234.122 108.411 233.753L118.596 211.745C118.938 211.036 119.476 210.438 120.146 210.023C120.815 209.608 121.59 209.392 122.378 209.401H262.222C263.01 209.392 263.785 209.608 264.454 210.023C265.124 210.438 265.662 211.036 266.004 211.745L276.189 233.753C276.34 234.122 276.395 234.522 276.351 234.918C276.307 235.314 276.165 235.693 275.937 236.02C275.709 236.346 275.403 236.611 275.046 236.789C274.69 236.967 274.294 237.054 273.896 237.04Z" fill="white" stroke="#263238" stroke-linecap="round" stroke-linejoin="round"/>
<g style="mix-blend-mode:multiply" opacity="0.5">
<path d="M118.968 222.265C118.968 222.265 115.273 224.808 117.584 225.725C119.894 226.642 146.453 225.958 149.68 225.033C152.908 224.107 156.603 215.569 156.603 214.185C156.603 212.801 151.948 211.806 150.234 211.728C148.521 211.65 125.891 212.991 125.891 212.991L118.968 222.265Z" fill="#C6FF00"/>
</g>
<g style="mix-blend-mode:multiply" opacity="0.5">
<path d="M251.076 226.65C256.305 226.65 260.543 224.892 260.543 222.723C260.543 220.554 256.305 218.796 251.076 218.796C245.848 218.796 241.609 220.554 241.609 222.723C241.609 224.892 245.848 226.65 251.076 226.65Z" fill="#C6FF00"/>
</g>
<g style="mix-blend-mode:multiply" opacity="0.5">
<path d="M190.794 231.503C209.544 231.503 224.743 228.661 224.743 225.154C224.743 221.647 209.544 218.804 190.794 218.804C172.045 218.804 156.846 221.647 156.846 225.154C156.846 228.661 172.045 231.503 190.794 231.503Z" fill="#C6FF00"/>
</g>
<path d="M244.171 207.273C244.171 207.273 243.547 204.79 241.479 205.62C239.411 206.451 239.619 211.935 240.034 215.041C240.449 218.147 243.245 216.693 243.245 216.693V214.834C243.245 214.834 242.206 215.699 241.687 214.522C241.168 213.346 241.272 207.688 241.791 207.792C242.31 207.896 243.348 209.66 243.348 209.66C243.348 209.66 243.625 209.453 244.171 207.273Z" fill="#C6FF00" stroke="#263238" stroke-linecap="round" stroke-linejoin="round"/>
<path d="M242.656 207.688V221.296C242.656 222.887 246.334 224.185 250.877 224.185C255.42 224.185 259.09 222.887 259.09 221.296V207.688H242.656Z" fill="#C6FF00" stroke="#263238" stroke-linecap="round" stroke-linejoin="round"/>
<path d="M259.09 207.688C259.09 209.072 255.412 210.188 250.877 210.188C246.343 210.188 242.656 209.072 242.656 207.688C242.656 206.304 246.334 205.188 250.877 205.188C255.42 205.188 259.09 206.313 259.09 207.688Z" fill="white" stroke="#263238" stroke-linecap="round" stroke-linejoin="round"/>
<path d="M258.017 207.688C258.017 208.89 254.823 209.859 250.877 209.859C246.931 209.859 243.729 208.89 243.729 207.688C243.729 206.486 246.931 205.517 250.877 205.517C254.823 205.517 258.017 206.486 258.017 207.688Z" fill="white" stroke="#263238" stroke-linecap="round" stroke-linejoin="round"/>
<path d="M245.365 209.072C248.962 210.122 252.784 210.122 256.381 209.072C252.784 208.023 248.962 208.023 245.365 209.072Z" fill="#263238" stroke="#263238" stroke-linecap="round" stroke-linejoin="round"/>
<path d="M117.947 213.899L118.042 218.553L149.412 218.865V213.484L117.947 213.899Z" fill="white" stroke="#263238" stroke-linecap="round" stroke-linejoin="round"/>
<path d="M149.412 218.865L153.973 209.038V206.14L149.213 214.418L149.412 218.865Z" fill="white" stroke="#263238" stroke-linecap="round" stroke-linejoin="round"/>
<path d="M117.947 218.147L118.042 222.801L149.412 223.112V217.732L117.947 218.147Z" fill="white" stroke="#263238" stroke-linecap="round" stroke-linejoin="round"/>
<path d="M149.412 223.112L153.973 213.276V210.378L149.213 218.657L149.412 223.112Z" fill="white" stroke="#263238" stroke-linecap="round" stroke-linejoin="round"/>
<path d="M130.054 202.1C130.054 202.1 130.781 200.655 129.742 200.032C128.704 199.409 127.57 200.897 126.947 201.373C126.324 201.849 113.283 210.482 112.867 211.832C112.452 213.181 112.867 216.157 115.663 216.486C118.458 216.815 120.941 214.937 122.187 214.626C123.434 214.315 123.918 214.211 123.918 214.211L132.537 202.61L130.054 202.1Z" fill="white" stroke="#263238" stroke-linecap="round" stroke-linejoin="round"/>
<path d="M115.663 216.451C118.458 216.763 120.941 214.903 122.187 214.591C123.434 214.28 123.918 214.176 123.918 214.176L124.23 213.752L116.182 212.126C115.744 211.711 115.179 211.455 114.578 211.399C113.978 211.342 113.375 211.489 112.867 211.814C112.452 213.173 112.867 216.174 115.663 216.451Z" fill="white" stroke="#263238" stroke-linecap="round" stroke-linejoin="round"/>
<path d="M116.182 212.126H140.412C147.967 212.126 150.243 211.711 150.243 211.711L154.907 202.082C154.907 202.082 140.196 203.017 135.644 202.705C133.767 202.651 131.897 202.443 130.054 202.082L116.182 212.126Z" fill="white" stroke="#263238" stroke-linecap="round" stroke-linejoin="round"/>
<path d="M116.182 212.126L116.597 213.986C116.597 213.986 136.267 214.09 141.442 214.09C146.617 214.09 150.554 214.297 150.554 214.297L150.243 211.702L116.182 212.126Z" fill="white" stroke="#263238" stroke-linecap="round" stroke-linejoin="round"/>
<path d="M150.554 214.314L154.899 204.375V202.1L150.243 211.728L150.554 214.314Z" fill="white" stroke="#263238" stroke-linecap="round" stroke-linejoin="round"/>
<path d="M220.442 225.967H161.095C160.964 225.968 160.834 225.943 160.712 225.894C160.591 225.844 160.481 225.771 160.388 225.678C160.296 225.586 160.223 225.476 160.173 225.354C160.123 225.233 160.098 225.103 160.1 224.972C160.098 224.841 160.123 224.711 160.173 224.59C160.223 224.469 160.296 224.359 160.388 224.266C160.481 224.174 160.591 224.1 160.712 224.051C160.834 224.001 160.964 223.976 161.095 223.977H220.416C220.547 223.976 220.677 224.001 220.798 224.051C220.92 224.1 221.03 224.174 221.122 224.266C221.215 224.359 221.288 224.469 221.338 224.59C221.387 224.711 221.412 224.841 221.411 224.972C221.414 225.232 221.313 225.483 221.131 225.669C220.95 225.855 220.702 225.962 220.442 225.967Z" fill="white" stroke="#263238" stroke-linecap="round" stroke-linejoin="round"/>
<path d="M220.944 223.943H160.61C160.388 223.943 160.174 223.858 160.013 223.705C159.852 223.552 159.756 223.343 159.745 223.121L156.456 183.717C156.441 183.595 156.453 183.471 156.49 183.354C156.527 183.237 156.588 183.128 156.67 183.037C156.752 182.945 156.852 182.872 156.965 182.822C157.077 182.772 157.199 182.747 157.322 182.748H224.267C224.39 182.747 224.512 182.772 224.624 182.822C224.736 182.872 224.837 182.945 224.919 183.037C225.001 183.128 225.062 183.237 225.099 183.354C225.136 183.471 225.147 183.595 225.132 183.717L221.844 223.121C221.833 223.349 221.732 223.563 221.563 223.717C221.395 223.871 221.172 223.952 220.944 223.943Z" fill="white" stroke="#263238" stroke-linecap="round" stroke-linejoin="round"/>
<path d="M196.471 204.02C196.471 206.373 193.927 208.276 190.777 208.276C187.627 208.276 185.083 206.373 185.083 204.02C185.083 201.667 187.627 199.773 190.777 199.773C193.927 199.773 196.471 201.676 196.471 204.02Z" fill="white" stroke="#263238" stroke-linecap="round" stroke-linejoin="round"/>
<path d="M255.42 173.198C256.222 172.564 256.819 171.708 257.136 170.737C257.453 169.766 257.476 168.723 257.203 167.739" stroke="#263238" stroke-linecap="round" stroke-linejoin="round"/>
<path d="M248.497 204.089C248.497 204.089 254.261 200.629 252.374 196.676C250.488 192.722 244.153 190.11 244.153 183.942C244.153 178.63 249.804 176.666 253.482 174.538" stroke="#263238" stroke-linecap="round" stroke-linejoin="round"/>
<path d="M253.845 203.977C253.845 203.977 257.056 201.84 257.056 198.449C257.056 196.174 254.616 194.686 251.405 191.027" stroke="#263238" stroke-linecap="round" stroke-linejoin="round"/>
<path d="M249.631 188.821C249.631 188.821 247.528 187.16 249.077 184.054" stroke="#263238" stroke-linecap="round" stroke-linejoin="round"/>
<path d="M200.902 98.1956C201.932 97.9793 204.138 97.1315 205.627 93.6799C205.65 93.6288 205.662 93.5737 205.664 93.5177C205.666 93.4617 205.656 93.4059 205.636 93.3536C205.616 93.3013 205.586 93.2536 205.547 93.213C205.508 93.1725 205.462 93.1401 205.41 93.1176C205.358 93.0935 205.302 93.0801 205.245 93.0785C205.187 93.0768 205.13 93.0867 205.077 93.1078C205.023 93.1288 204.975 93.1604 204.934 93.2008C204.893 93.2411 204.861 93.2894 204.839 93.3425C203.463 96.5 201.508 97.2007 200.703 97.3565C202.156 95.5945 202.957 93.3855 202.97 91.102C202.97 85.0983 197.414 80.2366 190.552 80.2366C183.69 80.2366 178.125 85.0983 178.125 91.102C178.129 93.2959 178.863 95.4262 180.211 97.1575C178.904 97.0883 176.697 97.6419 173.894 100.903C173.82 100.992 173.785 101.106 173.794 101.221C173.804 101.336 173.858 101.442 173.945 101.517C173.988 101.555 174.038 101.583 174.092 101.6C174.146 101.618 174.203 101.624 174.259 101.619C174.316 101.615 174.371 101.598 174.421 101.572C174.471 101.546 174.515 101.509 174.551 101.466C178.125 97.3045 180.488 98.0053 180.972 98.1956C180.162 98.6399 179.401 99.1707 178.705 99.7787C174.716 103.369 172.284 110.16 172.595 115.817C172.946 119.569 174.306 123.157 176.533 126.198C179.431 124.13 181.834 121.444 183.568 118.334C184.86 116.046 186.016 113.683 187.03 111.258C187.03 113.793 187.367 116.855 188.691 119.044C189.655 120.772 191.063 122.21 192.771 123.21C194.478 124.209 196.422 124.733 198.401 124.727C199.085 124.739 199.767 124.669 200.435 124.52C200.494 124.506 200.549 124.48 200.597 124.442C200.645 124.405 200.684 124.358 200.711 124.304C204.052 125.013 207.375 124.952 207.885 124.243C208.751 123.11 209.884 119.572 210.265 115.246C210.94 107.91 206.31 101.543 200.902 98.1956ZM189.453 118.516C187.774 115.774 187.817 111.301 188.025 108.732C188.086 108.551 188.129 108.438 188.129 108.438C188.211 111.08 188.885 113.67 190.103 116.017C191.321 118.363 193.051 120.406 195.164 121.994C196.334 122.8 197.629 123.405 198.998 123.784C196.895 123.932 192.525 123.525 189.462 118.516H189.453Z" fill="#263238"/>
<path d="M189.6 104.926C189.6 104.926 188.89 110.168 195.554 115.307C202.217 120.445 208.534 118.421 208.534 118.421" stroke="white" stroke-width="0.5" stroke-linecap="round" stroke-linejoin="round"/>
<path d="M190.578 103.127C190.578 103.127 197.605 113.343 207.288 110.67" stroke="white" stroke-width="0.5" stroke-linecap="round" stroke-linejoin="round"/>
<path d="M187.116 99.77C186.01 99.2083 184.77 98.9612 183.532 99.0558C182.295 99.1504 181.107 99.583 180.098 100.306C176.36 102.789 174.499 108.654 174.499 108.654" stroke="white" stroke-width="0.5" stroke-linecap="round" stroke-linejoin="round"/>
<path d="M187.289 102.616C187.289 102.616 184.269 101.82 182.409 103.68C181.506 104.505 180.739 105.465 180.133 106.526" stroke="white" stroke-width="0.5" stroke-linecap="round" stroke-linejoin="round"/>
</g>
<defs>
<clipPath id="clip0">
<rect width="298" height="335" fill="white" transform="translate(46 27)"/>
</clipPath>
</defs>
</svg>
