<svg width="389" height="389" viewBox="0 0 389 389" fill="none" xmlns="http://www.w3.org/2000/svg">
<rect width="389" height="389" rx="20" fill="#2A2A2A"/>
<g clip-path="url(#clip0)">
<path d="M141.742 319C157.523 319 170.317 317.801 170.317 316.323C170.317 314.845 157.523 313.646 141.742 313.646C125.96 313.646 113.166 314.845 113.166 316.323C113.166 317.801 125.96 319 141.742 319Z" fill="#C8DBFB"/>
<path d="M288.537 319C304.319 319 317.113 317.801 317.113 316.323C317.113 314.845 304.319 313.646 288.537 313.646C272.756 313.646 259.962 314.845 259.962 316.323C259.962 317.801 272.756 319 288.537 319Z" fill="#C8DBFB"/>
<path d="M348.912 127.84C348.83 127.343 348.742 126.854 348.646 126.357" stroke="#C8DBFB" stroke-linecap="round" stroke-linejoin="round"/>
<path d="M347.943 123.472C342.842 106.061 326.591 107.744 311.901 107.774L51.2763 108.315C26.6785 108.36 29.0961 143.983 48.3189 143.946C59.409 143.946 63.6085 164.783 44.4596 164.82C32.9703 164.82 32.6302 179.451 40.3267 182.38" stroke="#C8DBFB" stroke-linecap="round" stroke-linejoin="round" stroke-dasharray="3.99 3.99"/>
<path d="M41.7462 182.758C42.2346 182.843 42.7293 182.885 43.2249 182.884" stroke="#C8DBFB" stroke-linecap="round" stroke-linejoin="round"/>
<path d="M46.2413 182.209C46.3585 182.902 46.2683 183.613 45.9823 184.254C45.6963 184.895 45.2272 185.437 44.6343 185.811C44.0415 186.184 43.3515 186.373 42.6515 186.354C41.9515 186.334 41.273 186.107 40.7018 185.701C40.1305 185.295 39.6921 184.728 39.442 184.072C39.1919 183.416 39.1413 182.701 39.2966 182.016C39.4518 181.331 39.8061 180.708 40.3145 180.225C40.8228 179.742 41.4626 179.421 42.1528 179.302C43.0791 179.145 44.0296 179.363 44.7961 179.908C45.5625 180.453 46.0822 181.28 46.2413 182.209Z" fill="#5193F4"/>
<path d="M352.394 129.404C352.269 130.096 351.942 130.734 351.454 131.239C350.967 131.744 350.341 132.092 349.656 132.24C348.972 132.388 348.258 132.329 347.607 132.071C346.955 131.812 346.395 131.366 345.997 130.788C345.598 130.21 345.38 129.526 345.369 128.823C345.358 128.121 345.555 127.431 345.935 126.841C346.315 126.25 346.862 125.787 347.505 125.508C348.148 125.229 348.859 125.147 349.548 125.274C350.47 125.445 351.287 125.976 351.821 126.75C352.354 127.524 352.56 128.478 352.394 129.404Z" fill="#5193F4"/>
<path d="M82.3358 156.27C81.8144 159.146 81.0905 161.981 80.1695 164.753C78.0897 170.736 75.62 176.574 72.7762 182.231C71.3492 185.197 65.5602 192.109 62.4254 193.421C62.8867 185.182 62.7162 176.919 61.9153 168.706C61.0503 161.142 63.7636 155.41 60.8063 148.395C60.4292 147.498 60.0669 146.601 59.6455 145.703C58.1668 142.366 56.6882 139.03 56.2593 135.418C55.6679 130.858 57.08 125.66 61.0133 123.287C63.845 121.581 67.5343 121.67 70.5581 123.012C73.552 124.466 76.078 126.735 77.848 129.56C83.0234 137.242 83.955 147.164 82.3358 156.27Z" fill="#5193F4"/>
<path d="M68.5768 131.073C74.3732 139.274 74.8686 148.825 75.3713 158.866C75.8561 168.96 73.4825 178.987 68.525 187.785" stroke="#0B43A4" stroke-linecap="round" stroke-linejoin="round"/>
<path d="M68.3402 282.331C64.2812 278.735 60.2075 275.086 57.1762 270.563C54.5663 266.625 52.8806 262.154 50.6034 258.009C49.1248 255.332 47.3873 252.751 46.5371 249.807C45.6868 246.863 45.8865 243.393 47.964 241.154C50.0415 238.914 53.8787 238.462 56.8361 239.671C59.7934 240.879 62.0114 243.378 63.7637 246.048C66.0512 249.63 67.5625 253.655 68.1997 257.86C68.7764 261.657 68.6359 265.535 69.22 269.332C69.8194 272.858 70.9069 276.282 72.4509 279.506C73.8039 282.472 77.2344 287.663 78.1142 290.703C75.6818 291.912 70.0702 283.866 68.3402 282.331Z" fill="#00AD9F"/>
<g style="mix-blend-mode:multiply">
<path d="M54.1375 245.039C57.9968 246.73 59.5272 251.35 60.3331 255.495C61.2499 260.211 61.0724 265.32 63.2017 269.584C67.2681 277.674 72.5544 286.877 76.5098 289.606" stroke="#00AD9F" stroke-linecap="round" stroke-linejoin="round"/>
</g>
<path d="M48.3706 271.267C44.9992 269.94 40.5041 269.391 38.3452 272.306C36.5412 274.745 37.4728 278.201 38.7223 280.974C39.7795 283.31 41.1177 285.69 43.3431 286.958C44.9134 287.736 46.6225 288.192 48.3706 288.3C53.2142 288.875 58.0878 289.157 62.9652 289.146C69.1459 289.303 75.134 291.335 80.14 294.974C74.1366 283.792 59.7047 275.761 48.3706 271.267Z" fill="#0056EC"/>
<path d="M42.4633 278.542C46.7514 278.727 51.0766 279.024 55.1873 280.247C59.298 281.471 75.5782 288.946 78.1068 292.112" stroke="#0B43A4" stroke-linecap="round" stroke-linejoin="round"/>
<path d="M85.101 248.317C82.8789 244.879 79.9469 241.959 76.5032 239.755C73.0594 237.55 69.184 236.113 65.1388 235.54C59.1798 234.739 53.0506 235.859 47.1655 234.613C44.0649 233.957 41.1336 232.663 38.5569 230.813C35.9802 228.963 33.814 226.597 32.1951 223.864C30.5763 221.132 29.54 218.093 29.1516 214.938C28.7633 211.784 29.0314 208.583 29.9389 205.538C31.3215 200.925 34.4785 196.558 39.0476 195.075C41.5772 194.34 44.2588 194.312 46.8032 194.993C49.1255 195.571 51.3364 196.531 53.3464 197.833C57.9451 200.755 61.6639 205.249 64.4365 210.024C66.9724 214.362 73.2272 221.147 77.4858 225.507C79.9774 228.08 81.7961 229.83 81.7961 229.83C84.7387 233.471 83.3709 243.979 85.101 248.317Z" fill="#52D2BC"/>
<path d="M37.7168 208.415C52.0378 214.896 67.66 223.394 77.8111 235.422" stroke="#00AD9F" stroke-linecap="round" stroke-linejoin="round"/>
<g style="mix-blend-mode:multiply" opacity="0.2">
<path d="M79.1863 233.805C79.1863 233.805 57.8342 216.453 53.3464 197.833C57.9451 200.755 61.664 205.248 64.4365 210.024C66.9724 214.362 73.2272 221.147 77.4858 225.507C78.0108 227.843 78.5357 230.572 79.1863 233.805Z" fill="#5275A0"/>
</g>
<g style="mix-blend-mode:multiply" opacity="0.2">
<path d="M80.1695 164.753C78.0897 170.736 75.6199 176.574 72.7762 182.231C71.3492 185.197 65.5602 192.108 62.4254 193.421C62.8867 185.182 62.7162 176.919 61.9153 168.706C61.0503 161.142 63.7636 155.41 60.8063 148.395C60.4292 147.498 60.0669 146.601 59.6455 145.703C59.9191 145.792 60.1852 145.889 60.444 146C65.3088 148.091 67.5564 153.252 67.9705 158.265C68.3179 162.403 67.5712 166.548 67.0167 170.663C66.6647 172.546 66.6447 174.476 66.9576 176.366C66.9609 176.385 66.9609 176.405 66.9576 176.425C67.0799 176.896 67.3587 177.31 67.7478 177.6C68.1369 177.89 68.613 178.038 69.0974 178.02C69.5819 178.002 70.0456 177.819 70.4121 177.5C70.7785 177.182 71.0256 176.748 71.1126 176.269L72.4435 169.366C72.8279 167.304 73.2493 165.146 74.935 163.708C75.595 163.121 76.4487 162.801 77.3305 162.81C77.9365 162.84 78.5226 163.036 79.0238 163.379C79.5249 163.722 79.9215 164.198 80.1695 164.753Z" fill="#5275A0"/>
</g>
<path d="M79.1862 229.43C75.8148 211.774 74.0478 209.053 75.5265 204.633C77.4192 198.99 76.3546 193.317 78.1364 187.644C79.9182 181.972 81.1307 175.891 79.6964 170.107C79.238 168.283 78.3212 166.296 76.1328 166.214C75.247 166.213 74.3928 166.544 73.7373 167.141C72.0516 168.58 71.6228 170.738 71.2383 172.799L69.9519 179.688C69.8649 180.166 69.6177 180.6 69.2513 180.919C68.8849 181.237 68.4211 181.421 67.9367 181.439C67.4522 181.457 66.9761 181.309 66.587 181.019C66.1979 180.729 65.9192 180.314 65.7968 179.844V179.784C65.4813 177.895 65.4989 175.965 65.8486 174.082C66.4031 169.966 67.1498 165.821 66.8097 161.683C66.3957 156.671 64.1481 151.509 59.2758 149.418C57.5448 148.672 55.6168 148.518 53.7899 148.981C48.7107 150.286 47.3947 155.269 48.1414 159.518C48.6589 162.484 50.0637 165.265 51.3279 168.023C54.4184 174.764 52.1486 180.948 52.5774 188.356C53.7456 208.778 79.1862 229.43 79.1862 229.43Z" fill="#7EE8D4"/>
<path d="M56.5182 154.305C59.0245 166.867 61.5605 179.517 66.4253 191.382C67.8522 194.86 68.5546 199.427 76.813 208.882" stroke="#00AD9F" stroke-linecap="round" stroke-linejoin="round"/>
<path d="M154.296 157.501C151.701 154.535 149.305 151.502 146.784 148.603C145.15 146.712 143.464 144.895 141.609 143.115C140.699 142.24 139.76 141.395 138.77 140.572C132.908 135.71 126.382 131.715 119.392 128.707C115.177 126.898 110.727 125.408 107.148 122.523C103.57 119.638 101.019 114.915 102.195 110.473C103.06 107.27 105.773 104.778 108.849 103.636C112.013 102.605 115.401 102.484 118.63 103.288C127.65 105.238 135.184 111.741 140.307 119.431L140.581 119.846C144.337 125.593 146.961 131.985 149.246 138.496C149.985 140.587 150.673 142.693 151.361 144.791C152.47 147.928 155.627 154.416 154.296 157.501Z" fill="#5193F4"/>
<path d="M113.033 110.836C122.874 112.72 129.838 119.253 137.136 126.134C144.467 133.075 149.69 141.954 152.203 151.747" stroke="#0B43A4" stroke-linecap="round" stroke-linejoin="round"/>
<g style="mix-blend-mode:multiply" opacity="0.2">
<path d="M146.784 148.603C146.694 149.633 146.742 150.67 146.924 151.687C144.462 151.124 142.755 147.29 141.631 143.115C140.738 139.681 140.13 136.179 139.812 132.645C139.481 128.361 139.76 124.051 140.64 119.846C144.396 125.593 147.021 131.985 149.305 138.496C148.521 140.829 147.851 143.192 147.294 145.585C147.05 146.577 146.879 147.585 146.784 148.603Z" fill="#5275A0"/>
</g>
<path d="M163.855 113.009C163.027 116.717 160.794 119.905 158.835 123.153C157.793 124.859 156.832 126.616 155.93 128.396C153.034 134.096 150.834 140.127 149.379 146.356C148.828 148.344 148.704 150.427 149.017 152.466C144.167 151.361 142.237 137.532 141.904 133.416C141.307 125.966 142.577 118.484 145.601 111.652C146.932 108.686 148.64 105.72 151.279 103.851C153.919 101.982 157.638 101.278 160.425 102.939C162.071 103.964 163.249 105.597 163.707 107.485C164.211 109.286 164.261 111.184 163.855 113.009Z" fill="#52D2BC"/>
<path d="M147.161 148.358C144.145 140.757 145.971 124.673 150.813 114.566C152.292 111.526 154.347 108.634 157.253 106.965" stroke="#00AD9F" stroke-linecap="round" stroke-linejoin="round"/>
<g style="mix-blend-mode:multiply" opacity="0.2">
<path d="M163.855 113.009C163.027 116.717 160.795 119.905 158.835 123.153C157.793 124.859 156.832 126.616 155.93 128.396C154.576 126.179 153.728 123.69 153.446 121.107C153.039 116.798 154.68 112.208 158.17 109.642C159.825 108.494 161.728 107.754 163.722 107.485C164.221 109.287 164.266 111.185 163.855 113.009Z" fill="#5275A0"/>
</g>
<path d="M191.839 145.162C191.609 146.578 191.186 147.955 190.582 149.255C188.431 153.927 183.928 157.939 177.149 161.194C177.149 161.194 176.772 153.779 176.698 151.836C176.365 143.367 167.205 138.681 161.408 132.511C158.451 129.36 156.233 125.378 155.804 121.077C155.375 116.776 157.031 112.178 160.528 109.613C163.486 107.499 167.286 107.032 170.879 107.307C176.69 107.774 182.553 110.213 186.161 114.766C186.315 114.935 186.458 115.114 186.59 115.3C188.808 118.333 189.939 122.026 190.775 125.682C192.231 132.074 192.882 138.703 191.839 145.162Z" fill="#00AD9F"/>
<g style="mix-blend-mode:multiply">
<path d="M163.02 114.158C169.356 117.443 175.714 121.425 179.404 127.551C184.579 136.1 183.433 147.223 179.463 156.381" stroke="#00AD9F" stroke-linecap="round" stroke-linejoin="round"/>
</g>
<path d="M297.934 199.769C301.979 193.095 299.908 184.515 301.321 176.833C302.435 170.873 305.643 165.511 310.363 161.72C313.32 159.377 317.431 157.701 320.758 159.496C321.497 159.874 322.333 160.415 323.028 159.985C323.217 159.833 323.374 159.645 323.49 159.431C323.606 159.217 323.677 158.982 323.7 158.739C324.543 154.587 322.554 150.056 324.181 146.133C325.053 144.035 326.865 142.426 328.78 141.239C332.499 138.868 336.775 137.523 341.178 137.339C342.342 137.217 343.518 137.396 344.594 137.858C346.472 138.8 347.33 141.15 347.078 143.241C346.702 145.327 345.775 147.273 344.394 148.877C340.151 154.446 333.933 159.258 333.112 166.214C332.954 167.09 333.06 167.994 333.415 168.809C333.8 169.551 334.524 170.107 334.931 170.864C336.24 173.274 333.711 176.002 331.234 177.189C328.974 178.271 326.541 178.946 324.048 179.184C322.333 179.347 320.403 179.384 319.235 180.667C317.091 183.01 319.56 186.755 319.109 189.906C318.828 191.871 317.401 193.458 315.974 194.837C313.321 197.395 310.424 199.685 307.324 201.674C304.81 203.291 302.149 204.715 299.931 206.709C297.713 208.704 295.909 211.388 295.761 214.377" fill="#52D2BC"/>
<path d="M303.294 193.288C303.96 190.054 305.461 187.059 306.939 184.115C309.261 179.51 311.634 174.838 315.139 171.064C317.8 168.194 321.053 165.925 323.752 163.1C325.686 161.083 327.324 158.801 328.617 156.322C329.24 154.942 329.995 153.626 330.872 152.392C331.988 150.99 333.526 149.989 334.864 148.788C336.671 147.16 338.112 145.166 339.093 142.937" stroke="#00AD9F" stroke-linecap="round" stroke-linejoin="round"/>
<path d="M355.98 204.411C355.071 207.925 353.718 211.403 351.396 214.191C349.764 216.086 347.806 217.671 345.614 218.871C344.484 219.511 343.316 220.083 342.117 220.584C337.478 222.536 332.528 223.636 327.501 223.831C320.196 224.106 312.714 222.489 305.675 224.573C302.453 225.543 299.503 227.257 297.062 229.578C295.537 231.01 294.233 232.662 293.195 234.48L294.149 228.399C295.916 221.859 297.72 215.2 301.328 209.468C303.735 205.796 306.617 202.46 309.897 199.546C314.989 194.722 320.761 190.674 327.027 187.533C332.114 185.057 337.763 183.314 343.382 184.004C349.001 184.693 354.472 188.245 356.261 193.644C357.385 197.107 356.897 200.888 355.98 204.411Z" fill="#5193F4"/>
<path d="M298.925 223.78C304.362 215.761 312.262 209.743 321.423 206.643C327.086 204.752 333.083 204.025 338.82 202.364C344.557 200.703 350.287 197.915 353.651 192.932" stroke="#0B43A4" stroke-linecap="round" stroke-linejoin="round"/>
<path d="M302.459 282.19C302.777 274.033 306.991 266.462 312.115 260.085C316.381 254.768 321.534 249.904 327.9 247.479C329.889 246.737 332.077 246.204 334.147 246.737C336.217 247.271 338.095 249.029 338.132 251.187C338.169 252.989 336.957 254.568 335.685 255.844C331.508 260.048 326.074 262.74 321.031 265.81C312.322 271.089 304.027 278.141 300.589 287.737" fill="#52D2BC"/>
<path d="M305.683 275.034C311.006 263.125 324.78 252.477 333.874 251.15" stroke="#00AD9F" stroke-linecap="round" stroke-linejoin="round"/>
<path d="M299.132 288.693C299.058 287.322 303.517 283.74 304.522 282.821C310.047 277.818 316.584 274.072 323.686 271.838C326.51 270.949 329.512 270.303 332.343 270.986C335.175 271.668 337.763 273.996 338.044 277.059C338.325 280.121 336.328 282.924 333.792 284.363C331.257 285.801 328.299 286.017 325.475 285.846C321.113 285.586 316.825 284.504 312.44 284.533C308.056 284.563 301.912 285.045 299.132 288.693Z" fill="#00AD9F"/>
<g style="mix-blend-mode:multiply">
<path d="M303.672 284.526C312.625 279.662 326.162 276.495 335.996 277.689" stroke="#00AD9F" stroke-linecap="round" stroke-linejoin="round"/>
</g>
<g style="mix-blend-mode:multiply" opacity="0.2">
<path d="M191.839 145.162C191.609 146.578 191.186 147.955 190.582 149.255C186.76 141.049 184.529 132.188 184.01 123.146C183.863 120.196 184.619 117.273 186.176 114.766C186.33 114.936 186.473 115.114 186.605 115.3C188.823 118.333 189.954 122.026 190.789 125.682C192.231 132.074 192.882 138.703 191.839 145.162Z" fill="#5275A0"/>
</g>
<path d="M222.81 144.791C229.501 142.403 236.444 140.505 242.521 136.834C244.4 135.783 246.067 134.39 247.438 132.726C248.809 131.037 249.46 128.873 249.249 126.705C248.953 124.54 247.571 122.464 248.036 120.321C248.347 118.912 249.397 117.814 250.203 116.613C251.156 115.181 251.785 113.558 252.047 111.857C252.309 110.156 252.197 108.418 251.718 106.765C250.668 103.236 248.022 100.41 246.543 97.0437C245.311 94.2778 244.878 91.2202 245.293 88.2195C239.682 88.2936 234.558 91.3636 229.028 92.3943C224.806 93.1729 220.415 92.7503 216.237 93.7143C212.426 94.6618 208.972 96.7044 206.301 99.5917C203.63 102.479 201.857 106.085 201.199 109.969C199.421 109.678 197.6 109.825 195.892 110.399C194.183 110.973 192.64 111.955 191.396 113.261C190.084 114.677 189.068 116.342 188.407 118.158C187.747 119.974 187.456 121.905 187.551 123.835C189.274 151.591 205.118 166.103 205.118 166.103C205.118 166.103 220.259 145.696 222.81 144.791Z" fill="#7EE8D4"/>
<path d="M207.853 144.591C207.158 137.747 209.547 130.984 212.289 124.673C214.958 118.519 218.027 112.49 222.152 107.218C226.278 101.945 231.52 97.4071 237.678 94.8636" stroke="#00AD9F" stroke-linecap="round" stroke-linejoin="round"/>
<path d="M213.835 99.0608C213.147 105.555 213.613 112.121 215.21 118.452" stroke="#00AD9F" stroke-linecap="round" stroke-linejoin="round"/>
<path d="M216.319 116.272C223.269 111.823 233.959 109.086 242.196 109.554" stroke="#00AD9F" stroke-linecap="round" stroke-linejoin="round"/>
<path d="M199.321 117.414C207.691 120.951 208.038 133.29 208.26 136.797" stroke="#00AD9F" stroke-linecap="round" stroke-linejoin="round"/>
<path d="M210.537 128.952C216.94 124.347 226.196 122.96 233.006 124.673" stroke="#00AD9F" stroke-linecap="round" stroke-linejoin="round"/>
<path d="M228.008 95.8944C226.379 97.9141 225.586 100.483 225.79 103.072" stroke="#00AD9F" stroke-linecap="round" stroke-linejoin="round"/>
<path d="M227.616 101.33C230.573 99.8468 234.514 99.4686 238.706 100.529" stroke="#00AD9F" stroke-linecap="round" stroke-linejoin="round"/>
<path d="M63.0095 114.752C63.8006 114.707 69.1608 110.725 71.2236 109.383C71.8287 109.04 72.3652 108.587 72.8058 108.048C73.022 107.775 73.1631 107.45 73.215 107.105C73.2669 106.76 73.2277 106.408 73.1015 106.083C72.9072 105.587 72.5582 105.167 72.1064 104.887C71.6547 104.606 71.1245 104.479 70.5951 104.526C67.9187 104.526 66.9946 105.416 65.6933 106.75C61.383 111.222 63.0095 114.752 63.0095 114.752Z" fill="#4A49CA"/>
<path d="M87.0454 130.806C89.3743 131.859 91.8733 132.912 94.4388 132.586C95.4295 132.459 96.5015 132.007 96.8268 131.102C96.9344 130.691 96.9219 130.257 96.7908 129.852C96.6598 129.447 96.4157 129.088 96.0875 128.819C95.4164 128.29 94.6272 127.934 93.7882 127.78C90.6829 127.039 86.3208 127.439 83.2378 128.314C84.4338 129.252 85.7077 130.086 87.0454 130.806Z" fill="#4A49CA"/>
<path d="M102.424 96.228C101.381 95.5681 100.206 94.6857 100.206 93.4473C100.206 92.2089 101.492 91.2672 102.727 91.2598C103.973 91.3372 105.15 91.8639 106.039 92.7428C109.965 96.1984 109.477 100.158 109.477 100.158C109.477 100.158 103.584 96.9622 102.424 96.228Z" fill="#4A49CA"/>
<path d="M105.521 85.676C104.572 85.3546 103.739 84.7586 103.126 83.9631C102.989 83.7685 102.896 83.5461 102.854 83.3117C102.812 83.0773 102.821 82.8364 102.882 82.6061C103.148 81.8645 103.621 81.123 105.551 81.5012C111.651 82.6135 112.944 86.8032 112.944 86.8032C112.944 86.8032 107.141 86.3731 105.521 85.676Z" fill="#4A49CA"/>
<path d="M123.391 94.9378C125.917 94.728 128.258 93.526 129.905 91.5935C130.524 90.896 130.972 90.0631 131.214 89.1613C131.327 88.7074 131.319 88.2313 131.189 87.7817C131.059 87.3322 130.813 86.9254 130.474 86.603C130.013 86.2699 129.46 86.0907 128.892 86.0907C128.324 86.0907 127.771 86.2699 127.31 86.603C126.416 87.3022 125.723 88.2257 125.299 89.2799C124.648 90.6295 123.391 94.9378 123.391 94.9378Z" fill="#4A49CA"/>
<path d="M79.7038 184.419L61.9597 168.706C58.8027 165.91 55.5792 163.04 53.583 159.325C49.2579 151.339 51.7347 140.965 57.5385 134.002C63.3423 127.039 71.8816 122.931 80.3914 119.942C88.9012 116.954 97.825 114.855 105.965 110.896C111.067 108.419 116.242 104.719 117.61 99.209C118.032 97.5435 118.082 95.805 117.757 94.1178C117.432 92.4305 116.739 90.8361 115.728 89.4484C114.718 88.0607 113.414 86.9139 111.91 86.0901C110.407 85.2662 108.74 84.7855 107.03 84.6824" stroke="#0B43A4" stroke-linecap="round" stroke-linejoin="round"/>
<path d="M127.532 89.2799C125.912 94.2704 119.606 97.3033 116.73 101.619" stroke="#0B43A4" stroke-linecap="round" stroke-linejoin="round"/>
<path d="M104.893 94.9823C106.135 96.2948 107.621 97.3775 108.708 98.8309C110.993 101.893 111.185 106.862 107.799 109.954" stroke="#0B43A4" stroke-linecap="round" stroke-linejoin="round"/>
<path d="M72.9906 122.886C78.3782 127.049 84.8917 129.486 91.6811 129.879" stroke="#0B43A4" stroke-linecap="round" stroke-linejoin="round"/>
<path d="M61.0281 130.242C59.889 126.648 59.8727 122.791 60.9814 119.187C62.0901 115.583 64.2708 112.405 67.2311 110.08" stroke="#0B43A4" stroke-linecap="round" stroke-linejoin="round"/>
<path d="M252.081 100.173C251.907 99.7406 251.851 99.2696 251.919 98.8084C251.987 98.3472 252.175 97.9123 252.465 97.5481C252.726 97.2822 253.058 97.0974 253.422 97.0159C253.785 96.9344 254.164 96.9595 254.513 97.0883C259.688 99.3871 259.149 107.514 259.149 107.514C259.149 107.514 254.217 106.802 252.081 100.173Z" fill="#4A49CA"/>
<path d="M251.955 115.404C248.583 121.5 260.546 121.032 264.849 117.458C264.849 117.458 254.853 110.161 251.955 115.404Z" fill="#4A49CA"/>
<path d="M267.067 100.633C266.254 99.5205 265.965 97.8594 266.845 96.7991C267.2 96.4252 267.645 96.1507 268.138 96.0024C268.631 95.8542 269.154 95.8374 269.655 95.9537C270.871 96.2771 271.967 96.9468 272.812 97.8817C276.745 102.791 274.897 107.596 274.897 107.596C274.897 107.596 268.39 102.464 267.067 100.633Z" fill="#4A49CA"/>
<path d="M314.518 115.723C314.34 115.258 314.294 114.754 314.384 114.264C314.474 113.775 314.697 113.32 315.028 112.95C315.271 112.751 315.551 112.602 315.852 112.513C316.153 112.424 316.468 112.396 316.78 112.431C317.403 112.501 318.009 112.682 318.569 112.964C319.778 113.527 320.752 114.499 321.32 115.708C322.798 118.763 321.793 122.538 321.793 122.538C321.793 122.538 315.242 118.088 314.518 115.723Z" fill="#4A49CA"/>
<path d="M299.598 126.905C298.524 125.976 297.214 125.363 295.813 125.135C294.413 124.908 292.977 125.074 291.665 125.615C291.002 125.889 290.423 126.334 289.986 126.905C289.047 128.21 289.373 130.131 290.356 131.414C291.424 132.63 292.772 133.567 294.282 134.143C296.944 135.351 301.069 135.626 303.893 136.315C303.886 136.315 303.879 130.68 299.598 126.905Z" fill="#4A49CA"/>
<path d="M255.807 101.478C257.567 107.255 262.542 111.608 268.08 113.966C273.618 116.324 279.717 116.932 285.728 117.332C291.739 117.733 297.801 117.911 303.612 119.497C309.268 121.032 314.902 124.243 317.335 129.597C320.292 136.115 317.675 143.901 313.52 149.73C309.365 155.558 303.783 160.245 299.768 166.162C297.927 168.876 296.389 172.057 296.759 175.328C297.254 179.68 300.914 182.884 304.307 185.642" stroke="#0B43A4" stroke-linecap="round" stroke-linejoin="round"/>
<path d="M269.647 99.3647C273.842 104.249 276.59 110.214 277.58 116.583" stroke="#0B43A4" stroke-linecap="round" stroke-linejoin="round"/>
<path d="M256.265 116.413C258.515 117.116 260.846 117.528 263.2 117.636C265.74 117.497 268.145 116.444 269.972 114.67" stroke="#0B43A4" stroke-linecap="round" stroke-linejoin="round"/>
<path d="M318.414 116.086C320.56 118.184 321.824 121.026 321.948 124.028C322.059 126.994 320.418 130.598 318.444 132.815" stroke="#0B43A4" stroke-linecap="round" stroke-linejoin="round"/>
<path d="M296.108 129.56C300.094 133.332 304.336 136.823 308.803 140.008C310.969 141.536 315.257 143.486 317.157 142.974" stroke="#0B43A4" stroke-linecap="round" stroke-linejoin="round"/>
<g style="mix-blend-mode:multiply" opacity="0.2">
<path d="M345.614 218.871C344.484 219.511 343.316 220.083 342.117 220.584C337.478 222.536 332.527 223.636 327.5 223.831C320.196 224.106 312.714 222.489 305.675 224.573C302.453 225.543 299.503 227.257 297.062 229.578C296.818 229.697 296.574 229.83 296.323 229.971C295.738 225.01 308.071 218.544 311.849 216.861C318.653 213.799 326.113 212.494 333.548 213.064C336.787 213.324 340.106 213.962 342.775 215.808C343.928 216.615 344.896 217.659 345.614 218.871Z" fill="#5275A0"/>
</g>
<path d="M333.519 216.038C336.757 216.297 340.077 216.935 342.753 218.782C345.429 220.628 347.307 223.928 346.679 227.124C345.94 230.832 342.117 233.264 338.361 233.724C334.606 234.183 330.857 233.138 327.153 232.396C318.942 230.703 310.517 230.315 302.185 231.247C300.133 231.397 298.135 231.981 296.323 232.96C295.738 227.999 308.078 221.533 311.849 219.849C318.642 216.787 326.091 215.476 333.519 216.038Z" fill="#52D2BC"/>
<path d="M299.531 229.816C305.66 224.417 321.379 220.754 332.498 221.933C335.848 222.289 339.226 223.29 341.799 225.47" stroke="#00AD9F" stroke-linecap="round" stroke-linejoin="round"/>
<path d="M288.094 169.158L347.891 169.032C349.561 169.028 351.215 169.354 352.759 169.992C354.303 170.629 355.707 171.565 356.89 172.747C358.073 173.929 359.012 175.333 359.654 176.879C360.296 178.425 360.627 180.082 360.63 181.757C360.636 185.136 359.304 188.38 356.926 190.774C354.548 193.169 351.32 194.518 347.951 194.526L307.043 194.608" stroke="#0B43A4" stroke-linecap="round" stroke-linejoin="round" stroke-dasharray="4 4"/>
<path d="M107.148 213.198L65.3237 213.287C64.3788 213.289 63.4436 213.478 62.5718 213.843C61.7001 214.209 60.9089 214.744 60.2438 215.417C59.5788 216.09 59.0529 216.889 58.6965 217.766C58.3401 218.644 58.1601 219.584 58.1669 220.532V220.532C58.1689 221.476 58.3563 222.411 58.7185 223.283C59.0807 224.155 59.6106 224.947 60.2779 225.613C60.9452 226.28 61.7369 226.808 62.6077 227.168C63.4786 227.527 64.4115 227.712 65.3533 227.71H77.545" stroke="#0B43A4" stroke-linecap="round" stroke-linejoin="round" stroke-dasharray="4 4"/>
<path d="M40.3932 245.684C26.0426 245.744 25.769 267.144 43.9937 267.107L312.655 266.551C323.937 266.551 325.127 248.88 311.176 248.91C283.436 248.969 282.512 235.696 297.912 235.666" stroke="#C8DBFB" stroke-linecap="round" stroke-linejoin="round" stroke-dasharray="4 4"/>
<path d="M43.7423 245.084C43.8613 245.777 43.7726 246.489 43.4875 247.131C43.2024 247.773 42.7338 248.316 42.1409 248.691C41.5481 249.066 40.8576 249.256 40.157 249.237C39.4564 249.218 38.7772 248.991 38.2052 248.585C37.6333 248.179 37.1945 247.611 36.9442 246.955C36.694 246.298 36.6436 245.582 36.7995 244.896C36.9554 244.211 37.3106 243.588 37.82 243.105C38.3294 242.622 38.9701 242.302 39.6612 242.184C40.5855 242.027 41.5342 242.245 42.2993 242.788C43.0643 243.332 43.5832 244.157 43.7423 245.084Z" fill="#5193F4"/>
<path d="M304.773 235.763C304.89 236.455 304.8 237.167 304.514 237.808C304.228 238.449 303.759 238.991 303.166 239.364C302.573 239.738 301.883 239.927 301.183 239.908C300.483 239.888 299.805 239.661 299.234 239.255C298.662 238.849 298.224 238.282 297.974 237.626C297.724 236.97 297.673 236.254 297.828 235.569C297.984 234.885 298.338 234.261 298.846 233.778C299.355 233.295 299.994 232.974 300.685 232.856C301.144 232.776 301.614 232.788 302.068 232.891C302.522 232.995 302.952 233.187 303.331 233.457C303.711 233.727 304.034 234.07 304.282 234.465C304.529 234.861 304.696 235.302 304.773 235.763Z" fill="#0B43A4"/>
<g style="mix-blend-mode:multiply" opacity="0.2">
<path d="M308.647 297.733L86.1878 298.192C84.7636 298.194 83.3968 297.629 82.3876 296.621C81.3784 295.613 80.8094 294.245 80.8055 292.816L80.5023 145.006C80.5004 144.298 80.6375 143.597 80.9058 142.942C81.1741 142.287 81.5684 141.692 82.0662 141.19C82.5639 140.688 83.1554 140.289 83.8067 140.016C84.4581 139.744 85.1567 139.602 85.8625 139.6L308.322 139.141C309.028 139.139 309.727 139.276 310.379 139.545C311.032 139.815 311.625 140.21 312.125 140.71C312.624 141.209 313.021 141.802 313.292 142.455C313.563 143.109 313.704 143.809 313.704 144.517L314.015 292.334C314.015 293.763 313.45 295.134 312.444 296.146C311.438 297.158 310.072 297.729 308.647 297.733Z" fill="#5275A0"/>
</g>
<path d="M304.293 294.907L81.8331 295.367C80.4089 295.369 79.042 294.804 78.0329 293.796C77.0237 292.788 76.4546 291.42 76.4507 289.991L76.1476 142.181C76.1437 140.754 76.7042 139.383 77.7062 138.37C78.7082 137.357 80.0701 136.783 81.493 136.775L303.953 136.315C304.659 136.314 305.358 136.453 306.01 136.723C306.663 136.993 307.256 137.389 307.756 137.889C308.255 138.389 308.652 138.983 308.923 139.637C309.194 140.29 309.334 140.991 309.335 141.699L309.653 289.494C309.656 290.203 309.519 290.905 309.252 291.561C308.984 292.216 308.59 292.813 308.092 293.315C307.594 293.818 307.002 294.218 306.35 294.491C305.698 294.764 304.999 294.906 304.293 294.907Z" fill="white"/>
<path d="M303.605 136.315L82.0992 136.775C81.3297 136.777 80.568 136.931 79.8578 137.229C79.1477 137.526 78.5029 137.961 77.9604 138.508C77.418 139.056 76.9884 139.705 76.6964 140.419C76.4044 141.134 76.2555 141.899 76.2585 142.67V147.772L309.461 147.29V142.174C309.457 140.619 308.838 139.129 307.74 138.03C306.643 136.932 305.156 136.315 303.605 136.315Z" fill="#0056EC"/>
<path d="M82.3654 295.367L115.835 295.301L115.503 147.676L76.1846 147.757L76.5025 289.494C76.5015 290.266 76.6525 291.031 76.9469 291.745C77.2413 292.458 77.6733 293.106 78.218 293.652C78.7627 294.198 79.4095 294.63 80.1212 294.924C80.8329 295.219 81.5956 295.369 82.3654 295.367Z" fill="#C8DBFB"/>
<path d="M304.034 137.799C305.065 137.8 306.054 138.212 306.784 138.943C307.514 139.673 307.926 140.664 307.93 141.699L308.233 289.494C308.234 290.007 308.135 290.516 307.94 290.99C307.745 291.465 307.459 291.896 307.097 292.26C306.736 292.623 306.307 292.912 305.835 293.109C305.363 293.307 304.856 293.409 304.344 293.41L81.8775 293.869C80.8467 293.869 79.8578 293.46 79.1276 292.73C78.3973 292 77.9851 291.01 77.9812 289.976L77.678 142.174C77.68 141.138 78.0898 140.146 78.8183 139.412C79.5468 138.679 80.5348 138.264 81.5669 138.258L304.034 137.799ZM304.034 136.315L81.5743 136.775C80.8685 136.777 80.1699 136.919 79.5185 137.191C78.8672 137.464 78.2757 137.863 77.778 138.365C77.2802 138.867 76.8859 139.462 76.6176 140.117C76.3493 140.772 76.2122 141.473 76.2141 142.181L76.5173 289.991C76.5212 291.418 77.0892 292.786 78.0968 293.794C79.1044 294.801 80.4693 295.367 81.8923 295.367L304.352 294.907C305.058 294.908 305.757 294.768 306.409 294.496C307.062 294.225 307.654 293.827 308.153 293.325C308.651 292.824 309.046 292.229 309.315 291.574C309.584 290.919 309.721 290.217 309.719 289.509L309.416 141.699C309.415 140.991 309.275 140.29 309.004 139.637C308.733 138.983 308.337 138.389 307.837 137.889C307.337 137.389 306.744 136.993 306.091 136.723C305.439 136.453 304.74 136.314 304.034 136.315Z" fill="#0056EC"/>
<path d="M110.181 279.691L84.3928 279.745C83.2536 279.747 82.332 280.676 82.3344 281.818L82.3349 282.07C82.3373 283.213 83.2628 284.137 84.402 284.135L110.19 284.081C111.329 284.078 112.251 283.15 112.248 282.008L112.248 281.755C112.246 280.613 111.32 279.688 110.181 279.691Z" fill="white"/>
<path d="M107.021 154.334L85.07 154.38C82.9835 154.384 81.2955 156.084 81.2999 158.177L81.3459 180.193C81.3502 182.286 83.0453 183.979 85.1318 183.974L107.083 183.928C109.169 183.924 110.857 182.224 110.853 180.131L110.807 158.115C110.802 156.022 109.107 154.329 107.021 154.334Z" fill="white"/>
<path d="M201.09 244.166L124.583 244.327C123.097 244.33 121.894 245.541 121.897 247.031L121.898 247.365C121.901 248.856 123.109 250.062 124.595 250.059L201.102 249.898C202.588 249.895 203.79 248.684 203.787 247.193L203.786 246.859C203.783 245.369 202.576 244.163 201.09 244.166Z" fill="#C8DBFB"/>
<path d="M196.475 157.093H136.019C134.533 157.093 133.328 158.302 133.328 159.792V160.126C133.328 161.617 134.533 162.825 136.019 162.825H196.475C197.961 162.825 199.166 161.617 199.166 160.126V159.792C199.166 158.302 197.961 157.093 196.475 157.093Z" fill="#C8DBFB"/>
<path d="M292.24 218.065L211.63 218.234C210.144 218.238 208.941 219.449 208.944 220.939L208.945 221.273C208.948 222.764 210.156 223.97 211.642 223.966L292.252 223.797C293.738 223.794 294.94 222.583 294.937 221.092L294.937 220.759C294.934 219.268 293.726 218.062 292.24 218.065Z" fill="#C8DBFB"/>
<path d="M201.107 256.023L124.6 256.184C123.114 256.187 121.912 257.398 121.915 258.888L121.916 259.222C121.919 260.713 123.126 261.919 124.612 261.916L201.119 261.755C202.605 261.752 203.808 260.541 203.804 259.05L203.804 258.716C203.801 257.226 202.593 256.02 201.107 256.023Z" fill="#C8DBFB"/>
<path d="M201.139 267.872L124.633 268.033C123.146 268.036 121.944 269.247 121.947 270.738L121.948 271.072C121.951 272.562 123.158 273.768 124.645 273.765L201.151 273.605C202.637 273.601 203.84 272.39 203.837 270.9L203.836 270.566C203.833 269.075 202.625 267.869 201.139 267.872Z" fill="#C8DBFB"/>
<path d="M290.532 239.202L213.426 239.364C210.972 239.369 208.987 241.369 208.992 243.83L209.061 277.044C209.067 279.505 211.06 281.496 213.514 281.491L290.62 281.329C293.074 281.324 295.059 279.324 295.054 276.863L294.984 243.65C294.979 241.188 292.986 239.197 290.532 239.202Z" fill="#C8DBFB"/>
<path d="M89.0491 142.151C89.0505 142.526 88.9412 142.892 88.7349 143.204C88.5287 143.516 88.2347 143.759 87.8904 143.904C87.546 144.048 87.1667 144.086 86.8005 144.014C86.4343 143.942 86.0977 143.763 85.8333 143.498C85.5689 143.234 85.3886 142.897 85.3152 142.53C85.2419 142.163 85.2788 141.783 85.4212 141.437C85.5637 141.091 85.8054 140.795 86.1156 140.587C86.4257 140.379 86.7905 140.268 87.1637 140.268C87.4112 140.266 87.6567 140.313 87.8858 140.407C88.115 140.501 88.3232 140.64 88.4986 140.815C88.674 140.99 88.8129 141.198 88.9074 141.428C89.0019 141.657 89.05 141.903 89.0491 142.151Z" fill="#C8DBFB"/>
<path d="M95.1486 144.027C96.1899 144.027 97.0339 143.181 97.0339 142.137C97.0339 141.092 96.1899 140.246 95.1486 140.246C94.1074 140.246 93.2633 141.092 93.2633 142.137C93.2633 143.181 94.1074 144.027 95.1486 144.027Z" fill="#C8DBFB"/>
<path d="M105.011 142.114C105.013 142.488 104.904 142.854 104.698 143.166C104.492 143.478 104.198 143.721 103.854 143.866C103.51 144.01 103.131 144.049 102.765 143.978C102.399 143.906 102.063 143.727 101.798 143.464C101.533 143.201 101.353 142.864 101.278 142.498C101.204 142.131 101.24 141.751 101.381 141.405C101.523 141.059 101.763 140.763 102.072 140.554C102.382 140.345 102.746 140.232 103.119 140.231C103.618 140.231 104.097 140.429 104.452 140.781C104.806 141.134 105.007 141.613 105.011 142.114Z" fill="#C8DBFB"/>
<path d="M130.556 160.309C130.856 157.306 128.671 154.627 125.677 154.327C122.683 154.026 120.012 156.216 119.712 159.22C119.412 162.223 121.596 164.901 124.591 165.202C127.585 165.503 130.256 163.312 130.556 160.309Z" fill="#C8DBFB"/>
<path d="M108.368 186.554H84.2286C83.6692 186.554 83.2157 187.009 83.2157 187.57V187.704C83.2157 188.265 83.6692 188.72 84.2286 188.72H108.368C108.927 188.72 109.381 188.265 109.381 187.704V187.57C109.381 187.009 108.927 186.554 108.368 186.554Z" fill="white"/>
<path d="M108.628 191.014L84.4886 191.065C83.9292 191.066 83.4767 191.522 83.4778 192.083L83.4781 192.216C83.4793 192.777 83.9337 193.231 84.4931 193.23L108.632 193.179C109.192 193.178 109.644 192.722 109.643 192.161L109.643 192.028C109.642 191.467 109.187 191.013 108.628 191.014Z" fill="white"/>
<path d="M136.263 202.95L129.439 203.017L129.491 231.699H123.576C123.082 231.7 122.592 231.603 122.135 231.415C121.678 231.226 121.263 230.949 120.913 230.599C120.563 230.249 120.285 229.833 120.095 229.376C119.905 228.918 119.806 228.428 119.805 227.932L119.695 174.89C119.695 173.879 120.095 172.908 120.807 172.192C121.52 171.476 122.486 171.073 123.495 171.071H136.167L136.263 202.95Z" fill="#C8DBFB"/>
<path d="M180.564 170.967V171.709C181.545 171.709 182.485 172.1 183.178 172.795C183.872 173.49 184.261 174.433 184.261 175.417L184.372 227.131C184.372 228.115 183.982 229.058 183.289 229.753C182.596 230.448 181.656 230.839 180.675 230.839L124.286 230.958C123.305 230.958 122.365 230.567 121.672 229.872C120.979 229.176 120.589 228.233 120.589 227.25L120.478 175.535C120.478 174.552 120.868 173.609 121.561 172.914C122.254 172.218 123.195 171.828 124.175 171.828L180.55 171.709V170.967H180.564ZM180.55 170.967L124.168 171.086C122.991 171.086 121.863 171.555 121.031 172.389C120.199 173.224 119.732 174.355 119.732 175.535L119.842 227.25C119.842 228.43 120.31 229.562 121.142 230.396C121.974 231.23 123.102 231.699 124.278 231.699L180.66 231.58C181.837 231.58 182.965 231.112 183.797 230.277C184.629 229.443 185.096 228.311 185.096 227.131L185 175.417C185 174.237 184.533 173.105 183.701 172.271C182.869 171.436 181.741 170.967 180.564 170.967H180.55Z" fill="#C8DBFB"/>
<path d="M285.098 167.306L209.891 150.252C207.498 149.709 205.118 151.215 204.577 153.616L196.114 191.161C195.572 193.562 197.074 195.948 199.468 196.491L274.675 213.545C277.069 214.088 279.448 212.582 279.989 210.181L288.453 172.636C288.994 170.235 287.492 167.849 285.098 167.306Z" fill="#C8DBFB"/>
<path d="M129.143 315.641L118.623 315.663L116.042 302.212L131.665 302.182L129.143 315.641Z" fill="#0056EC"/>
<path d="M118.955 302.212C118.955 303.309 118.748 305.178 119.48 305.178C120.212 305.178 119.909 303.428 120.737 303.472C121.269 303.472 120.486 309.316 122.489 309.457C123.872 309.553 123.62 306.609 123.761 304.763C123.756 304.546 123.832 304.336 123.975 304.174C124.117 304.012 124.315 303.909 124.529 303.887C124.744 303.864 124.959 303.924 125.131 304.053C125.304 304.182 125.422 304.372 125.461 304.585C125.461 305.512 125.417 306.127 125.461 307.18C125.535 308.93 128.227 308.47 128.13 306.12C128.034 303.769 128.13 302.189 128.13 302.189L118.955 302.212Z" fill="#C8DBFB"/>
<path d="M116.442 310.332C116.23 310.333 116.02 310.31 115.813 310.265C115.468 310.204 115.142 310.062 114.861 309.851C114.581 309.64 114.355 309.365 114.201 309.049C113.129 306.772 115.954 302.493 116.065 302.308L116.205 303.05C116.205 303.094 113.728 306.757 114.726 308.819C114.844 309.063 115.019 309.275 115.237 309.437C115.455 309.598 115.708 309.704 115.976 309.746C116.15 309.786 116.329 309.803 116.508 309.798C120.294 309.798 126.77 302.709 126.859 302.627C127.125 302.308 127.598 302.627 127.443 302.879C127.095 303.242 120.515 310.324 116.442 310.332Z" fill="#0C2340"/>
<g style="mix-blend-mode:multiply" opacity="0.2">
<path d="M227.017 126.446C212.06 125.875 191.47 136.968 198.774 164.093C198.619 166.385 199.987 168.023 201.443 167.571C202.9 167.119 201.613 162.781 201.613 162.781C204.105 142.611 208.763 139.126 216.674 139.193H235.224C239.808 139.875 248.14 143.086 249.389 159.214L254.01 160.074C254.365 148.388 251.541 127.387 227.017 126.446Z" fill="#5275A0"/>
</g>
<path d="M227.017 124.088C212.06 123.509 191.47 134.603 198.774 161.728L201.613 160.415C204.105 140.253 208.763 136.76 216.674 136.835H235.224C239.808 137.509 248.362 141.588 249.611 157.731H254.01C254.365 146.03 251.541 125.029 227.017 124.088Z" fill="#EF832B"/>
<path d="M223.956 124.525L221.738 129.427C221.738 129.427 222.004 132.178 224.696 132.126C227.387 132.074 227.764 130.806 227.764 130.806L228.111 125.185L223.956 124.525Z" fill="#FFB9A3"/>
<path d="M235.379 120.424C232.843 124.918 231.727 126.312 228.414 126.987C224.126 127.862 219.313 124.963 221.553 117.814C223.372 111.986 226.13 112.883 228.836 113.105C231.542 113.328 238.115 115.59 235.379 120.424Z" fill="#FFB9A3"/>
<path d="M225.309 116.902C224.958 116.758 224.57 116.728 224.201 116.817C223.832 116.906 223.501 117.11 223.254 117.399C222.976 117.677 222.778 118.024 222.678 118.405C222.578 118.785 222.58 119.185 222.684 119.564C222.167 119.595 221.682 119.83 221.336 120.217C220.989 120.604 220.81 121.113 220.836 121.633C220.097 119.98 220.511 118.252 220.37 116.554C220.23 114.856 220.415 113.017 221.509 111.719C221.971 111.195 222.528 110.765 223.15 110.451C224.325 109.837 225.627 109.508 226.952 109.488C228.277 109.469 229.588 109.761 230.78 110.34C231.804 110.983 233.037 111.201 234.218 110.948C237.479 110.154 239.394 112.371 237.427 114.448C238.089 114.592 238.668 114.991 239.039 115.56C239.08 115.636 239.102 115.722 239.102 115.808C239.102 115.895 239.08 115.981 239.039 116.057C238.958 116.147 238.853 116.212 238.736 116.242C238.183 116.427 237.594 116.473 237.02 116.376C237.235 116.568 238.447 116.635 238.817 117.347C239.793 119.231 235.933 118.274 235.342 118.089C236.015 118.215 237.774 119.624 237.212 120.595C237.102 120.788 234.721 122.174 232.222 119.26C231.678 118.553 230.941 118.02 230.1 117.725C229.406 117.621 228.696 117.732 228.067 118.044C227.586 118.222 226.366 118.971 226.019 118.526C225.671 118.081 226.093 117.288 225.309 116.902Z" fill="#0C2340"/>
<path d="M250.062 157.701C249.404 159.993 248.732 160.215 249.537 160.578C250.343 160.942 251.016 159.666 251.016 159.666L254.713 160.408C254.713 160.408 253.877 157.99 253.293 157.701C252.709 157.412 250.062 157.701 250.062 157.701Z" fill="#FFB9A3"/>
<path d="M201.613 160.415C202.101 161.624 202.234 161.632 202.907 163.085C204.201 165.858 201.177 170.241 199.299 165.458C198.955 164.252 198.778 163.004 198.774 161.75L201.613 160.415Z" fill="#FFB9A3"/>
<path d="M230.595 110.733C232.022 110.866 233.368 110.369 234.765 110.221C235.985 110.087 237.42 110.273 238.196 111.326C238.388 111.578 238.795 111.363 238.625 111.081C238.273 110.55 237.779 110.129 237.2 109.867C236.621 109.604 235.979 109.511 235.349 109.598C233.745 109.709 232.222 110.391 230.595 110.28C230.322 110.28 230.329 110.673 230.595 110.703V110.733Z" fill="#0C2340"/>
<path d="M231.616 109.301C230.011 109.687 228.407 108.834 226.788 109.005C225.271 109.211 223.855 109.885 222.736 110.933C222.47 111.177 222.818 111.674 223.121 111.437C224.378 110.577 225.723 109.724 227.298 109.709C228.873 109.694 230.255 110.384 231.734 109.835C231.805 109.816 231.864 109.769 231.901 109.705C231.937 109.641 231.946 109.565 231.926 109.494C231.907 109.423 231.86 109.363 231.796 109.327C231.732 109.291 231.657 109.282 231.586 109.301H231.616Z" fill="#0C2340"/>
<path d="M221.753 111.704C221.149 112.037 220.64 112.52 220.274 113.105C219.941 113.704 219.749 114.371 219.712 115.056C219.673 115.847 219.737 116.64 219.905 117.414C220.015 117.97 220.045 118.837 220.703 119.03C220.764 119.047 220.829 119.042 220.886 119.014C220.942 118.987 220.987 118.94 221.012 118.881C221.036 118.823 221.039 118.758 221.019 118.698C220.999 118.638 220.957 118.587 220.903 118.556C220.688 118.407 220.651 118.081 220.6 117.814C220.548 117.547 220.466 117.199 220.415 116.887C220.292 116.252 220.242 115.605 220.267 114.959C220.305 114.368 220.477 113.793 220.771 113.279C221.064 112.765 221.471 112.325 221.96 111.993C222.137 111.867 221.96 111.578 221.79 111.696L221.753 111.704Z" fill="#0C2340"/>
<path d="M240.51 115.879C240.18 115.282 239.659 114.814 239.031 114.551C238.718 114.4 238.374 114.321 238.026 114.321C237.678 114.321 237.334 114.4 237.02 114.551C236.981 114.577 236.951 114.615 236.935 114.659C236.918 114.703 236.916 114.75 236.928 114.796C236.941 114.841 236.967 114.881 237.003 114.91C237.04 114.94 237.085 114.957 237.131 114.959C237.42 114.959 237.708 114.959 237.996 114.959C238.42 114.985 238.832 115.103 239.205 115.305C239.578 115.508 239.902 115.789 240.155 116.131C240.181 116.173 240.223 116.204 240.272 116.216C240.32 116.228 240.371 116.221 240.414 116.196C240.458 116.171 240.489 116.13 240.503 116.082C240.517 116.034 240.511 115.982 240.488 115.938L240.51 115.879Z" fill="#0C2340"/>
<path d="M158.236 229C166.081 231.884 172.89 240.909 171.323 247.464C169.563 254.879 164.469 258.068 164.469 258.068L162.857 255.102C162.857 255.102 166.931 248.717 166.554 245.699C165.992 240.864 159.9 237.639 159.9 237.639L158.236 229Z" fill="#0B43A4"/>
<path d="M138.932 312.586C138.932 312.586 134.119 314.536 132.914 315.633H142.452V312.593L138.932 312.586Z" fill="#0C2340"/>
<path d="M160.011 312.4C160.791 313.32 161.345 314.409 161.63 315.582H155.124C155.282 314.443 155.697 313.355 156.336 312.4H160.011Z" fill="#0C2340"/>
<path d="M160.41 312.541H155.974C156.063 307.291 154.983 289.398 153.941 276.021C153.327 268.175 152.721 261.872 152.366 260.597L154.747 260.07L163.73 258.068C165.26 265.12 161.711 297.466 160.41 312.541Z" fill="#047F76"/>
<path d="M144.078 260.322C140.61 265.795 139.716 305.363 138.259 312.697L142.474 312.934C146.259 294.929 151.329 277.22 157.645 259.944L144.078 260.322Z" fill="#009790"/>
<g style="mix-blend-mode:multiply" opacity="0.2">
<path d="M159.405 259.944C157.371 265.483 155.545 270.904 153.933 276.028C153.32 268.183 152.714 261.88 152.359 260.604L154.739 260.078L159.405 259.944Z" fill="#5275A0"/>
</g>
<path d="M144.078 260.322C140.61 265.795 139.716 305.363 138.259 312.697L142.474 312.934C146.259 294.929 151.329 277.22 157.645 259.944L144.078 260.322Z" fill="#009790"/>
<path d="M146.725 216.149C146.725 216.149 144.026 226.464 150.762 226.464L150.362 229.096L155.486 229.66L154.377 225.989C154.377 225.989 155.427 219.486 155.427 218.307C155.582 216.134 149.512 212.278 146.725 216.149Z" fill="#FFB9A3"/>
<path d="M130.051 204.594L128.063 204.598L128.079 213.014L130.068 213.01L130.051 204.594Z" fill="#0C2340"/>
<path d="M134.755 201.389L123.347 201.411C122.551 201.412 121.907 202.061 121.908 202.86L121.909 203.164C121.91 203.962 122.557 204.608 123.353 204.607L134.761 204.585C135.557 204.583 136.202 203.935 136.2 203.136L136.199 202.832C136.198 202.034 135.551 201.387 134.755 201.389Z" fill="#0056EC"/>
<path d="M127.539 215.207C127.48 213.294 125.912 213.798 126.8 210.684C127.332 208.756 131.302 210.988 130.807 212.323C130.312 213.658 129.742 215.771 129.742 215.771L127.539 215.207Z" fill="#FFB9A3"/>
<path d="M150.813 228.473C140.736 229.141 140.071 232.552 135.561 232.018C128.907 231.224 130.053 218.796 130.881 214.34H126.896C126.896 214.34 119.709 242.659 142.422 237.424C141.55 242.385 147.191 250.482 141.72 260.315C150.34 262.666 158.377 263.244 165.26 260.27C164.055 258.646 167.729 242.184 160.536 230.342C159.124 228.036 151.553 228.421 150.813 228.473Z" fill="#0056EC"/>
<path d="M150.813 228.473C140.736 229.141 140.071 232.552 135.561 232.018C128.907 231.224 130.053 218.796 130.881 214.34H126.896C126.896 214.34 119.709 242.659 142.422 237.424C141.55 242.385 147.191 250.482 141.72 260.315C150.34 262.666 158.377 263.244 165.26 260.27C164.055 258.646 167.729 242.184 160.536 230.342C159.124 228.036 151.553 228.421 150.813 228.473Z" fill="#0056EC"/>
<path d="M149.423 218.122C150.081 218.292 150.85 218.418 151.198 218.982C151.388 219.365 151.455 219.797 151.39 220.22C151.456 219.99 151.6 219.79 151.797 219.655C151.994 219.519 152.232 219.457 152.47 219.479C152.701 219.509 152.915 219.618 153.075 219.788C153.236 219.959 153.333 220.179 153.349 220.413C153.341 220.63 153.29 220.844 153.202 221.043C153.005 221.545 152.758 222.024 152.462 222.474C153.283 222.778 153.941 225.188 154.384 225.945C155.767 225.596 158.82 224.402 159.116 219.486C159.242 217.195 158.547 214.451 156.07 212.923C154.318 211.848 151.412 211.833 149.416 212.345C147.797 212.76 145.202 214.392 146.414 216.29C147.168 217.24 148.235 217.89 149.423 218.122Z" fill="#EF832B"/>
<path d="M158.059 214.992C158.519 214.811 159.023 214.775 159.504 214.889C159.985 215.003 160.42 215.261 160.75 215.63C161.08 216.3 161.264 217.033 161.29 217.78C161.335 218.142 161.499 218.479 161.756 218.737C162.115 219 162.552 219.136 162.998 219.123C164.083 219.094 165.169 219.129 166.251 219.226C166.785 219.272 167.297 219.462 167.732 219.777C168.167 220.091 168.509 220.519 168.72 221.014C168.89 221.57 168.801 222.178 169.001 222.726C169.304 223.542 170.169 224.002 170.923 224.476C172.522 225.478 173.874 226.829 174.879 228.429C175.537 229.407 175.946 230.533 176.069 231.706C176.143 232.871 176.979 234.413 176.757 235.555C176.535 236.697 175.278 238.469 172.905 239.263C168.764 240.605 167.448 241.183 163.478 238.818C163.005 238.529 162.066 237.557 161.637 237.216C161.307 236.935 161.069 236.56 160.957 236.141C160.834 235.556 160.829 234.953 160.94 234.366C161.052 233.779 161.279 233.221 161.608 232.722C162.199 231.684 163.005 230.765 163.611 229.756C164.01 229.156 164.226 228.453 164.232 227.732C164.238 227.596 164.217 227.461 164.17 227.333C164.123 227.206 164.051 227.089 163.959 226.99C163.781 226.831 163.559 226.73 163.323 226.701C162.451 226.523 161.489 226.701 160.698 226.315C160.322 226.126 160.023 225.812 159.849 225.428C159.676 225.043 159.639 224.611 159.745 224.202C159.9 223.668 160.306 223.216 160.417 222.675C160.467 222.272 160.399 221.864 160.22 221.5C160.041 221.137 159.76 220.833 159.412 220.628C158.695 220.216 157.898 219.963 157.076 219.886C156.668 219.851 156.274 219.725 155.922 219.516C155.732 219.362 155.58 219.166 155.479 218.944C155.377 218.721 155.329 218.477 155.338 218.233C155.36 216.624 156.61 215.474 158.059 214.992Z" fill="#EF832B"/>
<path d="M157.349 219.145C157.682 219.187 158.001 219.302 158.284 219.481C158.568 219.661 158.809 219.9 158.99 220.183C159.171 220.466 159.288 220.785 159.333 221.118C159.378 221.451 159.349 221.79 159.249 222.111C158.887 223.327 157.963 224.336 157.933 225.648C157.927 226.153 158.102 226.642 158.427 227.028C158.751 227.413 159.203 227.668 159.7 227.747C160.237 227.838 160.784 227.863 161.327 227.821C161.9 227.743 162.482 227.866 162.975 228.169C163.574 228.674 163.412 229.563 163.168 230.209C162.799 230.903 162.549 231.655 162.428 232.433C162.428 232.7 162.865 232.767 162.909 232.5C163.101 231.202 164.188 230.023 163.84 228.651C163.493 227.28 162.184 227.287 161.105 227.324C160.462 227.4 159.81 227.308 159.212 227.057C158.896 226.874 158.651 226.589 158.517 226.248C158.383 225.908 158.367 225.531 158.473 225.181C158.746 223.817 159.915 222.712 159.752 221.251C159.673 220.645 159.389 220.085 158.947 219.664C158.506 219.243 157.934 218.986 157.327 218.937C157.157 218.937 157.164 219.182 157.327 219.204L157.349 219.145Z" fill="#EF832B"/>
<path d="M147.043 213.02C148.811 211.994 150.86 211.56 152.891 211.781C154.801 212.089 156.571 212.977 157.963 214.325C158.006 214.368 158.065 214.393 158.126 214.393C158.187 214.393 158.245 214.368 158.288 214.325C158.331 214.282 158.356 214.223 158.356 214.162C158.356 214.101 158.331 214.042 158.288 213.999C155.597 210.81 150.155 210.12 146.917 212.857C146.821 212.931 146.917 213.072 147.043 213.02Z" fill="#EF832B"/>
<path d="M276.176 225.114L274.505 228.473L278.578 230.142L279.015 226.278L276.176 225.114Z" fill="#FFB9A3"/>
<path d="M278.63 214.177C269.396 218.211 273.181 227.977 278.8 226.835C281.543 226.271 282.926 217.439 282.926 217.439L278.63 214.177Z" fill="#FFB9A3"/>
<path d="M281.699 212.783C281.443 212.192 281.073 211.658 280.612 211.21C280.373 210.993 280.066 210.866 279.744 210.85C279.422 210.834 279.104 210.93 278.845 211.122C278.224 211.7 278.586 212.783 279.222 213.346C278.675 213.413 278.031 213.035 277.632 213.405C277.233 213.776 277.44 214.191 277.632 214.57C278.041 215.462 278.698 216.216 279.525 216.742C279.059 217.009 278.512 217.528 278.786 217.988C278.867 218.114 278.993 218.203 279.074 218.337C279.251 218.633 279.074 219.011 278.896 219.315C278.608 219.797 278.29 220.265 277.958 220.717C278.051 220.623 278.165 220.554 278.29 220.514C278.416 220.474 278.549 220.464 278.679 220.487C278.809 220.51 278.931 220.563 279.036 220.643C279.141 220.723 279.225 220.827 279.281 220.947C279.372 221.2 279.389 221.474 279.33 221.737C279.271 222 279.139 222.24 278.948 222.43C278.755 222.66 278.498 222.825 278.209 222.904C277.95 222.964 276.834 226.434 277.706 227.116C278.786 227.954 282.453 227.228 282.985 226.278C283.231 226.585 283.551 226.825 283.914 226.976C284.277 227.126 284.672 227.182 285.063 227.139C285.252 227.103 285.43 227.026 285.585 226.912C285.74 226.797 285.868 226.65 285.958 226.479C286.048 226.309 286.099 226.121 286.106 225.928C286.114 225.735 286.078 225.543 286.002 225.366C286.42 225.523 286.877 225.546 287.31 225.431C287.742 225.316 288.128 225.07 288.414 224.725C288.701 224.381 288.874 223.956 288.909 223.509C288.944 223.062 288.84 222.615 288.611 222.23C289.062 222.096 289.151 221.488 289.04 221.021C288.915 220.556 288.674 220.13 288.339 219.785C288.003 219.44 287.586 219.186 287.125 219.049C287.359 219.03 287.577 218.925 287.737 218.753C287.897 218.582 287.987 218.356 287.99 218.122C287.978 217.647 287.794 217.194 287.473 216.846C287.079 216.383 286.593 216.008 286.045 215.746C285.497 215.484 284.9 215.341 284.294 215.326C282.985 215.178 282.275 213.858 281.699 212.783Z" fill="#4A49CA"/>
<path d="M273.048 311.941C273.048 311.941 267.644 314.543 266.919 315.352C266.919 315.352 277.551 315.834 278.379 315.352C279.207 314.87 276.678 311.955 276.678 311.955L273.048 311.941Z" fill="#0C2340"/>
<path d="M293.151 308.997C293.151 308.997 288.397 312.667 287.857 313.609C287.857 313.609 299.066 311.941 299.066 311.206C299.066 310.472 296.7 308.24 296.7 308.24L293.151 308.997Z" fill="#0C2340"/>
<path d="M278.268 261.694C278.068 262.799 270.675 292.097 291.842 309.649L297.971 308.24C297.971 308.24 290.837 301.567 287.473 289.45C284.294 278.023 286.822 276.903 288.73 270.607C290.837 263.644 289.269 258.587 289.269 258.587L278.268 261.694Z" fill="#D8742A"/>
<path d="M268.154 261.605C264.797 269.651 259.038 297.058 271.592 312.497H277.861C277.861 312.497 272.923 307.069 272.375 294.47C271.828 281.871 275.015 276.347 277.27 272.187C279.525 268.027 281.602 260.968 281.602 260.968L268.154 261.605Z" fill="#EF832B"/>
<path d="M263.733 211.737C262.062 217.625 261.515 228.51 269.862 232.893L275.444 231.529C275.444 231.529 265.374 226.234 267.533 212.857L263.733 211.737Z" fill="#0B43A4"/>
<path d="M248.347 208.719L252.679 208.185C252.679 208.185 252.155 226.464 273.181 227.947C289.232 229.126 290.489 259.329 290.489 259.329C285.314 262.821 276.634 263.882 265.507 263.081C265.507 263.081 266.246 241.532 264.45 235.644C264.45 235.666 246.979 230.172 248.347 208.719Z" fill="#0056EC"/>
<path d="M243.046 205.404C242.307 206.257 245.375 207.34 248.347 208.719L252.147 208.252C252.173 207.733 252.173 207.213 252.147 206.694C252.095 205.901 251.704 205.441 251.253 206.124C250.802 206.806 248.872 207.043 247.97 206.42C247.068 205.797 243.778 204.551 243.046 205.404Z" fill="#FFB9A3"/>
<path d="M263.733 211.737C262.335 210.358 262.705 210.447 262.705 210.447L266.956 211.411C266.956 211.411 267.895 209.327 268.686 209.268C269.477 209.208 268.087 210.706 268.405 211.255C268.723 211.804 267.533 212.857 267.533 212.857L263.733 211.737Z" fill="#FFB9A3"/>
<path d="M284.072 214.792C284.56 214.933 285.07 214.992 285.55 215.155C286.015 215.3 286.438 215.555 286.785 215.897C287.075 216.182 287.26 216.556 287.313 216.959C287.365 217.363 287.281 217.772 287.074 218.122C286.852 218.44 287.362 218.863 287.613 218.537C287.947 218.085 288.108 217.527 288.065 216.966C288.023 216.406 287.782 215.879 287.384 215.482C286.981 215.055 286.47 214.745 285.905 214.584C285.32 214.388 284.7 214.322 284.087 214.392C283.887 214.392 283.909 214.733 284.087 214.777L284.072 214.792Z" fill="#4A49CA"/>
<path d="M287.931 222.704C288.217 222.821 288.456 223.03 288.609 223.299C288.762 223.568 288.82 223.881 288.774 224.187C288.574 224.929 287.879 225.315 287.295 225.708C287.249 225.745 287.217 225.799 287.206 225.858C287.195 225.918 287.206 225.979 287.237 226.031C287.267 226.083 287.315 226.122 287.372 226.142C287.429 226.161 287.491 226.16 287.547 226.138C287.969 225.98 288.348 225.727 288.656 225.398C288.964 225.068 289.192 224.672 289.321 224.239C289.367 223.832 289.279 223.42 289.071 223.067C288.863 222.714 288.546 222.438 288.168 222.282C287.902 222.148 287.672 222.541 287.931 222.682V222.704Z" fill="#4A49CA"/>
<path d="M278.224 227.124C279.197 227.749 280.359 228.012 281.506 227.865C282.674 227.786 283.769 227.27 284.574 226.419C284.752 226.204 284.515 225.804 284.249 225.997C283.439 226.643 282.485 227.083 281.469 227.28C280.42 227.435 279.349 227.28 278.386 226.835C278.351 226.823 278.313 226.823 278.278 226.836C278.243 226.849 278.213 226.874 278.194 226.906C278.175 226.938 278.167 226.976 278.173 227.013C278.178 227.05 278.196 227.084 278.224 227.109V227.124Z" fill="#4A49CA"/>
<path d="M288.19 216.082C288.403 216.29 288.554 216.554 288.625 216.844C288.695 217.134 288.683 217.438 288.589 217.721C288.487 218.047 288.335 218.355 288.138 218.633C287.924 218.945 287.702 219.249 287.465 219.545C287.229 219.842 287.554 220.027 287.754 219.842C288.442 219.319 288.926 218.572 289.122 217.729C289.185 217.383 289.139 217.027 288.991 216.709C288.842 216.392 288.598 216.128 288.293 215.956C288.212 215.919 288.109 216.023 288.19 216.082Z" fill="#4A49CA"/>
<path d="M163.123 80.6188L161.393 76.3698L178.125 70L163.123 80.6188Z" fill="#0B43A4"/>
<path d="M163.966 78.0012L178.125 70L168.269 80.0404L163.966 78.0012Z" fill="#5193F4"/>
<path d="M157.564 74.642L178.125 70L161.393 76.3698L157.564 74.642Z" fill="#5193F4"/>
<path d="M163.966 78.0011L163.123 80.6187L165.682 78.8094L163.966 78.0011Z" fill="#0056EC"/>
<path d="M161.157 80.0478C156.795 79.3063 150.865 83.7555 153.416 88.353C154.281 89.9251 158.761 89.2429 158.429 87.5077C158.266 86.6771 157.253 86.3212 156.41 86.4176C151.531 86.9812 151.338 91.0819 151.553 92.1274C152.669 97.5258 160.92 95.7016 163.693 94.9378" stroke="#C8DBFB" stroke-linecap="round" stroke-linejoin="round" stroke-dasharray="4 4"/>
</g>
<defs>
<clipPath id="clip0">
<rect width="332" height="249" fill="white" transform="translate(29 70)"/>
</clipPath>
</defs>
</svg>
