<svg width="389" height="389" viewBox="0 0 389 389" fill="none" xmlns="http://www.w3.org/2000/svg">
<rect width="389" height="389" rx="20" fill="#2A2A2A"/>
<path d="M27.4346 245.292L53.3762 327.381C57.3195 339.859 68.8957 348.341 81.9818 348.341H288.176C302.127 348.341 314.236 338.724 317.396 325.136L333.721 254.942C335.793 246.033 333.687 236.665 328.001 229.5L195.046 61.9399C192.38 58.5796 189.026 55.8145 185.181 53.9125C135.223 29.1993 104.561 25.6469 62.0733 47.2377C51.4698 52.626 46.0236 64.4498 47.6094 76.2376L58.6552 158.344C59.5277 164.83 58.2555 171.424 55.0324 177.119L29.9309 221.477C25.8295 228.724 24.9252 237.351 27.4346 245.292Z" fill="#A5ABB0" stroke="black"/>
<g clip-path="url(#clip0)">
<path d="M171.893 102.122H94.6511V174.063H171.893V102.122Z" fill="#112B46"/>
<g style="mix-blend-mode:screen">
<g style="mix-blend-mode:screen">
<path d="M171.893 102.122H94.6511V109.731H171.893V102.122Z" fill="#1D262D"/>
</g>
</g>
<path d="M155.233 106.017C155.233 106.294 155.15 106.565 154.996 106.795C154.842 107.025 154.622 107.204 154.366 107.31C154.109 107.416 153.827 107.443 153.555 107.388C153.283 107.334 153.033 107.2 152.838 107.003C152.642 106.807 152.509 106.557 152.456 106.285C152.403 106.013 152.431 105.732 152.539 105.477C152.646 105.221 152.827 105.003 153.058 104.851C153.29 104.698 153.562 104.617 153.839 104.619C154.023 104.619 154.205 104.655 154.374 104.725C154.544 104.796 154.698 104.899 154.827 105.029C154.957 105.159 155.059 105.313 155.129 105.483C155.199 105.652 155.234 105.834 155.233 106.017Z" fill="#606BF1"/>
<path d="M161.029 106.017C161.029 106.294 160.946 106.565 160.792 106.795C160.638 107.025 160.418 107.204 160.162 107.31C159.905 107.416 159.623 107.443 159.351 107.388C159.079 107.334 158.829 107.2 158.634 107.003C158.438 106.807 158.305 106.557 158.252 106.285C158.199 106.013 158.228 105.732 158.335 105.477C158.442 105.221 158.623 105.003 158.854 104.851C159.086 104.698 159.358 104.617 159.635 104.619C159.819 104.619 160.001 104.655 160.17 104.725C160.34 104.796 160.494 104.899 160.623 105.029C160.753 105.159 160.855 105.313 160.925 105.483C160.995 105.652 161.03 105.834 161.029 106.017Z" fill="#FBD15B"/>
<path d="M166.453 106.16C166.454 106.436 166.373 106.708 166.22 106.939C166.067 107.17 165.849 107.35 165.593 107.457C165.337 107.564 165.055 107.593 164.783 107.54C164.51 107.487 164.26 107.354 164.063 107.159C163.866 106.964 163.732 106.715 163.677 106.443C163.623 106.172 163.65 105.89 163.756 105.634C163.862 105.378 164.041 105.159 164.272 105.005C164.502 104.851 164.774 104.769 165.051 104.769C165.422 104.769 165.777 104.915 166.04 105.176C166.302 105.436 166.451 105.79 166.453 106.16Z" fill="#FF8578"/>
<path d="M119.324 116.803H108.381V117.719H119.324V116.803Z" fill="#FF8578"/>
<path d="M132.167 116.803H121.224V117.719H132.167V116.803Z" fill="#FBD15B"/>
<path d="M128.739 121.749H111.77V122.665H128.739V121.749Z" fill="#606BF1"/>
<path d="M140.165 121.749H131.542V122.665H140.165V121.749Z" fill="#FF8578"/>
<path d="M125.104 126.695H117.653V127.612H125.104V126.695Z" fill="#FBD15B"/>
<path d="M154.132 126.695H129.412V127.612H154.132V126.695Z" fill="#FBD15B"/>
<path d="M151.693 131.633H123.442V132.55H151.693V131.633Z" fill="#606BF1"/>
<path d="M125.073 136.58H116.379V137.496H125.073V136.58Z" fill="#FF8578"/>
<path d="M137.488 136.58H128.794V137.496H137.488V136.58Z" fill="#606BF1"/>
<path d="M121.026 162.219H108.381V163.136H121.026V162.219Z" fill="#FF8578"/>
<path d="M138.106 162.219H125.461V163.136H138.106V162.219Z" fill="#FBD15B"/>
<path d="M154.726 162.219H142.081V163.136H154.726V162.219Z" fill="#FF8578"/>
<path d="M136.491 157.281H111.77V158.198H136.491V157.281Z" fill="#606BF1"/>
<path d="M165.059 157.281H140.339V158.198H165.059V157.281Z" fill="#FF8578"/>
<path d="M142.184 152.335H117.653V153.251H142.184V152.335Z" fill="#FF8578"/>
<path d="M151.147 152.335H144.322V153.251H151.147V152.335Z" fill="#FBD15B"/>
<path d="M125.286 147.396H116.054V148.313H125.286V147.396Z" fill="#FBD15B"/>
<path d="M139.42 147.396H130.188V148.313H139.42V147.396Z" fill="#606BF1"/>
<path d="M154.591 147.396H145.359V148.313H154.591V147.396Z" fill="#FF8578"/>
<path d="M139.697 142.45H126.751V143.367H139.697V142.45Z" fill="#FBD15B"/>
<path d="M121.866 142.45H108.92V143.367H121.866V142.45Z" fill="#606BF1"/>
<path d="M102.403 115.926H101.223V117.103H102.403V115.926Z" fill="#F9FBFC"/>
<path d="M102.403 159.019H101.223V156.649H102.403V159.019ZM102.403 153.03H101.223V150.66H102.403V153.03ZM102.403 147.041H101.223V144.671H102.403V147.041ZM102.403 141.052H101.223V138.681H102.403V141.052ZM102.403 135.063H101.223V132.668H102.403V135.063ZM102.403 129.073H101.223V126.703H102.403V129.073ZM102.403 123.092H101.223V120.722H102.403V123.092Z" fill="#F9FBFC"/>
<path d="M102.403 162.614H101.223V163.792H102.403V162.614Z" fill="#F9FBFC"/>
<path d="M252.119 86.8408H188.513V125.968H252.119V86.8408Z" fill="#FF8578"/>
<path d="M213.217 102.58L205.648 105.804L213.217 108.965L212.243 111.256L203.169 107.21V104.413L212.243 100.344L213.217 102.58Z" fill="#F9FBFC"/>
<path d="M224.366 95.1214L218.879 116.17L216.258 115.562L221.801 94.5288L224.366 95.1214Z" fill="#F9FBFC"/>
<path d="M237.502 104.413V107.21L228.428 111.256L227.438 108.965L234.984 105.804L227.438 102.588L228.428 100.352L237.502 104.413Z" fill="#F9FBFC"/>
<path d="M286.159 162.638H249.934V188.396H286.159V162.638Z" fill="#606BF1"/>
<path d="M265.089 168.224C263.925 168.224 263.505 168.54 263.505 169.409V173.281C263.505 174.798 262.872 175.256 261.819 175.557C262.078 175.587 262.329 175.67 262.556 175.8C262.782 175.93 262.98 176.104 263.138 176.312C263.295 176.52 263.409 176.758 263.472 177.011C263.535 177.264 263.547 177.527 263.505 177.785V181.656C263.505 182.526 263.909 182.834 265.089 182.834V184.533C262.151 184.533 261.32 183.592 261.32 181.641V177.943C261.32 176.892 261.043 176.481 260.077 176.481V174.545C261.043 174.545 261.32 174.119 261.32 173.068V169.394C261.32 167.418 262.112 166.494 265.089 166.494V168.224Z" fill="#F1F2F2"/>
<path d="M274.797 169.394V173.068C274.797 174.119 275.074 174.545 276.056 174.545V176.481C275.074 176.481 274.797 176.892 274.797 177.943V181.656C274.797 183.608 273.965 184.548 271.028 184.548V182.85C272.176 182.85 272.611 182.541 272.611 181.672V177.793C272.611 176.299 273.237 175.841 274.298 175.565C273.237 175.264 272.611 174.774 272.611 173.289V169.417C272.611 168.548 272.223 168.232 271.028 168.232V166.533C273.949 166.494 274.797 167.434 274.797 169.394Z" fill="#F1F2F2"/>
<path d="M110.709 92.4508H70.0654V119.576H110.709V92.4508Z" fill="#FBD15B"/>
<path d="M83.5183 100.273C82.5523 101.517 82.0597 103.063 82.1281 104.636C82.1964 106.208 82.8213 107.706 83.8916 108.862C84.9619 110.018 86.4084 110.758 87.9739 110.95C89.5394 111.143 91.1226 110.775 92.4421 109.913L96.71 114.171C96.752 114.215 96.8025 114.25 96.8583 114.273C96.914 114.297 96.974 114.309 97.0346 114.309C97.0952 114.309 97.1552 114.297 97.2109 114.273C97.2667 114.25 97.3172 114.215 97.3592 114.171L98.5549 112.978C98.6414 112.891 98.69 112.773 98.69 112.65C98.69 112.528 98.6414 112.41 98.5549 112.323L94.2633 108.072C95.1031 106.645 95.3811 104.958 95.043 103.339C94.705 101.719 93.7752 100.283 92.4346 99.3104C91.0939 98.3374 89.4384 97.897 87.7903 98.0749C86.1422 98.2529 84.6194 99.0364 83.5183 100.273ZM92.0778 107.74C91.4159 108.409 90.5695 108.867 89.6463 109.054C88.723 109.242 87.7646 109.152 86.8929 108.795C86.0212 108.438 85.2756 107.831 84.7508 107.05C84.226 106.269 83.9458 105.35 83.9458 104.409C83.9458 103.469 84.226 102.55 84.7508 101.769C85.2756 100.988 86.0212 100.381 86.8929 100.024C87.7646 99.6666 88.723 99.5763 89.6463 99.7642C90.5695 99.9522 91.4159 100.41 92.0778 101.079C92.946 101.965 93.432 103.155 93.432 104.394C93.432 105.633 92.946 106.822 92.0778 107.708V107.74Z" fill="#F9FBFC"/>
<path d="M228.935 176.244C228.848 177.137 227.62 186.516 217.976 186.516C207.857 186.516 209.551 176.521 209.551 176.521V176.457C210.592 176.24 211.661 176.189 212.718 176.307V171.567L224.208 165.159H224.619V176.22C226.055 176.081 227.501 176.088 228.935 176.244Z" fill="url(#paint0_radial)"/>
<path d="M223.329 143.999C225.057 145.765 226.253 147.98 226.781 150.391C227.882 155.242 226.844 160.386 225.427 165.064C225.222 165.876 224.882 166.648 224.422 167.347C224.051 167.815 223.629 168.239 223.163 168.611L217.034 173.945C215.656 175.154 207.144 176.157 205.521 175.004C199.266 170.539 198.062 157.621 199.313 150.992C201.427 140.025 215.553 136.098 223.329 143.999Z" fill="url(#paint1_radial)"/>
<path d="M219.845 158.04C219.924 156.981 221.017 155.827 222.109 156.515C223.202 157.202 222.972 159.098 222.505 160.125C222.133 160.916 220.922 161.824 220.074 161.066C219.378 160.442 220.462 159.699 220.494 159.122C220.526 158.545 219.488 158.229 219.916 157.676" fill="#F7B094"/>
<path d="M220.043 162.923C220.791 163.041 221.558 162.894 222.209 162.508C222.86 162.121 223.354 161.518 223.606 160.805C223.908 159.701 224.055 158.56 224.041 157.415C224.423 158.625 224.518 159.908 224.319 161.161C224.026 163.468 223.21 165.664 221.397 165.696C219.584 165.728 220.043 162.923 220.043 162.923Z" fill="#F7B094"/>
<path d="M218.641 161.279L218.515 161.319C217.81 161.413 217.525 160.528 217.422 160.031C217.237 158.783 217.155 157.523 217.176 156.262C217.197 155.92 217.156 155.578 217.058 155.25C216.662 154.35 215.609 153.757 215.284 152.825C214.904 151.734 215.965 150.644 215.545 149.451C214.904 147.626 212.552 147.207 210.858 147.231C208.322 147.346 205.797 147.645 203.304 148.123C200.643 148.534 197.247 148.913 194.911 147.246C192.084 145.224 190.912 139.961 193.018 137.077C193.656 136.311 194.454 135.694 195.357 135.271C196.261 134.848 197.246 134.628 198.244 134.628C200.263 134.581 201.974 135.782 203.826 136.382C205.307 136.864 206.732 135.458 208.118 135.181C209.852 134.833 210.589 136.761 212.125 136.761C213.661 136.761 215.078 135.647 216.527 135.386C219.417 134.857 219.243 137.757 221.183 138.745C222.387 139.361 223.946 138.989 225.142 139.614C226.068 140.088 226.203 140.925 226.401 141.866C226.502 142.722 226.653 143.571 226.852 144.41C227.181 145.05 227.627 145.623 228.167 146.101C228.651 146.706 229.017 147.398 229.244 148.139C229.779 149.811 229.96 151.577 229.774 153.322C229.412 156.241 228.683 159.103 227.605 161.84C226.971 163.626 226.734 165.475 225.76 167.158C225.498 167.616 224.342 168.935 223.907 167.948C223.834 167.729 223.812 167.497 223.843 167.268C223.978 165.435 225.688 153.607 221.199 155.029C220.75 155.192 220.343 155.454 220.01 155.797C219.677 156.139 219.425 156.552 219.275 157.004C218.906 158.053 218.771 159.169 218.879 160.276C218.879 160.434 218.879 160.6 218.879 160.758C218.89 160.858 218.874 160.959 218.832 161.051C218.79 161.143 218.724 161.221 218.641 161.279Z" fill="#3D3D7A"/>
<path d="M212.718 175.193C217.818 174.403 221.191 170.358 221.191 170.358C220.715 172.342 219.596 174.113 218.009 175.399C216.421 176.685 214.453 177.412 212.41 177.469L212.718 175.193Z" fill="#F7B094"/>
<path d="M227.114 338.845H222.363C222.02 338.845 221.692 338.709 221.45 338.468C221.208 338.226 221.072 337.899 221.072 337.557V267.607H228.38V337.565C228.378 337.901 228.245 338.223 228.008 338.462C227.771 338.702 227.45 338.839 227.114 338.845Z" fill="#0A2033"/>
<path d="M239.83 274.702H209.654C208.329 274.702 207.058 274.177 206.121 273.242C205.184 272.307 204.658 271.039 204.658 269.717V268.618H244.834V269.717C244.834 270.372 244.705 271.021 244.453 271.626C244.202 272.232 243.833 272.782 243.368 273.245C242.903 273.708 242.352 274.075 241.745 274.325C241.138 274.575 240.487 274.703 239.83 274.702Z" fill="#30475E"/>
<path d="M227.114 348.05H222.363C222.02 348.05 221.692 347.914 221.45 347.673C221.208 347.431 221.072 347.104 221.072 346.762V330.557H228.38V346.762C228.381 347.1 228.248 347.424 228.011 347.665C227.774 347.905 227.452 348.044 227.114 348.05Z" fill="#0A2033"/>
<path d="M186.834 343.783C186.834 344.627 187.085 345.452 187.555 346.154C188.025 346.856 188.692 347.402 189.474 347.725C190.255 348.048 191.115 348.133 191.944 347.968C192.773 347.803 193.535 347.397 194.133 346.8C194.731 346.204 195.139 345.443 195.304 344.616C195.469 343.788 195.384 342.93 195.06 342.151C194.737 341.371 194.189 340.705 193.485 340.236C192.782 339.767 191.956 339.517 191.11 339.517C189.976 339.517 188.888 339.966 188.086 340.766C187.285 341.567 186.834 342.652 186.834 343.783Z" fill="#0A2033"/>
<path d="M254.107 343.783C254.107 344.627 254.357 345.452 254.827 346.154C255.297 346.856 255.965 347.402 256.746 347.725C257.527 348.048 258.387 348.133 259.217 347.968C260.046 347.803 260.808 347.397 261.406 346.8C262.004 346.204 262.411 345.443 262.576 344.616C262.741 343.788 262.656 342.93 262.333 342.151C262.009 341.371 261.461 340.705 260.758 340.236C260.055 339.767 259.228 339.517 258.382 339.517C257.248 339.517 256.161 339.966 255.359 340.766C254.557 341.567 254.107 342.652 254.107 343.783Z" fill="#0A2033"/>
<path d="M217.398 337.936H232.094V325.12H217.398V337.936Z" fill="#30475E"/>
<path d="M262.658 340.939H186.834V339.454C186.834 338.249 187.314 337.093 188.168 336.241C189.021 335.389 190.18 334.91 191.387 334.91H258.105C259.313 334.91 260.471 335.389 261.325 336.241C262.179 337.093 262.658 338.249 262.658 339.454V340.939Z" fill="#FBD15B"/>
<path d="M224.746 276.14H222.212V323.983H224.746V276.14Z" fill="#30475E"/>
<path d="M253.418 216.92C253.002 216.906 252.588 216.979 252.203 217.134C251.817 217.289 251.469 217.523 251.179 217.821C250.89 218.118 250.666 218.473 250.523 218.863C250.379 219.252 250.319 219.667 250.345 220.081C250.844 228.772 248.999 249.948 240.891 257.217C230.986 266.05 202.884 264.849 202.884 264.849C202.884 264.849 198.252 270.53 207.524 271.795C216.796 273.059 242.95 272.213 249.276 266.319C255.397 260.622 259.032 245.681 256.292 219.701C256.22 218.98 255.888 218.31 255.358 217.814C254.828 217.319 254.135 217.032 253.41 217.007L253.418 216.92Z" fill="#FBD15B"/>
<path d="M200.825 323.983L204.167 331.584L193.929 336.064L190.579 328.439L200.825 323.983Z" fill="url(#paint2_radial)"/>
<path d="M249.086 239.51C248.453 240.774 202.979 239.51 198.688 239.929C198.688 239.929 170.855 253.187 166.857 265.592C166.434 267.18 166.302 268.832 166.469 270.467C167.577 287.937 187.515 329.774 187.515 329.774L190.579 328.439L200.825 323.983L202.282 323.351C202.282 323.351 186.446 276.322 189.613 273.802C192.781 271.281 228.618 264.96 241.081 261.602C253.544 258.244 249.086 239.51 249.086 239.51Z" fill="#56548C"/>
<path d="M161.805 325.934L162.605 337.352H151.44L150.632 325.911L161.805 325.934Z" fill="url(#paint3_radial)"/>
<path d="M198.458 239.541L198.054 239.715C198.054 239.715 151.464 246.242 143.87 259.287C138.937 267.765 148.487 329.751 148.487 329.751L164.972 329.79C164.972 329.79 162.502 278.155 163.325 275.271C164.252 271.984 165.835 270.799 166.492 270.459C166.326 268.824 166.457 267.173 166.88 265.584C170.839 253.179 198.711 239.921 198.711 239.921C198.591 239.822 198.503 239.69 198.458 239.541Z" fill="#3D3D7A"/>
<path d="M243.465 196.582L240.337 197.009C239.778 202.658 238.903 208.271 237.716 213.823L198.783 228.567L198.252 231.387L197.769 231.348C197.769 231.925 197.769 232.494 197.809 233.023C197.896 236.27 198.117 238.601 198.458 239.541C198.493 239.689 198.57 239.824 198.68 239.929C199.741 240.79 213.51 239.139 228.396 244.575C241.303 249.315 248.54 254.475 248.873 253.78C252.935 245.365 245.547 212.337 243.465 196.582Z" fill="#FF8578"/>
<path d="M239.403 215.846C238.365 220.815 235.681 230.716 230.423 232.043C223.55 233.781 210.264 233.695 197.817 233.023C197.817 232.494 197.817 231.925 197.777 231.348L198.26 231.387L198.79 228.567L237.716 213.823C238.903 208.271 239.778 202.658 240.337 197.009C240.333 197.056 240.333 197.104 240.337 197.151C240.424 198.447 240.955 208.521 239.403 215.846Z" fill="#F4675D"/>
<path d="M200.366 184.169C199.669 185.433 198.672 198.937 198.125 212.345L190.168 204.934C193.564 198.407 200.366 184.169 200.366 184.169Z" fill="#F4675D"/>
<path d="M195.615 222.143C188.893 223.304 182.725 224.3 182.725 224.3V224.632C175.25 218.674 163.871 201.789 163.871 201.789C163.871 201.789 167.276 197.712 168.123 196.645C168.25 196.479 186.794 209.216 187.745 209.106C187.99 209.106 188.94 207.407 190.199 204.934L198.157 212.345C198.03 215.506 197.927 218.722 197.864 221.74L195.615 222.143Z" fill="#F7B094"/>
<path d="M182.725 224.324L182.558 229.854H162.359C162.359 229.854 164.37 221.953 169.842 221.953C175.313 221.953 177.435 224.845 177.435 224.845L182.725 224.324Z" fill="url(#paint4_radial)"/>
<path d="M167.957 196.519L168.108 196.645C167.26 197.712 163.856 201.789 163.856 201.789L161.749 200.304C160.972 200.715 160.103 200.925 159.223 200.914C158.343 200.903 157.48 200.671 156.714 200.24C153.887 198.715 155.637 195.065 155.779 194.63C155.233 194.788 151.82 197.514 151.321 197.222C150.822 196.93 150.395 195.974 154.18 192.252C157.965 188.531 163.088 193.311 163.238 193.311L167.957 196.519Z" fill="#F7B094"/>
<path d="M157.149 199.608C157.149 199.608 156.357 201.133 157.782 201.789C159.527 202.485 161.391 202.834 163.27 202.816C164.481 202.698 165.439 201.007 165.439 201.007L161.773 197.57H158.836L157.149 199.608Z" fill="#F7B094"/>
<path d="M156.935 200.351C157.149 199.608 159.231 200.003 160.53 200.035C161.48 200.035 162.003 199.814 162.296 199.087C162.589 198.36 161.203 197.214 160.934 197.57C160.665 197.925 161.433 198.447 161.456 198.921C161.48 199.395 160.095 199.561 159.034 199.561C158.06 199.599 157.09 199.691 156.128 199.837L156.935 200.351Z" fill="#E8987C"/>
<path d="M235.744 220.997L215.949 213.989C214.508 216.675 212.964 218.729 211.436 219.101C209.116 219.709 203.517 220.752 197.88 221.74L195.647 222.143C188.924 223.304 182.756 224.3 182.756 224.3V224.632V224.845L182.606 229.831V231.095C187.679 230.906 192.76 230.99 197.824 231.348C209.702 232.193 225.023 232.699 230.099 230.313C232.474 229.191 234.374 225.501 235.863 220.958L235.744 220.997Z" fill="url(#paint5_radial)"/>
<path d="M215.917 213.989L235.744 220.997L234.842 223.636L215.221 215.237L215.917 213.989Z" fill="#F7B094"/>
<path d="M215.917 213.989C214.476 216.675 212.932 218.729 211.404 219.101C209.084 219.709 203.486 220.752 197.848 221.74C197.911 218.722 198.014 215.537 198.141 212.345C198.687 198.913 199.685 185.433 200.382 184.169C201.522 182.059 204.634 177.477 209.543 176.434V176.497C209.543 176.497 207.849 186.492 217.968 186.492C227.612 186.492 228.84 177.137 228.927 176.22C233.884 176.773 241.493 179.247 242.538 189.194C242.752 191.162 243.061 193.69 243.449 196.558L240.329 196.985C240.329 196.985 239.062 210.994 235.808 220.934H235.736L215.917 213.989Z" fill="#FF8578"/>
<g style="mix-blend-mode:screen">
<path d="M215.712 212.163L223.63 193.042L217.794 212.938L215.712 212.163Z" fill="#6D4B35"/>
</g>
<path d="M228.935 176.244H224.619C224.619 176.244 218.483 182.968 214.54 182.968C210.596 182.968 212.718 176.284 212.718 176.284H210.794C208.122 176.282 205.542 177.262 203.547 179.037C201.552 180.812 200.282 183.258 199.978 185.907C199.907 186.539 199.844 187.132 199.788 187.669C199.368 191.739 215.886 194.702 215.886 194.702L224.39 194.227L229.552 184.169L230.582 180.053L228.935 176.244Z" fill="#FF8578"/>
<path d="M176.881 344.811C177.261 346.865 178.694 348.327 180.753 347.971L208.229 342.851C208.394 342.822 208.552 342.76 208.693 342.669C208.835 342.578 208.956 342.46 209.051 342.322C209.146 342.183 209.213 342.028 209.247 341.864C209.281 341.699 209.282 341.53 209.25 341.366L208.799 338.932C208.799 338.932 179.906 343.981 176.865 344.818L176.881 344.811Z" fill="#F1F2F2"/>
<path d="M185.053 337.905L185.9 337.162L187.483 335.732L188.275 335.005L189.677 333.757L190.524 332.967L191.64 331.963C191.752 331.872 191.892 331.822 192.036 331.822C192.181 331.822 192.321 331.872 192.432 331.963C193.557 332.911 197.183 335.084 203.819 330.999C203.892 330.951 203.974 330.92 204.061 330.905C204.147 330.891 204.235 330.895 204.32 330.916C204.405 330.938 204.484 330.977 204.553 331.03C204.622 331.084 204.68 331.151 204.721 331.228L208.72 338.9C208.72 338.9 179.827 343.949 176.786 344.787C177.863 344.171 181.553 340.986 185.053 337.905Z" fill="#3D3D7A"/>
<path d="M133.608 344.542C133.656 346.636 134.836 348.303 136.934 348.248L164.869 347.568C165.037 347.565 165.203 347.529 165.357 347.462C165.511 347.394 165.65 347.297 165.767 347.176C165.883 347.055 165.974 346.912 166.035 346.756C166.095 346.599 166.124 346.432 166.12 346.264L166.057 343.791C166.057 343.791 136.76 344.179 133.593 344.526L133.608 344.542Z" fill="#F1F2F2"/>
<path d="M142.778 339.027L143.736 338.426L145.557 337.265L146.467 336.68L148.051 335.677L149.009 335.052L150.276 334.262C150.401 334.185 150.549 334.155 150.694 334.176C150.839 334.198 150.971 334.27 151.068 334.381C152.034 335.495 155.288 338.213 162.47 335.234C162.55 335.2 162.637 335.182 162.724 335.183C162.811 335.183 162.898 335.201 162.978 335.236C163.058 335.271 163.13 335.321 163.19 335.385C163.249 335.449 163.295 335.524 163.325 335.606L166.041 343.815C166.041 343.815 136.744 344.202 133.577 344.55C134.646 344.068 138.826 341.508 142.778 339.027Z" fill="#3D3D7A"/>
<path d="M113.726 231.095L98.8082 191.383H141.289L156.215 231.095H113.726Z" fill="black"/>
<path d="M158.843 231.095H156.215L141.289 191.383L143.672 191.486L157.482 227.437L158.843 231.095Z" fill="#8495A0"/>
<path d="M158.012 231.095H186.113L186.034 228.59H157.442" fill="#8495A0"/>
<path d="M277.615 238.672H270.853V349.472H277.615V238.672Z" fill="#8495A0"/>
<path d="M240.931 238.672H234.169V349.472H240.931V238.672Z" fill="#ABB5BA"/>
<path d="M123.394 238.672H116.632V349.472H123.394V238.672Z" fill="black"/>
<path d="M86.7094 238.672H79.9473V349.472H86.7094V238.672Z" fill="#ABB5BA"/>
<path d="M284.378 231.095H73.4702C71.6554 231.095 70.1842 232.563 70.1842 234.374V235.812C70.1842 237.623 71.6554 239.091 73.4702 239.091H284.378C286.192 239.091 287.664 237.623 287.664 235.812V234.374C287.664 232.563 286.192 231.095 284.378 231.095Z" fill="#141B56"/>
<path d="M105.903 195.555L106.623 197.491H115.088L114.367 195.555H105.903Z" fill="#8495A0"/>
<path d="M190.183 204.934L189.582 206.111L198.141 214.937V212.345L190.183 204.934Z" fill="#E8987C"/>
<path d="M365 348.05H23V355.841H365V348.05Z" fill="white"/>
<path d="M310.777 290.252C309.415 296.834 309.826 308.038 301.109 309.808C298.733 310.29 296.492 308.662 295.122 306.805C293.341 304.364 292.913 299.212 292.937 296.257C292.937 293.887 293.729 291.319 294.022 288.956C294.299 286.412 294.529 283.86 294.814 281.316C295.891 272.142 300.689 264.454 308.813 259.879C309.438 262.89 310.872 265.41 312.139 268.326C312.724 269.654 313.214 271.021 313.603 272.419C314.269 274.86 313.469 277.333 312.867 279.68C312.012 283.141 311.497 286.744 310.777 290.252Z" fill="url(#paint6_linear)"/>
<path d="M283.174 288.372C284.758 294.906 289.841 304.893 282.683 310.171C280.759 311.594 278.011 311.08 275.984 309.966C273.34 308.512 270.766 304.016 269.547 301.33C268.581 299.196 268.209 296.502 267.441 294.219C266.649 291.793 265.738 289.383 264.938 286.957C262.025 278.187 263.133 269.195 268.557 261.626C270.402 264.091 272.777 265.798 275.145 267.883C276.239 268.839 277.263 269.872 278.209 270.973C279.84 272.909 280.157 275.492 280.585 277.863C281.274 281.403 282.35 284.887 283.174 288.372Z" fill="url(#paint7_linear)"/>
<path d="M298.29 283.299C298.662 291.603 302.558 304.925 292.628 309.697C289.96 310.977 286.745 309.697 284.544 307.896C281.654 305.525 279.579 299.457 278.716 295.909C278.035 293.097 278.201 289.731 277.798 286.823C277.354 283.662 276.855 280.549 276.436 277.405C274.939 266.074 278.36 255.399 286.729 247.451C288.4 250.872 290.894 253.495 293.285 256.585C294.395 257.996 295.4 259.485 296.294 261.041C297.838 263.775 297.625 266.991 297.617 269.977C297.601 274.402 298.092 278.882 298.29 283.299Z" fill="url(#paint8_linear)"/>
<path d="M290.926 310.448C290.831 309.768 290.752 309.081 290.665 308.401C291.909 307.935 293.032 307.195 293.951 306.236C295.464 304.805 296.742 303.143 297.735 301.314C297.791 301.211 297.632 301.124 297.561 301.211C296.489 302.807 295.211 304.255 293.761 305.517C292.814 306.389 291.748 307.121 290.593 307.69C290.498 306.9 290.427 306.055 290.356 305.241C291.615 304.751 292.597 303.597 293.523 302.665C295.047 301.036 296.438 299.287 297.68 297.434C297.68 297.434 297.68 297.395 297.68 297.434C295.598 299.931 293.42 303.289 290.332 304.68C290.253 303.653 290.189 302.618 290.142 301.59V301.432C293.642 299.544 295.431 295.981 297.696 292.891C297.735 292.836 297.696 292.773 297.625 292.82C295.352 295.72 293.341 298.88 290.118 300.824C290.071 299.346 290.031 297.877 289.991 296.407C292.979 294.359 295.372 291.56 296.928 288.293C296.933 288.287 296.937 288.281 296.939 288.274C296.941 288.268 296.942 288.26 296.941 288.253C296.94 288.246 296.938 288.239 296.934 288.233C296.93 288.227 296.925 288.222 296.918 288.219C296.912 288.215 296.905 288.213 296.898 288.212C296.891 288.211 296.884 288.212 296.877 288.215C296.87 288.218 296.864 288.222 296.859 288.227C296.854 288.232 296.851 288.238 296.849 288.245C295.043 291.406 292.715 293.547 289.976 295.775C289.976 294.313 289.904 292.859 289.849 291.406C291.132 290.315 292.557 289.494 293.673 288.245C294.796 287.004 295.653 285.546 296.191 283.963C296.192 283.948 296.188 283.933 296.18 283.92C296.171 283.908 296.159 283.899 296.145 283.893C296.131 283.888 296.116 283.887 296.101 283.891C296.087 283.895 296.074 283.904 296.065 283.915C294.853 287.115 292.216 288.656 289.817 290.797C289.762 289.446 289.683 288.087 289.58 286.736C292.224 284.271 295.17 281.861 296.096 278.187C296.096 278.187 296.049 278.131 296.041 278.187C294.948 281.632 292.042 283.718 289.524 286.088C289.524 285.851 289.485 285.606 289.469 285.369C289.35 284.113 289.223 282.864 289.089 281.616C290.662 280.421 292.118 279.08 293.436 277.61C294.47 276.661 295.293 275.506 295.851 274.22C295.851 274.141 295.748 274.086 295.716 274.173C294.663 276.946 291.401 279.222 289.033 281.071C288.899 279.807 288.756 278.55 288.622 277.286C291.132 274.75 294.362 272.885 295.368 269.203C295.375 269.181 295.374 269.157 295.363 269.136C295.353 269.115 295.335 269.1 295.312 269.092C295.29 269.085 295.266 269.087 295.246 269.097C295.225 269.107 295.209 269.126 295.202 269.148C294.061 272.569 290.965 274.315 288.558 276.693L288.321 274.323C291.219 272.348 294.259 268.737 295.217 265.434C295.221 265.4 295.213 265.367 295.194 265.338C295.176 265.309 295.149 265.288 295.117 265.277C295.084 265.266 295.05 265.266 295.018 265.277C294.986 265.289 294.958 265.311 294.94 265.339C293.568 268.681 291.245 271.549 288.257 273.588C288.139 272.324 288.028 271.052 287.933 269.78C287.94 269.741 287.94 269.7 287.933 269.661C289.241 268.739 290.428 267.656 291.464 266.438C292.792 265.202 293.807 263.669 294.426 261.965C294.489 261.768 294.18 261.689 294.125 261.878C293.333 264.77 290.403 267.315 287.862 268.99C287.862 268.523 287.798 268.057 287.774 267.591C287.774 266.896 287.703 266.2 287.671 265.505C288.614 264.431 289.968 263.688 290.91 262.566C291.695 261.573 292.395 260.516 293 259.405C293.014 259.383 293.018 259.357 293.012 259.332C293.006 259.306 292.991 259.285 292.969 259.271C292.947 259.257 292.92 259.253 292.895 259.259C292.87 259.265 292.848 259.281 292.834 259.303C292.01 260.701 291.003 261.985 289.841 263.119C289.16 263.735 288.321 264.201 287.679 264.857L287.466 261.46H287.513C287.549 261.457 287.584 261.445 287.614 261.426C287.644 261.407 287.669 261.38 287.687 261.349C289.136 260.559 289.992 258.931 290.744 257.533C290.744 257.533 290.744 257.47 290.696 257.533C289.917 258.928 288.835 260.132 287.529 261.057H287.466C287.418 260.135 287.355 259.21 287.276 258.283C287.302 258.274 287.327 258.259 287.348 258.24C287.368 258.22 287.385 258.197 287.397 258.172C287.409 258.146 287.415 258.118 287.416 258.09C287.417 258.061 287.412 258.033 287.402 258.007C288.071 257.225 288.667 256.384 289.184 255.494C289.187 255.481 289.186 255.467 289.181 255.455C289.176 255.442 289.167 255.432 289.156 255.425C289.144 255.418 289.131 255.415 289.117 255.416C289.104 255.417 289.091 255.422 289.081 255.431C288.538 256.218 287.915 256.946 287.22 257.604C287.046 255.7 286.8 253.803 286.428 251.915C286.42 251.879 286.398 251.848 286.367 251.829C286.335 251.81 286.298 251.804 286.262 251.812C286.226 251.821 286.195 251.843 286.176 251.874C286.157 251.905 286.151 251.943 286.159 251.978C286.452 253.811 286.634 255.644 286.777 257.509C285.572 256.664 284.483 255.666 283.538 254.538C283.499 254.483 283.396 254.538 283.435 254.601C283.918 255.307 284.487 255.949 285.13 256.513C285.647 257.106 286.214 257.653 286.824 258.149C286.896 259.137 286.943 260.132 286.991 261.128C285.918 261.314 284.814 261.174 283.823 260.725C283.197 260.407 282.64 259.968 282.184 259.434C281.729 258.899 281.384 258.28 281.171 257.612C281.115 257.446 280.846 257.509 280.901 257.675C281.331 258.938 282.166 260.023 283.277 260.764C284.381 261.432 285.677 261.71 286.959 261.555C287.006 262.7 287.046 263.854 287.078 264.999C285.995 264.631 284.937 264.193 283.91 263.688C282.255 262.945 281.107 261.831 279.603 260.899C279.572 260.879 279.535 260.872 279.5 260.879C279.464 260.887 279.433 260.908 279.413 260.938C279.393 260.969 279.386 261.006 279.393 261.041C279.401 261.077 279.422 261.108 279.452 261.128C280.87 262.036 281.955 263.127 283.499 263.877C284.642 264.513 285.85 265.027 287.101 265.41V265.592C287.073 265.631 287.062 265.679 287.069 265.727C287.076 265.774 287.102 265.817 287.141 265.845C287.141 266.943 287.212 268.041 287.252 269.14C287.252 269.211 287.252 269.282 287.252 269.345C284.544 268.847 280.411 267.836 279.381 265.102C279.373 265.074 279.359 265.049 279.34 265.027C279.321 265.005 279.297 264.988 279.27 264.976C279.244 264.965 279.215 264.959 279.186 264.96C279.157 264.961 279.129 264.968 279.103 264.981C279.077 264.994 279.054 265.012 279.036 265.035C279.018 265.058 279.005 265.084 278.999 265.112C278.992 265.14 278.991 265.17 278.997 265.198C279.003 265.226 279.015 265.253 279.033 265.276C280.553 268.279 284.425 268.808 287.283 269.938C287.347 271.178 287.426 272.419 287.529 273.651C285.823 273.556 284.146 273.169 282.572 272.506C281.131 271.858 279.136 271.131 278.225 269.796C278.225 269.756 278.138 269.796 278.162 269.843C279.033 271.186 280.814 271.81 282.176 272.529C283.811 273.505 285.653 274.082 287.553 274.212C287.55 274.268 287.564 274.323 287.592 274.37C287.656 275.161 287.727 275.951 287.798 276.741C284.789 277.262 280.086 276.069 278.011 274.212C279.478 275.535 281.305 276.393 283.261 276.678C284.75 277.117 286.307 277.272 287.854 277.136C287.996 278.582 288.147 280.036 288.289 281.482C286.888 281.331 285.47 281.442 284.077 281.252C282.049 280.946 280.165 280.022 278.684 278.606C278.589 278.519 278.439 278.645 278.534 278.732C281.4 281.466 284.591 281.679 288.345 282.019C288.463 283.212 288.574 284.389 288.669 285.59C285.716 285.764 281.63 284.966 279.579 282.88C279.429 282.722 279.183 282.951 279.334 283.101C280.694 284.356 282.397 285.181 284.227 285.472C285.51 285.756 287.323 286.317 288.709 286.08C288.709 286.08 288.709 286.151 288.709 286.191C288.843 287.905 288.93 289.628 288.994 291.35C285.637 291.35 283.016 289.533 280.165 287.929C279.967 287.818 279.777 288.111 279.975 288.229C282.897 289.936 285.518 291.824 289.01 291.848C289.057 293.255 289.081 294.653 289.097 296.052C286.084 295.889 283.19 294.826 280.791 293.002C280.624 292.883 280.466 293.144 280.624 293.27C283.069 295.169 286.011 296.324 289.097 296.597C289.097 298.106 289.097 299.607 289.097 301.116C286.23 301.393 283.665 300.2 281.416 298.454C281.361 298.414 281.289 298.501 281.345 298.541C283.38 300.255 286.278 302.104 289.089 301.662C289.089 302.144 289.089 302.625 289.089 303.107C289.089 303.392 289.089 303.692 289.089 303.985C286.888 303.943 284.719 303.454 282.715 302.546C282.707 302.551 282.7 302.558 282.695 302.567C282.69 302.575 282.688 302.584 282.688 302.594C282.688 302.603 282.69 302.613 282.695 302.621C282.7 302.629 282.707 302.636 282.715 302.641C284.719 303.658 286.921 304.225 289.168 304.301C289.168 305.209 289.128 306.142 289.113 307.09C288.536 306.959 287.952 306.87 287.363 306.821C286.335 306.672 285.331 306.387 284.378 305.976C284.283 305.976 284.219 306.086 284.314 306.118C285.151 306.534 286.033 306.852 286.943 307.066C287.679 307.153 288.392 307.311 289.105 307.437C289.049 311.198 289.16 315.157 290.474 318.428C290.767 319.155 292.058 319.037 292.058 318.191C291.979 315.599 291.282 312.984 290.926 310.448Z" fill="#747DED"/>
<path d="M303.769 313.513L303.405 320.269L302.827 330.778L301.885 348.05H278.455L277.513 330.778L276.935 320.269L276.57 313.513H303.769Z" fill="#95A8B5"/>
<path d="M303.405 320.269L303.326 321.62L303.254 323.027L302.827 330.778H277.513L277.085 323.027L277.014 321.62L276.935 320.269H303.405Z" fill="#A5B7C6"/>
<path d="M303.326 321.62L303.254 323.027H277.085L277.014 321.62H303.326Z" fill="#95A8B5"/>
</g>
<defs>
<radialGradient id="paint0_radial" cx="0" cy="0" r="1" gradientUnits="userSpaceOnUse" gradientTransform="translate(219.195 175.81) scale(10.2381 10.2164)">
<stop stop-color="#FFC8AF"/>
<stop offset="1" stop-color="#FFBB9C"/>
</radialGradient>
<radialGradient id="paint1_radial" cx="0" cy="0" r="1" gradientUnits="userSpaceOnUse" gradientTransform="translate(7790.81 1773.84) rotate(-12.125) scale(578.15 727.06)">
<stop stop-color="#FFC8AF"/>
<stop offset="1" stop-color="#FFBB9C"/>
</radialGradient>
<radialGradient id="paint2_radial" cx="0" cy="0" r="1" gradientUnits="userSpaceOnUse" gradientTransform="translate(3182.82 4042.18) scale(110.466 98.2193)">
<stop stop-color="#FFC8AF"/>
<stop offset="1" stop-color="#FFBB9C"/>
</radialGradient>
<radialGradient id="paint3_radial" cx="0" cy="0" r="1" gradientUnits="userSpaceOnUse" gradientTransform="translate(2170.94 3870.48) scale(88.5944 84.6642)">
<stop stop-color="#FFC8AF"/>
<stop offset="1" stop-color="#FFBB9C"/>
</radialGradient>
<radialGradient id="paint4_radial" cx="0" cy="0" r="1" gradientUnits="userSpaceOnUse" gradientTransform="translate(4516.9 1572.44) scale(843.944 327.43)">
<stop stop-color="#FFC8AF"/>
<stop offset="1" stop-color="#FFBB9C"/>
</radialGradient>
<radialGradient id="paint5_radial" cx="0" cy="0" r="1" gradientUnits="userSpaceOnUse" gradientTransform="translate(11570.1 3301.12) scale(2206.98 748.482)">
<stop stop-color="#FFC8AF"/>
<stop offset="1" stop-color="#FFBB9C"/>
</radialGradient>
<linearGradient id="paint6_linear" x1="302.142" y1="260.382" x2="302.194" y2="310.223" gradientUnits="userSpaceOnUse">
<stop stop-color="#606BF1"/>
<stop offset="1" stop-color="#58479F"/>
</linearGradient>
<linearGradient id="paint7_linear" x1="1842.6" y1="-13177.3" x2="1967.64" y2="-11167" gradientUnits="userSpaceOnUse">
<stop stop-color="#606BF1"/>
<stop offset="1" stop-color="#58479F"/>
</linearGradient>
<linearGradient id="paint8_linear" x1="4553.98" y1="-11561.5" x2="3985.93" y2="-8970.93" gradientUnits="userSpaceOnUse">
<stop stop-color="#606BF1"/>
<stop offset="1" stop-color="#58479F"/>
</linearGradient>
<clipPath id="clip0">
<rect width="342" height="269" fill="white" transform="translate(23 86.8408)"/>
</clipPath>
</defs>
</svg>
