<svg width="1016" height="558" viewBox="0 0 1016 558" fill="none" xmlns="http://www.w3.org/2000/svg">
<line x1="135.259" y1="513.999" x2="853.656" y2="125.833" stroke="black" stroke-opacity="0.3" stroke-width="2"/>
<line x1="853.646" y1="515.754" x2="153.457" y2="127.588" stroke="black" stroke-opacity="0.3" stroke-width="2"/>
<rect x="135.734" y="111.815" width="726.674" height="409.685" rx="10" fill="#C4C4C4" fill-opacity="0.07"/>
<rect y="0.0831299" width="1015.52" height="557.834" fill="#1F1F1F"/>
<rect opacity="0.3" x="52.9694" y="95.2625" width="437.825" height="25.657" rx="5" fill="#414141"/>
<rect opacity="0.3" x="489.967" y="321.21" width="437.825" height="25.657" rx="5" fill="#414141"/>
<rect opacity="0.3" x="52.9694" y="133.334" width="437.825" height="25.657" rx="5" fill="#414141"/>
<rect opacity="0.3" x="489.967" y="359.282" width="437.825" height="25.657" rx="5" fill="#414141"/>
<rect opacity="0.3" x="52.9694" y="169.751" width="437.825" height="25.657" rx="5" fill="#414141"/>
<rect opacity="0.3" x="489.967" y="395.698" width="437.825" height="25.657" rx="5" fill="#414141"/>
<line x1="166.357" y1="400.819" x2="830.957" y2="400.819" stroke="#FF5B00" stroke-width="3"/>
<path d="M298.904 179.232V187.396H287.82V221.065H277.63V187.396H266.546V179.232H298.904Z" fill="white"/>
<path d="M343.228 179.232V221.065H333.038V203.843H317.187V221.065H306.997V179.232H317.187V195.62H333.038V179.232H343.228Z" fill="white"/>
<path d="M363.754 187.396V195.858H377.4V203.724H363.754V212.901H379.188V221.065H353.564V179.232H379.188V187.396H363.754Z" fill="white"/>
<path d="M451.765 179.232V221.065H441.575V195.977L432.219 221.065H423.996L414.581 195.917V221.065H404.391V179.232H416.428L428.167 208.193L439.787 179.232H451.765Z" fill="white"/>
<path d="M488.113 213.675H472.501L469.998 221.065H459.331L474.467 179.232H486.266L501.402 221.065H490.616L488.113 213.675ZM485.492 205.81L480.307 190.495L475.182 205.81H485.492Z" fill="white"/>
<path d="M536.758 192.461C536.003 191.071 534.91 190.018 533.48 189.303C532.09 188.548 530.441 188.171 528.534 188.171C525.237 188.171 522.595 189.263 520.608 191.448C518.622 193.593 517.629 196.474 517.629 200.089C517.629 203.942 518.662 206.962 520.728 209.147C522.833 211.292 525.713 212.364 529.368 212.364C531.871 212.364 533.977 211.729 535.685 210.458C537.433 209.186 538.704 207.359 539.499 204.975H526.568V197.467H548.735V206.942C547.98 209.484 546.689 211.848 544.862 214.033C543.074 216.218 540.79 217.986 538.009 219.337C535.228 220.687 532.09 221.363 528.594 221.363C524.462 221.363 520.767 220.469 517.51 218.681C514.292 216.854 511.769 214.331 509.942 211.113C508.154 207.895 507.26 204.22 507.26 200.089C507.26 195.957 508.154 192.282 509.942 189.065C511.769 185.807 514.292 183.284 517.51 181.497C520.728 179.669 524.402 178.755 528.534 178.755C533.54 178.755 537.751 179.967 541.167 182.39C544.623 184.814 546.908 188.171 548.02 192.461H536.758Z" fill="white"/>
<path d="M567.549 179.232V221.065H557.359V179.232H567.549Z" fill="white"/>
<path d="M576.185 200.089C576.185 195.957 577.079 192.282 578.867 189.065C580.654 185.807 583.137 183.284 586.315 181.497C589.533 179.669 593.168 178.755 597.22 178.755C602.186 178.755 606.437 180.066 609.973 182.688C613.509 185.31 615.872 188.886 617.064 193.415H605.861C605.027 191.667 603.835 190.336 602.286 189.422C600.776 188.508 599.048 188.052 597.101 188.052C593.963 188.052 591.42 189.144 589.474 191.329C587.527 193.514 586.554 196.434 586.554 200.089C586.554 203.744 587.527 206.664 589.474 208.849C591.42 211.034 593.963 212.126 597.101 212.126C599.048 212.126 600.776 211.669 602.286 210.756C603.835 209.842 605.027 208.511 605.861 206.763H617.064C615.872 211.292 613.509 214.867 609.973 217.489C606.437 220.072 602.186 221.363 597.22 221.363C593.168 221.363 589.533 220.469 586.315 218.681C583.137 216.854 580.654 214.331 578.867 211.113C577.079 207.895 576.185 204.22 576.185 200.089Z" fill="white"/>
<path d="M661.676 221.482C657.743 221.482 654.127 220.568 650.83 218.741C647.573 216.913 644.97 214.371 643.024 211.113C641.117 207.816 640.163 204.121 640.163 200.029C640.163 195.937 641.117 192.263 643.024 189.005C644.97 185.747 647.573 183.205 650.83 181.377C654.127 179.55 657.743 178.636 661.676 178.636C665.609 178.636 669.204 179.55 672.461 181.377C675.759 183.205 678.341 185.747 680.208 189.005C682.115 192.263 683.069 195.937 683.069 200.029C683.069 204.121 682.115 207.816 680.208 211.113C678.301 214.371 675.719 216.913 672.461 218.741C669.204 220.568 665.609 221.482 661.676 221.482ZM661.676 212.186C665.013 212.186 667.674 211.073 669.661 208.849C671.687 206.624 672.7 203.684 672.7 200.029C672.7 196.335 671.687 193.395 669.661 191.21C667.674 188.985 665.013 187.873 661.676 187.873C658.299 187.873 655.597 188.965 653.571 191.15C651.585 193.335 650.592 196.295 650.592 200.029C650.592 203.724 651.585 206.684 653.571 208.908C655.597 211.093 658.299 212.186 661.676 212.186Z" fill="white"/>
<path d="M718.95 179.232V187.396H701.907V196.215H714.66V204.141H701.907V221.065H691.717V179.232H718.95Z" fill="white"/>
<path d="M189.058 302.34V316.443H211.801V329.553H189.058V344.848H214.781V358.454H172.074V288.733H214.781V302.34H189.058Z" fill="#FF5B00"/>
<path d="M276.459 358.454L262.256 337.101L249.742 358.454H230.475L252.821 322.998L229.978 288.733H249.742L263.746 309.789L276.061 288.733H295.329L273.181 323.892L296.223 358.454H276.459Z" fill="#FF5B00"/>
<path d="M365.829 311.179C365.829 315.218 364.902 318.926 363.048 322.303C361.194 325.613 358.347 328.295 354.507 330.347C350.666 332.4 345.899 333.426 340.205 333.426H329.677V358.454H312.694V288.733H340.205C345.767 288.733 350.468 289.693 354.308 291.613C358.148 293.534 361.029 296.182 362.949 299.559C364.869 302.936 365.829 306.809 365.829 311.179ZM338.914 319.919C342.158 319.919 344.575 319.158 346.164 317.635C347.753 316.112 348.548 313.96 348.548 311.179C348.548 308.398 347.753 306.246 346.164 304.723C344.575 303.201 342.158 302.439 338.914 302.439H329.677V319.919H338.914Z" fill="#FF5B00"/>
<path d="M399.599 302.34V316.443H422.343V329.553H399.599V344.848H425.323V358.454H382.616V288.733H425.323V302.34H399.599Z" fill="#FF5B00"/>
<path d="M479.849 358.454L465.349 332.135H461.277V358.454H444.294V288.733H472.798C478.293 288.733 482.961 289.693 486.802 291.613C490.708 293.534 493.621 296.182 495.542 299.559C497.462 302.869 498.422 306.577 498.422 310.682C498.422 315.317 497.098 319.456 494.449 323.097C491.867 326.739 488.027 329.321 482.928 330.844L499.018 358.454H479.849ZM461.277 320.118H471.805C474.917 320.118 477.234 319.356 478.757 317.833C480.346 316.31 481.141 314.159 481.141 311.378C481.141 308.729 480.346 306.644 478.757 305.121C477.234 303.598 474.917 302.836 471.805 302.836H461.277V320.118Z" fill="#FF5B00"/>
<path d="M534.012 288.733V358.454H517.028V288.733H534.012Z" fill="#FF5B00"/>
<path d="M571.248 302.34V316.443H593.992V329.553H571.248V344.848H596.971V358.454H554.265V288.733H596.971V302.34H571.248Z" fill="#FF5B00"/>
<path d="M678.314 358.454H661.331L632.926 315.45V358.454H615.942V288.733H632.926L661.331 331.936V288.733H678.314V358.454Z" fill="#FF5B00"/>
<path d="M695.69 323.494C695.69 316.608 697.18 310.484 700.159 305.121C703.139 299.691 707.277 295.487 712.574 292.507C717.937 289.462 723.995 287.939 730.749 287.939C739.025 287.939 746.11 290.124 752.003 294.494C757.896 298.864 761.835 304.823 763.822 312.371H745.15C743.76 309.458 741.773 307.239 739.191 305.717C736.675 304.194 733.795 303.432 730.55 303.432C725.32 303.432 721.082 305.253 717.838 308.895C714.593 312.536 712.971 317.403 712.971 323.494C712.971 329.586 714.593 334.452 717.838 338.094C721.082 341.736 725.32 343.557 730.55 343.557C733.795 343.557 736.675 342.795 739.191 341.272C741.773 339.749 743.76 337.531 745.15 334.618H763.822C761.835 342.166 757.896 348.125 752.003 352.495C746.11 356.799 739.025 358.951 730.749 358.951C723.995 358.951 717.937 357.461 712.574 354.481C707.277 351.436 703.139 347.231 700.159 341.868C697.18 336.505 695.69 330.38 695.69 323.494Z" fill="#FF5B00"/>
<path d="M799.151 302.34V316.443H821.895V329.553H799.151V344.848H824.874V358.454H782.168V288.733H824.874V302.34H799.151Z" fill="#FF5B00"/>
<rect x="52.9694" y="24.0848" width="91.8688" height="35.5888" rx="5" fill="#C4C4C4" fill-opacity="0.15"/>
<rect x="758.124" y="24.0848" width="60.4182" height="18.2082" rx="5" fill="#C4C4C4" fill-opacity="0.15"/>
<rect x="821.025" y="24.0848" width="60.4182" height="18.2082" rx="5" fill="#C4C4C4" fill-opacity="0.15"/>
<rect x="884.754" y="24.0848" width="60.4182" height="18.2082" rx="5" fill="#C4C4C4" fill-opacity="0.15"/>
<rect x="77.7988" y="473.497" width="325.265" height="84.4199" rx="10" fill="#313131"/>
<rect x="489.967" y="473.497" width="325.265" height="84.4199" rx="10" fill="#313131"/>
</svg>
